<?xml version="1.0" encoding="utf-8"?>
<!-- Generator: Adobe Illustrator 27.3.1, SVG Export Plug-In . SVG Version: 6.00 Build 0)  -->
<svg version="1.1" id="Layer_1" xmlns="http://www.w3.org/2000/svg" xmlns:xlink="http://www.w3.org/1999/xlink" x="0px" y="0px"
	 viewBox="0 0 217.2 164.7" style="enable-background:new 0 0 217.2 164.7;" xml:space="preserve">
<style type="text/css">
	.st0{fill:#FFFFFE;}
	.st1{fill:url(#SVGID_1_);}
	.st2{fill:#FFFFFF;}
	.st3{fill:#0B202F;}
</style>
<ellipse class="st0" cx="118.2" cy="106.7" rx="15" ry="11.5"/>
<linearGradient id="SVGID_1_" gradientUnits="userSpaceOnUse" x1="31.8876" y1="39.8453" x2="207.4475" y2="167.7013" gradientTransform="matrix(1 0 0 -1 0 166)">
	<stop  offset="0" style="stop-color:#5D2C87"/>
	<stop  offset="0.8191" style="stop-color:#00B2DE"/>
</linearGradient>
<path class="st1" d="M174.9,108.2v1.4c0,1.7-0.2,3.4-0.5,5.1v0l0,0c-2.4,12.8-13.7,22.5-27.1,22.5h-6.8l-0.8,1l-0.8,1l-2.7,3.4h0
	c-1.3,1.7-2.8,3.3-4.5,4.7l0.4,11.3c0.1,3.3-2.5,6.1-5.8,6.2c-0.1,0-0.2,0-0.2,0c-3.2,0-5.9-2.6-6-5.8l-0.2-6.1
	c-1.3,0.3-2.6,0.4-4,0.5l0.2,5.1c0.1,3.3-2.5,6.1-5.8,6.2c-0.1,0-0.2,0-0.2,0c-3.2,0-5.9-2.6-6-5.8l-0.2-5.5h-4l0.2,5
	c0.1,3.3-2.5,6.1-5.8,6.2c-0.1,0-0.2,0-0.2,0c-3.2,0-5.9-2.6-6-5.8l-0.2-5.8c-1.4-0.2-2.7-0.5-4-0.9l0.2,6.3
	c0.1,3.3-2.5,6.1-5.8,6.2c-0.1,0-0.2,0-0.2,0c-3.2,0-5.9-2.6-6-5.8l-0.5-14.2c0-0.1,0-0.3,0-0.4c-4.4-4.9-7.1-11.4-7.1-18.5v-3
	c0-0.3,0-0.6,0-0.9c-15.1-1.8-26.8-14.6-26.8-30.2V89c0-16.8,13.6-30.4,30.4-30.4c3.3,0,6,2.7,6,6c0,3.3-2.7,6-6,6
	C58,70.6,49.7,78.9,49.7,89v2.7c0,10,8,18.1,17.9,18.4c4.6-8.8,13.9-14.9,24.5-14.9h1.2c-0.2,5.1-0.3,11.9,0.4,18.6c0,0,0,0.1,0,0.1
	c0,0.3,0.1,0.5,0.3,0.7c0.3,0.4,0.7,0.7,1.2,0.7c0,0,0.1,0,0.1,0c0,0,0,0,0.1,0c0.3,0,0.5-0.1,0.7-0.3c0.4-0.3,0.6-0.7,0.6-1.2
	c0-0.1,0-0.1,0-0.2c-0.7-6.5-0.6-13.3-0.4-18.4c0.2-4.8,0.6-8,0.6-8.1c0-0.2,0-0.3,0-0.5c1.2-12.4,4.1-28.5,6.5-28.5
	c0.3,0,0.6,0.2,0.8,0.6c-0.4-0.6-0.4-0.9-0.1-0.9c2.3,0,22.6,15.4,27.5,20.6l4.5,4l4.3-4c4.9-5.2,25.2-20.7,27.5-20.7
	c0.3,0,0.3,0.3-0.1,0.9c0.3-0.4,0.5-0.6,0.8-0.6c2.7,0,5.4,19.8,6.1,30.8C174.9,94.3,175.1,101.7,174.9,108.2z M16,46.2l8.7,10.5
	l-13.3-3l-3.3,5.4l8.6,10.5L3.6,66.8l-3.6,6l22,4.5l3.7-6.1L18,61.6l11.9,2.6l3.7-6.1L19.4,40.7L16,46.2z M35.1,26.8
	c-1.9,1.6-3.1,3.7-3.3,5.9l-6.4-7.4l-5.6,4.9l19,21.9l5.6-4.8l-6.7-7.7c-2.3-2.7-1.9-5-0.1-6.5c1.6-1.4,3.5-1.3,5.5,1l7.1,8.2
	l5.6-4.8l-7.9-9.1C43.5,23.2,38.8,23.5,35.1,26.8z M50.5,13.7c2.4-1.4,3.1-3.7,1.9-5.8c-1.1-1.9-3.5-2.4-5.8-1.1s-3.1,3.7-2,5.7
	C45.7,14.5,48.1,15.1,50.5,13.7z M59,35.9l6.4-3.7L54.8,13.9l-6.4,3.7L59,35.9z M88.6,1.4c-2.9,0.8-5.2,2.6-6.2,5.1
	c-2-1.8-4.7-2.2-7.4-1.4c-2.4,0.7-4.3,2-5.4,4.1l-0.6-2.2l-6.8,1.8l5.5,20.4l7.2-1.9L72,17.3c-0.8-3.2,0.3-5,2.4-5.5
	c1.9-0.5,3.4,0.4,4.2,3.4l2.8,10.5l7.2-1.9l-2.7-10.1c-0.8-3.2,0.3-5,2.4-5.5c1.9-0.5,3.4,0.4,4.2,3.4l2.8,10.5l7.2-1.9L99.3,8.3
	C97.6,2,93.4,0.2,88.6,1.4z M113.1,21.8c6.9,0.3,10.6-2.6,10.7-6.5c0.3-8.4-12.2-5.7-12.1-8.6c0-0.8,1-1.4,3.4-1.3
	c1.9,0.1,4,0.6,6,1.8l2.4-4.9c-2.1-1.2-5.3-2-8.3-2.1c-6.6-0.3-10.4,2.6-10.6,6.6c-0.3,8.5,12.3,5.7,12.2,8.6c0,0.9-0.9,1.4-3.4,1.3
	c-2.6-0.1-5.4-1-7.3-2.2l-2.4,5C105.9,20.6,109.6,21.6,113.1,21.8z M145.1,5.5l-8.4,11.1l-1.7-13.8l-7.3-1.9l3.3,23
	c-0.9,1-1.9,1.4-3.2,1c-1.1-0.3-2.2-1.1-2.8-2l-3.8,4.4c1.1,1.5,3.3,2.8,5.4,3.4c4,1.1,7.5,0.3,11-4.4L152,7.3L145.1,5.5z M147,28.8
	l6.7,3.1L166,5.7l-6.7-3.1L147,28.8z M177,20.9c-2.7-1.9-6.1-3.3-9-3.4l-0.9,5.5c1.8-0.1,4.1,0.6,5.7,1.8c2.4,1.7,2.9,3.5,1.7,5.3
	l-3.4-2.4c-5.4-3.8-9.1-3.5-11.3-0.3c-2.1,3-1.5,6.9,2.7,9.9c2.5,1.8,4.8,2.1,6.9,1.1l-1.6,2.2l5.6,4l6.8-9.6
	C184,29.6,182.6,24.9,177,20.9z M166.8,34.8c-1.4-1-1.7-2.3-1-3.4c0.7-1,1.9-1.2,3.9,0.1l2.6,1.8l-1.1,1.5
	C169.8,35.9,168.1,35.7,166.8,34.8z M200.7,42.9c-1.6-1.9-3.4-2.9-5.5-3.1l7.3-6.2l-4.8-5.6l-22,18.7l4.6,5.4l1.6-1.4
	c-0.4,2.2,0.4,4.2,2.2,6.3c3.7,4.4,9.9,5.2,15.1,0.8C204.3,53.5,204.5,47.3,200.7,42.9z M187.6,52.1c-1.6-1.9-1.5-4.6,1-6.7
	c2.4-2.1,5.1-1.8,6.7,0.2s1.5,4.5-0.9,6.6C191.9,54.3,189.2,54,187.6,52.1z M194.9,73.7c3.1,6.1,7.4,7.9,10.9,6.2
	c7.5-3.8-0.9-13.5,1.7-14.8c0.7-0.3,1.7,0.1,2.9,2.4c0.8,1.7,1.4,3.7,1.4,6.1l5.5-0.3c0.1-2.4-0.8-5.6-2.2-8.3
	c-3-5.9-7.4-7.8-10.9-6c-7.6,3.8,1,13.5-1.6,14.8c-0.8,0.4-1.7-0.1-2.8-2.3c-1.2-2.3-1.8-5.2-1.6-7.5l-5.5,0.3
	C192.4,66.7,193.3,70.4,194.9,73.7z"/>
<path class="st2" d="M121.2,120.5h-6c-6.6,0-12-5.4-12-12v-1.3c0-6.6,5.4-12,12-12h6c6.6,0,12,5.4,12,12v1.3
	C133.2,115.1,127.8,120.5,121.2,120.5z"/>
<path class="st3" d="M124.9,114.6h-2.4c-1.1,0-2-0.9-2-2V101c0-1.1,0.9-2,2-2h2.4c1.1,0,2,0.9,2,2v11.6
	C126.9,113.7,126,114.6,124.9,114.6z"/>
<path class="st2" d="M157.2,120.5h-6c-6.6,0-12-5.4-12-12v-1.3c0-6.6,5.4-12,12-12h6c6.6,0,12,5.4,12,12v1.3
	C169.2,115.1,163.8,120.5,157.2,120.5z"/>
<path class="st3" d="M160.9,114.6h-2.4c-1.1,0-2-0.9-2-2V101c0-1.1,0.9-2,2-2h2.4c1.1,0,2,0.9,2,2v11.6
	C162.9,113.7,162,114.6,160.9,114.6z"/>
<path class="st2" d="M96.9,87.1c0-0.2,0-0.3,0-0.5c-0.1,1.3-0.2,2.6-0.3,3.8c0,1.8-0.2,3.4-0.3,4.8h0.1
	C96.5,90.4,96.9,87.2,96.9,87.1z"/>
</svg>
