<?xml version="1.0" encoding="utf-8"?>
<svg viewBox="0 0 500 63" xmlns="http://www.w3.org/2000/svg">
  <path style="stroke: rgb(0, 0, 0);" d="M 0.503 28.61 C 25.236 0.279 54.377 -5.687 87.589 23.766 C 101.197 35.834 121.453 34.156 152.505 19.564 C 189.34 2.254 207.832 1.711 230.583 17.521 C 250.833 31.593 279.495 37.221 298.731 23.812 C 335.941 -2.128 336.582 30.328 373.35 33.004 C 388.268 34.09 404.683 14.631 429.225 15.905 C 455.128 17.249 461.369 40.968 469.58 41.299 C 477.471 41.617 490.197 39.664 499.497 29.705 L 499.5 62.501 L 0.498 62.482 L 0.503 28.61 Z" transform="matrix(1, 0, 0, 0.9999999999999999, -3.552713678800501e-15, 0)">
    <animate attributeName="d" values="M 0.503 28.61 C 25.236 0.279 54.377 -5.687 87.589 23.766 C 101.197 35.834 121.453 34.156 152.505 19.564 C 189.34 2.254 207.832 1.7109999999999999 230.583 17.521 C 250.833 31.593 279.495 37.221 298.731 23.812 C 335.941 -2.128 336.582 30.328 373.35 33.004 C 388.268 34.09 404.683 14.631 429.225 15.905 C 455.128 17.249 461.369 40.968 469.58 41.299 C 477.471 41.617 490.197 39.664 499.497 29.705 L 499.5 62.501 L 0.498 62.482 L 0.503 28.61 Z;M 0.503 28.61 C 25.236 0.279 54.999 62.617 87.796 23.973 C 99.565 10.106 128.237 -4.689 152.505 19.564 C 188.511 55.547 206.795 46.917 230.583 17.521 C 246.095 -1.648 285.607 4.381 298.731 23.812 C 317.486 51.58 368.392 -3.526 373.35 33.004 C 375.411 48.191 417.954 35.99 429.225 15.905 C 441.918 -6.715 466.311 33.76 469.58 41.299 C 476.642 57.584 490.197 39.664 499.497 29.705 L 499.5 62.501 L 0.498 62.482 L 0.503 28.61 Z;M 0.503 28.61 C 25.236 0.279 54.377 -5.687 87.589 23.766 C 101.197 35.834 121.453 34.156 152.505 19.564 C 189.34 2.254 207.832 1.7109999999999999 230.583 17.521 C 250.833 31.593 279.495 37.221 298.731 23.812 C 335.941 -2.128 336.582 30.328 373.35 33.004 C 388.268 34.09 404.683 14.631 429.225 15.905 C 455.128 17.249 461.369 40.968 469.58 41.299 C 477.471 41.617 490.197 39.664 499.497 29.705 L 499.5 62.501 L 0.498 62.482 L 0.503 28.61 Z" begin="0s" dur="2.04s" fill="freeze" keyTimes="0; 0.4964; 1" repeatCount="indefinite"/>
  </path>
</svg>