<?xml version="1.0" encoding="utf-8"?>
<svg viewBox="1 0 432 237" width="432" height="237" xmlns="http://www.w3.org/2000/svg">
  <g>
    <path style="stroke: rgb(0, 0, 0);" d="M 0.516 18.835 C 5.861 12.712 12.159 11.423 19.337 17.788 C 22.278 20.396 27.104 20.123 33.815 16.97 C 41.775 13.229 47.609 13.38 51.316 17.424 C 54.917 21.353 60.811 20.696 64.969 17.798 C 73.01 12.192 73.129 17.88 80.064 21.801 C 82.302 23.067 88.811 19.198 93.753 17.254 C 98.142 15.528 101.686 21.909 103.461 21.981 C 105.166 22.049 106.348 21.224 108.358 19.072 L 108.358 26.159 L 0.515 26.155 L 0.516 18.835 Z"/>
    <path style="stroke: rgb(0, 0, 0);" d="M 108.606 18.822 C 113.951 12.699 120.249 11.41 127.427 17.775 C 130.368 20.383 135.194 20.11 141.905 16.957 C 149.865 13.216 155.699 13.367 159.406 17.411 C 163.007 21.34 168.901 20.683 173.059 17.785 C 181.1 12.179 181.219 17.867 188.154 21.788 C 190.392 23.054 196.901 19.185 201.843 17.241 C 206.232 15.515 209.776 21.896 211.551 21.968 C 213.256 22.036 214.438 21.211 216.448 19.059 L 216.448 26.146 L 108.605 26.142 L 108.606 18.822 Z"/>
    <path style="stroke: rgb(0, 0, 0);" d="M 216.685 18.812 C 222.03 12.689 228.328 11.4 235.506 17.765 C 238.447 20.373 243.273 20.1 249.984 16.947 C 257.944 13.206 263.778 13.357 267.485 17.401 C 271.086 21.33 276.98 20.673 281.138 17.775 C 289.179 12.169 289.298 17.857 296.233 21.778 C 298.471 23.044 304.98 19.175 309.922 17.231 C 314.311 15.505 317.855 21.886 319.63 21.958 C 321.335 22.026 322.517 21.201 324.527 19.049 L 324.527 26.136 L 216.684 26.132 L 216.685 18.812 Z"/>
    <path style="stroke: rgb(0, 0, 0);" d="M 324.72 18.812 C 330.065 12.689 336.363 11.4 343.541 17.765 C 346.482 20.373 351.308 20.1 358.019 16.947 C 365.979 13.206 371.813 13.357 375.52 17.401 C 379.121 21.33 385.015 20.673 389.173 17.775 C 397.214 12.169 397.333 17.857 404.268 21.778 C 406.506 23.044 413.015 19.175 417.957 17.231 C 422.346 15.505 425.89 21.886 427.665 21.958 C 429.37 22.026 430.552 21.201 432.562 19.049 L 432.562 26.136 L 324.719 26.132 L 324.72 18.812 Z"/>
  </g>
  <g transform="matrix(-1, 0, 0, -1, -0.015492024922, 185.96683957008)" style="transform-origin: 270.57px 19.8614px;">
    <path style="stroke: rgb(0, 0, 0);" d="M 108.606 18.822 C 113.951 12.699 120.249 11.41 127.427 17.775 C 130.368 20.383 135.194 20.11 141.905 16.957 C 149.865 13.216 155.699 13.367 159.406 17.411 C 163.007 21.34 168.901 20.683 173.059 17.785 C 181.1 12.179 181.219 17.867 188.154 21.788 C 190.392 23.054 196.901 19.185 201.843 17.241 C 206.232 15.515 209.776 21.896 211.551 21.968 C 213.256 22.036 214.438 21.211 216.448 19.059 L 216.448 26.146 L 108.605 26.142 L 108.606 18.822 Z"/>
    <path style="stroke: rgb(0, 0, 0);" d="M 216.685 18.812 C 222.03 12.689 228.328 11.4 235.506 17.765 C 238.447 20.373 243.273 20.1 249.984 16.947 C 257.944 13.206 263.778 13.357 267.485 17.401 C 271.086 21.33 276.98 20.673 281.138 17.775 C 289.179 12.169 289.298 17.857 296.233 21.778 C 298.471 23.044 304.98 19.175 309.922 17.231 C 314.311 15.505 317.855 21.886 319.63 21.958 C 321.335 22.026 322.517 21.201 324.527 19.049 L 324.527 26.136 L 216.684 26.132 L 216.685 18.812 Z"/>
    <path style="stroke: rgb(0, 0, 0);" d="M 324.72 18.812 C 330.065 12.689 336.363 11.4 343.541 17.765 C 346.482 20.373 351.308 20.1 358.019 16.947 C 365.979 13.206 371.813 13.357 375.52 17.401 C 379.121 21.33 385.015 20.673 389.173 17.775 C 397.214 12.169 397.333 17.857 404.268 21.778 C 406.506 23.044 413.015 19.175 417.957 17.231 C 422.346 15.505 425.89 21.886 427.665 21.958 C 429.37 22.026 430.552 21.201 432.562 19.049 L 432.562 26.136 L 324.719 26.132 L 324.72 18.812 Z"/>
    <path style="stroke: rgb(0, 0, 0);" d="M 432.784 18.811 C 438.129 12.688 444.427 11.399 451.605 17.764 C 454.546 20.372 459.372 20.099 466.083 16.946 C 474.043 13.205 479.877 13.356 483.584 17.4 C 487.185 21.329 493.079 20.672 497.237 17.774 C 505.278 12.168 505.397 17.856 512.332 21.777 C 514.57 23.043 521.079 19.174 526.021 17.23 C 530.41 15.504 533.954 21.885 535.729 21.957 C 537.434 22.025 538.616 21.2 540.626 19.048 L 540.626 26.135 L 432.783 26.131 L 432.784 18.811 Z"/>
  </g>
  <rect x="0.498" y="26.143" width="432.073" height="172.622" style="stroke: rgb(0, 0, 0);"/>
</svg>