<?xml version="1.0" encoding="UTF-8" standalone="no"?>
<svg
   xmlns:dc="http://purl.org/dc/elements/1.1/"
   xmlns:cc="http://creativecommons.org/ns#"
   xmlns:rdf="http://www.w3.org/1999/02/22-rdf-syntax-ns#"
   xmlns:svg="http://www.w3.org/2000/svg"
   xmlns="http://www.w3.org/2000/svg"
   xmlns:sodipodi="http://sodipodi.sourceforge.net/DTD/sodipodi-0.dtd"
   xmlns:inkscape="http://www.inkscape.org/namespaces/inkscape"
   viewBox="0 0 1440 448"
   version="1.1"
   id="svg845"
   sodipodi:docname="wave3.svg"
   width="1440"
   height="448"
   inkscape:version="1.0.2-2 (e86c870879, 2021-01-15)">
  <metadata
     id="metadata851">
    <rdf:RDF>
      <cc:Work
         rdf:about="">
        <dc:format>image/svg+xml</dc:format>
        <dc:type
           rdf:resource="http://purl.org/dc/dcmitype/StillImage" />
        <dc:title></dc:title>
      </cc:Work>
    </rdf:RDF>
  </metadata>
  <defs
     id="defs849" />
  <sodipodi:namedview
     pagecolor="#ffffff"
     bordercolor="#666666"
     borderopacity="1"
     objecttolerance="10"
     gridtolerance="10"
     guidetolerance="10"
     inkscape:pageopacity="0"
     inkscape:pageshadow="2"
     inkscape:window-width="1346"
     inkscape:window-height="1198"
     id="namedview847"
     showgrid="false"
     fit-margin-top="0"
     fit-margin-left="0"
     fit-margin-right="0"
     fit-margin-bottom="0"
     inkscape:zoom="0.68611111"
     inkscape:cx="762.78775"
     inkscape:cy="319.10151"
     inkscape:window-x="1166"
     inkscape:window-y="77"
     inkscape:window-maximized="0"
     inkscape:current-layer="svg845" />
  <path
     id="path843"
     d="m 1440,0 -48,21.30078 c -48,21.7 -144,63.69844 -240,53.39844 C 1056,63.99922 960,7.81e-4 864,5.30078 768,11.00078 672,84.99922 576,90.69922 480,95.99922 384,32 288,16 192,0 96,32 48,48 L 0,64 c 0,128 0,256 0,384 l 48,-21.30078 c 48,-21.7 144,-63.69844 240,-53.39844 96,10.7 192,74.69844 288,69.39844 96,-5.7 192,-79.69844 288,-85.39844 96,-5.3 192,58.69922 288,74.69922 96,16 192,-16 240,-32 l 48,-16 c 0,-128 0,-256 0,-384 z"
     sodipodi:nodetypes="cccccssccccccsscc" />
</svg>
