<?xml version="1.0" encoding="UTF-8"?>
<svg id="Layer_2" data-name="Layer 2" xmlns="http://www.w3.org/2000/svg" viewBox="0 0 1366.28 652">
  <g id="Layer_1-2" data-name="Layer 1">
    <path d="m1366,410.35l.28-47.91h-.28V0H0v438.53s95.28-34.57,194.13,0c71.28,24.93,67.14,89.22,171.14,112.2,35.96,7.95,70.31,4.34,107.42,1.07,36.12-3.18,69.15-2.97,102.68,11.31,19.7,8.39,37.57,19.38,58.82,25.32,49.81,13.93,91.46-8.57,137.63-18.92,40.11-8.99,84.81-4.38,121.11,10.82,39.86,16.69,63.85,48.42,106.81,62.05,88.31,28.02,181.65-8.92,234.53-62,48-48.18,131-45.22,131-45.22l.68-117.86h.04v-6.94Z"/>
  </g>
</svg>