<?xml version="1.0" encoding="UTF-8"?>
<svg id="Layer_2" data-name="Layer 2" xmlns="http://www.w3.org/2000/svg" viewBox="0 0 130.64 96.74">
  <defs>
    <style>
      .cls-1 {
        fill: #fff;
      }

      .cls-2 {
        fill: none;
      }
    </style>
  </defs>
  <g id="Layer_1-2" data-name="Layer 1">
    <g>
      <g>
        <path class="cls-1" d="m.85,29.26c.02-.17,0-.34-.03-.49,0,.01,0,.02,0,.03.02.14.04.29.02.44,0,.07-.37,3.32-.59,8.09,0,0,0,.01,0,.02.2-4.17.5-7.19.58-7.92.01-.1.02-.16.02-.17Z"/>
        <path class="cls-1" d="m7.17,48.86c0,.07.01.14.01.21.02-1.08.19-2.12.48-3.11-.31.93-.5,1.9-.5,2.9Z"/>
        <path class="cls-1" d="m7.17,48.86c0,.07.01.14.01.21.02-1.08.19-2.12.48-3.11-.31.93-.5,1.9-.5,2.9Z"/>
        <path class="cls-1" d="m7.17,48.86c0,.07.01.14.01.21.02-1.08.19-2.12.48-3.11-.31.93-.5,1.9-.5,2.9Z"/>
        <path class="cls-1" d="m7.17,48.86c0,.07.01.14.01.21.02-1.08.19-2.12.48-3.11-.31.93-.5,1.9-.5,2.9Z"/>
        <path class="cls-1" d="m78.59,31.13c-.77-11.1-3.41-30.85-6.14-30.85-.26,0-.53.18-.79.58.39-.59.4-.86.1-.86-2.3,0-22.55,15.42-27.48,20.65l-4.3,4-4.47-4C30.59,15.42,10.33,0,8.03,0c-.3,0-.29.27.1.86-.28-.42-.56-.62-.84-.62C4.87.24,2.04,16.39.81,28.75c0,.02,0,.03,0,.05,0,0,0-.02,0-.03.03.15.05.32.03.49,0,0,0,.06-.02.17-.08.73-.38,3.75-.57,7.92h-.01c-.27,5.61-.44,11.52.17,17.13.64,5.88,2.38,11.52,6.39,15.95,1.46,1.61,3.13,3.01,4.94,4.2,2.14,1.41,4.47,2.51,6.89,3.36,2.96,1.04,6.05,1.71,9.16,2.11,3.89.51,7.84.6,11.76.45,1.36-.05,2.72-.14,4.08-.25l-.2.07c25,0,32.55-10.83,34.95-23.62.31-1.64.48-3.34.48-5.07v-1.38c.26-6.47.05-13.87-.28-19.17Zm-41.43,18.22v1.32c0,6.6-5.4,12-12,12h-5.99c-6.6,0-12-5.4-12-12v-1.32c0-.09.01-.18.01-.28,0-.07-.01-.14-.01-.21,0-1,.18-1.97.5-2.9,1.47-4.96,6.08-8.61,11.5-8.61h2.74c.09,0,.17,0,.26,0s.17,0,.26,0h2.73c.23,0,.45.01.68.03,4.9.28,9.03,3.53,10.62,7.97.05.12.09.24.13.35.01.04.03.08.04.12.34.97.54,1.98.54,3.03,0,.1-.02.2-.02.3,0,.06,0,.13,0,.19Zm36,1.32c0,6.6-5.4,12-12,12h-5.99c-6.6,0-12-5.4-12-12v-1.32c0-6.6,5.4-12,12-12h5.99c.23,0,.45.02.68.03,6.29.36,11.32,5.6,11.32,11.97v1.32Z"/>
        <path class="cls-1" d="m.83,29.43c-.08.73-.38,3.75-.58,7.92h.01c.19-4.17.49-7.19.57-7.92Z"/>
        <path class="cls-1" d="m.83,29.43c-.08.73-.38,3.75-.58,7.92h.01c.19-4.17.49-7.19.57-7.92Z"/>
        <path class="cls-1" d="m22.17,37.34c-.09,0-.17,0-.26,0h.52c-.09,0-.17,0-.26,0Z"/>
        <path class="cls-1" d="m22.17,37.34c-.09,0-.17,0-.26,0h.52c-.09,0-.17,0-.26,0Z"/>
        <path class="cls-1" d="m22.17,37.34c-.09,0-.17,0-.26,0h.52c-.09,0-.17,0-.26,0Z"/>
        <path class="cls-1" d="m36.62,45.83c.33,1.06.5,2.18.52,3.33,0-.1.02-.2.02-.3,0-1.05-.2-2.06-.54-3.03Z"/>
        <path class="cls-1" d="m36.62,45.83c.33,1.06.5,2.18.52,3.33,0-.1.02-.2.02-.3,0-1.05-.2-2.06-.54-3.03Z"/>
        <path class="cls-1" d="m36.62,45.83c.33,1.06.5,2.18.52,3.33,0-.1.02-.2.02-.3,0-1.05-.2-2.06-.54-3.03Z"/>
      </g>
      <g>
        <polygon class="cls-2" points="108.5 66.74 101.5 66.74 97.25 66.74 91.12 76.74 118.89 76.74 112.75 66.74 108.5 66.74"/>
        <polygon class="cls-1" points="108.5 48.8 113 56.59 113 44.74 108.5 44.74 108.5 48.8"/>
        <polygon class="cls-1" points="101.5 44.74 97 44.74 97 56.59 101.5 48.8 101.5 44.74"/>
        <polygon class="cls-1" points="108.5 44.74 106.16 44.74 108.5 48.8 108.5 44.74"/>
        <polygon class="cls-1" points="101.5 44.74 101.5 48.8 103.85 44.74 101.5 44.74"/>
        <path class="cls-1" d="m113.54,44.74c1.64,0,2.96-1.33,2.96-2.96v-2.08c0-1.63-1.33-2.96-2.96-2.96h-.54v8h.54Z"/>
        <path class="cls-1" d="m96.46,36.74c-1.64,0-2.96,1.33-2.96,2.96v2.08c0,1.63,1.33,2.96,2.96,2.96h.54v-8h-.54Z"/>
        <rect class="cls-1" x="97" y="36.74" width="4.5" height="8"/>
        <rect class="cls-1" x="108.5" y="36.74" width="4.5" height="8"/>
        <polygon class="cls-1" points="103.85 44.74 105 42.74 106.16 44.74 108.5 44.74 108.5 36.74 101.5 36.74 101.5 44.74 103.85 44.74"/>
        <polygon class="cls-1" points="112.75 66.74 118.89 76.74 124.63 76.74 113 56.59 113 66.74 112.75 66.74"/>
        <polygon class="cls-1" points="97.25 66.74 97 66.74 97 56.59 85.37 76.74 91.12 76.74 97.25 66.74"/>
        <polygon class="cls-1" points="97.25 66.74 101.5 59.81 101.5 48.8 97 56.59 97 66.74 97.25 66.74"/>
        <polygon class="cls-1" points="108.5 59.81 112.75 66.74 113 66.74 113 56.59 108.5 48.8 108.5 59.81"/>
        <polygon class="cls-1" points="108.5 59.81 108.5 48.8 106.16 44.74 103.85 44.74 101.5 48.8 101.5 59.81 105 54.1 108.5 59.81"/>
        <polygon class="cls-1" points="105 42.74 103.85 44.74 106.16 44.74 105 42.74"/>
        <path class="cls-1" d="m129.62,85.37l-4.99-8.64h-5.74l4.9,7.98c2.03,3.52-.51,7.93-4.58,7.93h-28.41c-4.07,0-6.61-4.4-4.58-7.93l4.9-7.98h-5.74l-4.99,8.64c-2.92,5.05.73,11.36,6.56,11.36h36.11c5.83,0,9.48-6.31,6.56-11.36Z"/>
        <path class="cls-1" d="m90.79,92.65h28.41c4.07,0,6.61-4.4,4.58-7.93l-4.9-7.98h-27.77l-4.9,7.98c-2.03,3.52.51,7.93,4.58,7.93Zm22.21-7.91c1.38,0,2.5,1.12,2.5,2.5s-1.12,2.5-2.5,2.5-2.5-1.12-2.5-2.5,1.12-2.5,2.5-2.5Zm-9-4c.83,0,1.5.67,1.5,1.5s-.67,1.5-1.5,1.5-1.5-.67-1.5-1.5.67-1.5,1.5-1.5Zm-7,2c1.38,0,2.5,1.12,2.5,2.5s-1.12,2.5-2.5,2.5-2.5-1.12-2.5-2.5,1.12-2.5,2.5-2.5Z"/>
      </g>
      <rect class="cls-1" x="25.5" y="48.74" width="6" height="18" rx="2.64" ry="2.64"/>
      <rect class="cls-1" x="61.5" y="48.74" width="6" height="18" rx="2.64" ry="2.64"/>
    </g>
  </g>
</svg>