<?xml version="1.0" encoding="UTF-8"?>
<svg id="Layer_2" data-name="Layer 2" xmlns="http://www.w3.org/2000/svg" viewBox="0 0 78.98 124.78">
  <defs>
    <style>
      .cls-1 {
        fill: #fff;
      }
    </style>
  </defs>
  <g id="Layer_1-2" data-name="Layer 1">
    <g>
      <path class="cls-1" d="m56.61,32.67c.88,0,1.59-.71,1.59-1.59s-.71-1.59-1.59-1.59-1.59.71-1.59,1.59.71,1.59,1.59,1.59Z"/>
      <path class="cls-1" d="m.85,73.43c.02-.17,0-.34-.03-.49,0,.01,0,.02,0,.03.02.14.04.29.02.44,0,.07-.37,3.32-.59,8.09,0,0,0,.01,0,.02.2-4.17.5-7.19.58-7.92.01-.1.02-.16.02-.17Z"/>
      <path class="cls-1" d="m7.17,93.03c0,.07.01.14.01.21.02-1.08.19-2.12.48-3.11-.31.93-.5,1.9-.5,2.9Z"/>
      <path class="cls-1" d="m7.17,93.03c0,.07.01.14.01.21.02-1.08.19-2.12.48-3.11-.31.93-.5,1.9-.5,2.9Z"/>
      <path class="cls-1" d="m7.17,93.03c0,.07.01.14.01.21.02-1.08.19-2.12.48-3.11-.31.93-.5,1.9-.5,2.9Z"/>
      <path class="cls-1" d="m7.17,93.03c0,.07.01.14.01.21.02-1.08.19-2.12.48-3.11-.31.93-.5,1.9-.5,2.9Z"/>
      <path class="cls-1" d="m78.59,75.3c-.77-11.1-3.41-30.85-6.14-30.85-.26,0-.53.18-.79.58.39-.59.4-.86.1-.86-2.3,0-22.55,15.42-27.48,20.65l-4.3,4-4.47-4c-4.92-5.23-25.18-20.65-27.48-20.65-.3,0-.29.27.1.86-.28-.42-.56-.62-.84-.62-2.42,0-5.25,16.15-6.48,28.51,0,.02,0,.03,0,.05,0,0,0-.02,0-.03.03.15.05.32.03.49,0,0,0,.06-.02.17-.08.73-.38,3.75-.57,7.92h-.01c-.27,5.61-.44,11.52.17,17.13.64,5.88,2.38,11.52,6.39,15.95,1.46,1.61,3.13,3.01,4.94,4.2,2.14,1.41,4.47,2.51,6.89,3.36,2.96,1.04,6.05,1.71,9.16,2.11,3.89.51,7.84.6,11.76.45,1.36-.05,2.72-.14,4.08-.25l-.2.07c25,0,32.55-10.83,34.95-23.62.31-1.64.48-3.34.48-5.07v-1.38c.26-6.47.05-13.87-.28-19.17Zm-41.43,18.22v1.32c0,6.6-5.4,12-12,12h-5.99c-6.6,0-12-5.4-12-12v-1.32c0-.09.01-.18.01-.28,0-.07-.01-.14-.01-.21,0-1,.18-1.97.5-2.9,1.47-4.96,6.08-8.61,11.5-8.61h2.74c.09,0,.17,0,.26,0s.17,0,.26,0h2.73c.23,0,.45.01.68.03,4.9.28,9.03,3.53,10.62,7.97.05.12.09.24.13.35.01.04.03.08.04.12.34.97.54,1.98.54,3.03,0,.1-.02.2-.02.3,0,.06,0,.13,0,.19Zm36,1.32c0,6.6-5.4,12-12,12h-5.99c-6.6,0-12-5.4-12-12v-1.32c0-6.6,5.4-12,12-12h5.99c.23,0,.45.02.68.03,6.29.36,11.32,5.6,11.32,11.97v1.32Z"/>
      <path class="cls-1" d="m.83,73.6c-.08.73-.38,3.75-.58,7.92h.01c.19-4.17.49-7.19.57-7.92Z"/>
      <path class="cls-1" d="m.83,73.6c-.08.73-.38,3.75-.58,7.92h.01c.19-4.17.49-7.19.57-7.92Z"/>
      <path class="cls-1" d="m22.17,81.51c-.09,0-.17,0-.26,0h.52c-.09,0-.17,0-.26,0Z"/>
      <path class="cls-1" d="m22.17,81.51c-.09,0-.17,0-.26,0h.52c-.09,0-.17,0-.26,0Z"/>
      <path class="cls-1" d="m22.17,81.51c-.09,0-.17,0-.26,0h.52c-.09,0-.17,0-.26,0Z"/>
      <path class="cls-1" d="m36.62,90c.33,1.06.5,2.18.52,3.33,0-.1.02-.2.02-.3,0-1.05-.2-2.06-.54-3.03Z"/>
      <path class="cls-1" d="m36.62,90c.33,1.06.5,2.18.52,3.33,0-.1.02-.2.02-.3,0-1.05-.2-2.06-.54-3.03Z"/>
      <path class="cls-1" d="m36.62,90c.33,1.06.5,2.18.52,3.33,0-.1.02-.2.02-.3,0-1.05-.2-2.06-.54-3.03Z"/>
      <path class="cls-1" d="m24.45,91.31v5.52c.8-.26,1.39-1,1.39-1.89v-5.52c-.8.26-1.39,1.01-1.39,1.89Z"/>
      <path class="cls-1" d="m19.45,94.94c0,1.09.9,1.99,1.99,1.99h2.41c.21,0,.41-.04.6-.1v-1.52c0-.88.59-5.63,1.39-5.89v-1.91c0-.97-.73-1.79-1.7-1.89-.56-.06-1.13-.09-1.71-.1h-.52c-.2,0-.39,0-.59.02-1.05.05-1.88.9-1.88,1.95v7.46Z"/>
      <path class="cls-1" d="m60.45,91.31v5.52c.8-.26,1.39-1,1.39-1.89v-5.52c-.8.26-1.39,1.01-1.39,1.89Z"/>
      <path class="cls-1" d="m57.43,96.93h2.41c.21,0,.41-.04.6-.1v-5.52c0-.88.59-1.63,1.39-1.89v-2.35c0-.86-.7-1.55-1.55-1.55h-2.98c-1.02,0-1.85.83-1.85,1.85v7.57c0,1.09.9,1.99,1.99,1.99Z"/>
      <path class="cls-1" d="m52.38,36.73c1.87-.75,3.9-.46,5.46.59,1.71-1.22,3.24-2.71,4.53-4.44-1.03-1.57-1.29-3.62-.5-5.48.79-1.86,2.44-3.09,4.29-3.44.35-2.13.36-4.26.05-6.34-.38-.08-.74-.19-1.09-.34-1.37-.58-2.52-1.69-3.12-3.18-.76-1.87-.46-3.9.59-5.46-1.22-1.71-2.71-3.24-4.44-4.53-1.57,1.03-3.62,1.29-5.47.5-1.86-.79-3.09-2.44-3.44-4.29h-4.9v3.18c.55-.17,1.16-.06,1.6.37.62.62.62,1.63,0,2.25-.43.43-1.05.54-1.6.37v2.4c5.85.61,10.43,5.57,10.43,11.58s-4.58,10.97-10.43,11.58v2.85c.2-.09.41-.14.64-.14.88,0,1.59.71,1.59,1.59s-.71,1.59-1.59,1.59c-.23,0-.44-.05-.64-.14v3.12h4.55c.38-1.84,1.65-3.46,3.52-4.22Zm8.46-17.83c.88,0,1.59.71,1.59,1.59s-.71,1.59-1.59,1.59-1.59-.71-1.59-1.59.71-1.59,1.59-1.59Zm-5.19-10.52c.62-.62,1.63-.62,2.25,0,.62.62.62,1.63,0,2.25-.62.62-1.63.62-2.25,0-.62-.62-.62-1.63,0-2.25Zm.96,21.11c.88,0,1.59.71,1.59,1.59s-.71,1.59-1.59,1.59-1.59-.71-1.59-1.59.71-1.59,1.59-1.59Z"/>
      <path class="cls-1" d="m47.61,20.49c0-1.9-1.44-3.45-3.29-3.66v7.33c1.84-.21,3.29-1.76,3.29-3.66Z"/>
      <path class="cls-1" d="m53.7,20.49c0-5.43-4.11-9.91-9.37-10.51v3.65c3.6.22,6.46,3.21,6.46,6.86s-2.86,6.64-6.46,6.86v3.65c5.27-.6,9.37-5.09,9.37-10.51Z"/>
      <path class="cls-1" d="m19.94,38h18.85v-7.04l-4.95-.17c-6.52-.23-8.83-5.01-9.31-8.51-6.28.79-6.74,6.83-6.75,7.11l-2.99-.19c.13-2.03,1.1-5.13,3.55-7.34-.88-.77-1.5-1.72-1.84-2.82-1.07-3.48,1.17-7.17,1.27-7.32l1.28.79,1.28.78c-.46.75-1.51,3.08-.96,4.88.25.81.82,1.45,1.7,1.96.97-.41,2.06-.71,3.31-.85l-.16-4.99,3-.1.16,5.01h.08l-.03,1.53c0,.53.06,4.23,2.94,6.05,1.78-1.85,2.28-6.25,2.3-7.8l3,.05c-.01.67-.18,5.49-2.27,8.71.18.02.35.04.54.05l4.85.17v-12.25c-3.51-.15-6.15-1.13-7.85-2.92-2.04-2.16-1.92-4.62-1.89-4.89l1.5.12,1.5.1c0,.06-.06,1.45,1.12,2.66,1.12,1.15,3.06,1.81,5.63,1.94V4.21c0-2.33-1.89-4.21-4.21-4.21h0C21.16,0,10.29,10.87,10.29,24.29v4.06c0,5.33,4.32,9.65,9.65,9.65Z"/>
    </g>
  </g>
</svg>