<?xml version="1.0" encoding="utf-8"?>
<svg viewBox="0 0 500 63" xmlns="http://www.w3.org/2000/svg">
  <path style="stroke: rgb(0, 0, 0);" d="M 0.503 28.61 C 25.236 0.279 54.377 -5.687 87.589 23.766 C 101.197 35.834 123.527 34.571 154.579 19.979 C 191.414 2.669 218.408 3.37 235.56 22.083 C 252.223 40.261 279.495 37.221 298.731 23.812 C 335.941 -2.128 336.489 24.192 368.581 42.335 C 378.937 48.19 409.053 30.292 431.922 21.296 C 452.226 13.309 468.627 42.834 476.838 43.165 C 484.729 43.483 490.197 39.664 499.497 29.705 L 499.5 62.501 L 0.498 62.482 L 0.503 28.61 Z" transform="matrix(1, 0, 0, 0.9999999999999999, -1.7763568394002505e-15, 3.552713678800501e-15)"/>
</svg>