<?xml version="1.0" encoding="utf-8"?>
<svg viewBox="0 0 500 63" xmlns="http://www.w3.org/2000/svg">
  <path style="stroke: rgb(0, 0, 0);" d="M 0.503 34.891 C 25.236 63.221 54.377 69.187 87.589 39.734 C 101.197 27.666 123.527 28.929 154.579 43.521 C 191.414 60.831 218.408 60.13 235.56 41.417 C 252.223 23.239 279.495 26.279 298.731 39.688 C 335.941 65.628 336.489 39.308 368.581 21.165 C 378.937 15.31 409.053 33.208 431.922 42.204 C 452.226 50.191 468.627 20.666 476.838 20.335 C 484.729 20.017 490.197 23.836 499.497 33.795 L 499.5 0.999 L 0.498 1.018 L 0.503 34.891 Z" transform="scale(1, -1) translate(0, -63)"/>
</svg>
