<?xml version="1.0" encoding="UTF-8"?>
<svg id="Layer_2" data-name="Layer 2" xmlns="http://www.w3.org/2000/svg" viewBox="0 0 90.61 80.62">
  <defs>
    <style>
      .cls-1 {
        fill: #fff;
      }

      .cls-2 {
        fill: none;
      }
    </style>
  </defs>
  <g id="Layer_1-2" data-name="Layer 1">
    <g>
      <path class="cls-2" d="m83.13,41.02l.71,4.03c0-1.42-.26-2.77-.71-4.03Z"/>
      <path class="cls-1" d="m6.57,29.26c.02-.17,0-.34-.03-.49,0,.01,0,.02,0,.03.02.14.04.29.02.44,0,.07-.37,3.32-.59,8.09,0,0,0,.01,0,.02.2-4.17.5-7.19.58-7.92.01-.1.02-.16.02-.17Z"/>
      <path class="cls-1" d="m6.14,54.48c.12,1.15.31,2.28.52,3.4l-.92-10.15c.04,2.27.16,4.54.4,6.75Z"/>
      <path class="cls-1" d="m84.11,56.75l-3.06,9.28c1.49-2.87,2.45-6.01,3.06-9.28Z"/>
      <path class="cls-1" d="m29.69,25.16c1.57-2.27,4.19-3.76,7.15-3.76h5.21l-.83-.75C36.31,15.42,16.05,0,13.75,0c-.3,0-.29.27.1.86-.28-.42-.56-.62-.84-.62-2.42,0-5.25,16.15-6.48,28.51,0,.02,0,.03,0,.05,0,0,0-.02,0-.03.03.15.05.32.03.49,0,0,0,.06-.02.17-.08.73-.38,3.75-.57,7.92h-.01c-.16,3.31-.28,6.72-.23,10.11l5.84-21.56,18.11-.74Z"/>
      <path class="cls-1" d="m78.17.28c-.26,0-.53.18-.79.58.39-.59.4-.86.1-.86-2.3,0-22.55,15.42-27.48,20.65l-.8.75h5.27c2.38,0,4.53.96,6.1,2.5l.61-.02,14.34,6.41h3.61v1.61l2.61,1.17,1.41,7.96c.45,1.26.71,2.61.71,4.03l.26,11.7c.31-1.64.48-3.34.48-5.07v-1.38c.26-6.47.05-13.87-.28-19.17-.77-11.1-3.41-30.85-6.14-30.85Z"/>
      <path class="cls-1" d="m79.11,67.28h-.17l-6.83,4-55.27-.52-3.22-3.48h-.51v-.55l-5.88-6.36c1.01,3.69,2.65,7.14,5.29,10.05,1.46,1.61,3.13,3.01,4.94,4.2,2.14,1.41,4.47,2.51,6.89,3.36,2.96,1.04,6.05,1.71,9.16,2.11,3.89.51,7.84.6,11.76.45,1.36-.05,2.72-.14,4.08-.25l-.2.07c18.58,0,27.52-5.99,31.88-14.31l-1.91,1.12v.1Z"/>
      <path class="cls-1" d="m6.55,29.43c-.08.73-.38,3.75-.58,7.92h.01c.19-4.17.49-7.19.57-7.92Z"/>
      <path class="cls-1" d="m0,47.57v7.04c0,2.39,1.94,4.33,4.33,4.33h.29v-15.7h-.29c-2.39,0-4.33,1.94-4.33,4.33Z"/>
      <path class="cls-1" d="m86.29,43.24h-.29v15.7h.29c2.39,0,4.33-1.94,4.33-4.33v-7.04c0-2.39-1.94-4.33-4.33-4.33Z"/>
      <polygon class="cls-1" points="79.11 30.28 75.5 30.28 79.11 31.9 79.11 30.28"/>
      <polygon class="cls-1" points="13.11 67.28 13.62 67.28 13.11 66.73 13.11 67.28"/>
      <polygon class="cls-1" points="79.11 67.28 79.11 67.18 78.94 67.28 79.11 67.28"/>
      <path class="cls-1" d="m81.03,66.05v-.02s0,.02,0,.03h0Z"/>
      <path class="cls-1" d="m11.58,54.63v-8.95c0-1.99.57-3.85,1.54-5.43v-5.68c-3.73,2.01-6.27,5.95-6.27,10.48v10.2c0,4.53,2.54,8.47,6.27,10.48v-5.68c-.97-1.58-1.54-3.44-1.54-5.43Z"/>
      <path class="cls-1" d="m5.72,47.52l.02.21c0-.09,0-.18,0-.26l-.02.06Z"/>
      <path class="cls-1" d="m6.85,59.96l.39.42c-.22-.82-.41-1.66-.58-2.5l.19,2.08Z"/>
      <path class="cls-1" d="m79.11,35.57v29.17c2.87-2.17,4.73-5.61,4.73-9.48v-10.2l-.71-4.03c-.79-2.19-2.2-4.07-4.02-5.45Z"/>
      <path class="cls-1" d="m83.13,41.02l-1.41-7.96-2.61-1.17v3.67c1.82,1.38,3.23,3.26,4.02,5.45Z"/>
      <path class="cls-1" d="m13.11,65.73c-3.73-2.01-6.27-5.95-6.27-10.48v-10.2c0-4.53,2.54-8.47,6.27-10.48v-4.29h15.04v-.19c0-1.83.57-3.53,1.54-4.93l-18.11.74-5.84,21.56c0,.09,0,.18,0,.26l.92,10.15c.16.84.35,1.68.58,2.5l5.88,6.36v-1Z"/>
      <path class="cls-1" d="m83.85,55.25c0,3.88-1.86,7.31-4.73,9.48v2.44l1.91-1.12s.01-.02.02-.03l3.06-9.28-.26-11.7v10.2Z"/>
      <path class="cls-1" d="m63.15,30.09v.19h12.35l-14.34-6.41-.61.02c1.6,1.58,2.59,3.77,2.59,6.19Z"/>
      <polygon class="cls-1" points="16.84 70.76 72.11 71.28 78.94 67.28 13.62 67.28 16.84 70.76"/>
      <path class="cls-1" d="m33.35,67.15c2.67,0,5.11-1.49,6.33-3.87l2.82-5.48c.52-1.01,1.57-1.65,2.71-1.65h1.67c1.03,0,1.97.52,2.53,1.37l-.36-.68c-.46-.87-1.37-1.42-2.36-1.42h-1.46c-1,0-1.92.56-2.37,1.45l-2.47,4.81c-1.07,2.08-3.21,3.39-5.55,3.39h-12.81c-3.77,0-7.07-2.01-8.9-5.01v5.68c1.68.9,3.59,1.42,5.63,1.42h14.6Z"/>
      <path class="cls-1" d="m68.68,65.06h-11.53c-2.21,0-4.24-1.18-5.36-3.07l.72,1.37c1.23,2.33,3.66,3.79,6.3,3.79h13.14c2.69,0,5.17-.91,7.17-2.42v-10.11c0,5.76-4.67,10.44-10.44,10.44Z"/>
      <path class="cls-1" d="m22.01,35.24h46.66c5.76,0,10.44,4.67,10.44,10.44v-10.11c-1.99-1.51-4.47-2.42-7.17-2.42H18.74c-2.04,0-3.95.51-5.63,1.42v5.68c1.83-3,5.13-5.01,8.9-5.01Z"/>
      <path class="cls-1" d="m31.56,41.25v5.52c0,.89-.59,1.63-1.39,1.89-.19.06-.39.1-.6.1h-2.41c-1.09,0-1.99-.89-1.99-1.99v-8.3c-4.64.25-8.33,4.08-8.33,8.79v5.8c0,4.87,3.94,8.81,8.81,8.81h5.55c.13,0,.27,0,.41-.01,1.13-.07,2.19-.41,3.15-.93.24-.05.47-.11.71-.18.92-.96,1.65-2.12,2.1-3.42l.78-2.29c.69-2.01,2.44-3.44,4.5-3.75.01-.2.03-.41.03-.61v-1.32c0-.06,0-.13,0-.19-.02-1.16-.2-2.27-.52-3.33-.01-.04-.03-.08-.04-.12-.04-.12-.08-.24-.13-.35-1.09-3.06-3.4-5.56-6.33-6.91h-4.28v2.81Z"/>
      <path class="cls-1" d="m48.89,49.35v1.32c0,.2.02.4.03.6,2.09.27,3.88,1.69,4.6,3.71l.82,2.32c.48,1.35,1.25,2.55,2.23,3.53.18.04.36.09.55.12.92.49,1.94.81,3.02.89.15.01.3.02.44.02h4.47c3.97,0,7.97-1.98,9.07-5.58.82-1.5.64-3.85.64-5.67v-1.16c0-1.97.31-4.59-.64-6.17-.98-2.52-3.95-3.68-6.56-4.46v7.95c0,.89-.59,1.63-1.39,1.89-.19.06-.39.1-.6.1h-2.41c-1.09,0-1.99-.89-1.99-1.99v-8.33h-5.24c-4.14,1.9-7.04,6.08-7.04,10.91Z"/>
      <path class="cls-1" d="m48.89,50.67v-1.32c0-4.83,2.9-9.01,7.04-10.91h-20.09c2.93,1.35,5.24,3.84,6.33,6.91.05.12.09.24.13.35.01.04.03.08.04.12.34.97.54,1.98.54,3.03,0,.1-.02.2-.02.3,0,.06,0,.13,0,.19v1.32c0,.21-.02.41-.03.61.1-.01.2-.01.3-.02,0-.04,0-.08.01-.12.24-.04.49-.06.74-.06h3.94c.22,0,.43.02.64.05,0,.04,0,.07,0,.1.14.01.29.02.43.03-.01-.2-.03-.4-.03-.6Z"/>
      <path class="cls-1" d="m58.8,67.15c-2.64,0-5.06-1.46-6.3-3.79l-.72-1.37c-.05-.09-.11-.17-.16-.25l-2.23-4.21c-.56-.85-1.51-1.37-2.53-1.37h-1.67c-1.14,0-2.18.64-2.71,1.65l-2.82,5.48c-1.22,2.37-3.66,3.87-6.33,3.87h-14.6c-2.04,0-3.95-.51-5.63-1.42v1l.51.55h65.32l.17-.1v-2.44c-1.99,1.51-4.47,2.42-7.17,2.42h-13.14Z"/>
      <path class="cls-1" d="m63.15,30.4H28.15v-.12h-15.04v4.29c1.68-.9,3.59-1.42,5.63-1.42h53.2c2.69,0,5.17.91,7.17,2.42v-3.67l-3.61-1.61h-12.35v.12Z"/>
      <path class="cls-1" d="m42.89,48.86c0-1.05-.2-2.06-.54-3.03.33,1.06.5,2.18.52,3.33,0-.1.02-.2.02-.3Z"/>
      <path class="cls-1" d="m30.17,43.14v5.52c.8-.26,1.39-1,1.39-1.89v-5.52c-.8.26-1.39,1.01-1.39,1.89Z"/>
      <path class="cls-1" d="m27.16,48.76h2.41c.21,0,.41-.04.6-.1v-5.52c0-.88.59-1.63,1.39-1.89v-2.81h-5.91c-.16,0-.32.02-.48.02v8.3c0,1.1.9,1.99,1.99,1.99Z"/>
      <path class="cls-1" d="m66.17,43.14v5.52c.8-.26,1.39-1,1.39-1.89v-5.52c-.8.26-1.39,1.01-1.39,1.89Z"/>
      <path class="cls-1" d="m61.17,38.44v8.33c0,1.1.9,1.99,1.99,1.99h2.41c.21,0,.41-.04.6-.1v-5.52c0-.88.59-1.63,1.39-1.89v-2.43c-.8-.24-1.64-.38-2.51-.38h-3.88Z"/>
      <path class="cls-1" d="m47.84,51.09h-3.94c-.25,0-.5.02-.74.06,0,.04,0,.08-.01.12.18-.02.37-.04.55-.04h4.49c.1,0,.2.02.3.02,0-.04,0-.07,0-.1-.21-.03-.42-.05-.64-.05Z"/>
      <path class="cls-1" d="m49.4,57.52l2.23,4.21c.05.09.11.17.16.25l-2.23-4.22c-.05-.09-.1-.17-.16-.25Z"/>
      <rect class="cls-1" x="28.15" y="30.28" width="35" height=".12"/>
    </g>
  </g>
</svg>