<?xml version="1.0" encoding="utf-8"?>
<!-- Generator: Adobe Illustrator 25.4.1, SVG Export Plug-In . SVG Version: 6.00 Build 0)  -->
<svg version="1.1" id="Layer_1" xmlns="http://www.w3.org/2000/svg" xmlns:xlink="http://www.w3.org/1999/xlink" x="0px" y="0px"
	 viewBox="0 0 217.18 164.74" style="enable-background:new 0 0 217.18 164.74;" xml:space="preserve">
<style type="text/css">
	.st0{fill:#0B202F;}
	.st1{fill:#FFFFFF;}
	.st2{fill:#241F47;}
	.st3{fill:url(#SVGID_00000095309973920088770180000008201219738096580276_);}
	.st4{fill:#E7227B;}
	.st5{fill:#573F92;}
	.st6{fill:url(#SVGID_00000009574693017213663280000011816819282170304692_);}
	.st7{fill:url(#SVGID_00000107584944287813650430000010509827035700345232_);}
	.st8{fill:url(#SVGID_00000117668887829866716300000013814619376564371618_);}
	.st9{fill:url(#SVGID_00000005979333392243854090000010026885288100280738_);}
	.st10{fill:url(#SVGID_00000159452035997164752750000015724648774112361648_);}
	.st11{fill:url(#SVGID_00000013152665364978563750000006433559185265059774_);}
	
		.st12{fill:none;stroke:url(#SVGID_00000141420911378841507520000015735511160286028162_);stroke-width:42;stroke-linecap:round;stroke-miterlimit:10;}
	
		.st13{fill:none;stroke:url(#SVGID_00000092423752038374884370000010409164206869209472_);stroke-width:42;stroke-linecap:round;stroke-miterlimit:10;}
	
		.st14{fill:none;stroke:url(#SVGID_00000042737540498637183730000009446102587370135996_);stroke-width:42;stroke-linecap:round;stroke-miterlimit:10;}
	.st15{fill:none;stroke:#E7227B;stroke-width:4;stroke-linecap:round;stroke-miterlimit:10;}
	.st16{fill:url(#SVGID_00000003803165683460425980000004480688539644948398_);}
	.st17{fill:url(#SVGID_00000168103982002888991670000008654321586620603793_);}
	.st18{fill:#09212F;}
	.st19{fill:url(#SVGID_00000070831365638269011930000005421890732189400465_);}
	.st20{fill:url(#SVGID_00000010989857859684660410000005520580072151678383_);}
	.st21{fill:url(#SVGID_00000178891490151742634200000012008735208751902859_);}
	.st22{fill:url(#SVGID_00000138532665668353863900000014771361809832524447_);}
	.st23{fill:url(#SVGID_00000111183466961908518720000015593679891221478299_);}
	.st24{fill:url(#SVGID_00000036939961547531359480000015096974841321060776_);}
	.st25{fill:url(#SVGID_00000035528016511636410610000002981200481376046511_);}
	.st26{fill:url(#SVGID_00000134221019342125257500000015403692780963729300_);}
	.st27{fill:url(#SVGID_00000176741411525010730980000004430823359888762548_);}
	.st28{fill:url(#SVGID_00000160904297931797307470000010501574544938484608_);}
	.st29{fill:url(#SVGID_00000093871353114216572310000015229495758783515312_);}
	.st30{fill:url(#SVGID_00000004543627912885186450000001514797448480214406_);}
	.st31{fill:url(#SVGID_00000152953131363312996340000009357865461719655840_);}
	.st32{fill:url(#SVGID_00000126289909643609884730000002048680456774790313_);}
	.st33{fill:url(#SVGID_00000064321257657497796380000007689937008646922154_);}
	.st34{fill:none;}
	.st35{fill:#00B2DE;}
	.st36{fill:#5D2C87;}
	.st37{fill:#8F155D;}
	.st38{fill:url(#SVGID_00000080200142883979789200000014540084042109023405_);}
	.st39{fill:url(#SVGID_00000110430053213735952450000006596276458689984899_);}
	.st40{fill:url(#SVGID_00000005952311045556742880000012915452781951574174_);}
	.st41{fill:url(#SVGID_00000103254621860883505380000001801905380193127582_);}
	.st42{fill:url(#SVGID_00000165225911058620034050000006204011611637541531_);}
	.st43{fill:url(#SVGID_00000156562137357883677710000003986541496637938823_);}
	.st44{fill:url(#SVGID_00000093891118078759564520000015406409136791725743_);}
	.st45{fill:url(#SVGID_00000165234252339418509430000004907153532716305289_);}
	.st46{fill:url(#SVGID_00000126318144275123131450000010582231570724243370_);}
	.st47{fill:url(#SVGID_00000014624252097923069970000005176202237930478750_);}
	.st48{fill:url(#SVGID_00000176766203603447915630000011452589341918422201_);}
	.st49{fill:url(#SVGID_00000057138979434071388100000015493398246217494446_);}
	.st50{fill:url(#SVGID_00000165218550556517878280000005588338626802415256_);}
	.st51{fill:url(#SVGID_00000065773067579532332320000005229425143277781905_);}
	.st52{fill:url(#SVGID_00000136379667343154016500000007354754129966569388_);}
	.st53{fill:url(#SVGID_00000159436718717152581150000006474077992811399302_);}
	.st54{fill:url(#SVGID_00000098931805864790340830000000803835605827934887_);}
	.st55{fill:url(#SVGID_00000100383174940429629320000005623593112822436261_);}
	.st56{fill:url(#SVGID_00000163795832675484531000000009488998344632133551_);}
	.st57{fill:url(#SVGID_00000133530647683055984460000013162100560169113526_);}
	.st58{fill:url(#SVGID_00000024688820003970276930000004184565429327269275_);}
	.st59{fill:url(#SVGID_00000026159283317782060940000010338024982254913665_);}
	.st60{fill:url(#SVGID_00000016769491993750726580000001771393675833338539_);}
	.st61{fill:url(#SVGID_00000176012605946831130350000009270790991072449924_);}
	.st62{fill:url(#SVGID_00000051360394215478148430000001252418349783047331_);}
	.st63{fill:url(#SVGID_00000129913174379875115330000017569411481511784881_);}
	.st64{fill:url(#SVGID_00000133499191938263517160000007550537572533720451_);}
	.st65{fill:url(#SVGID_00000036958292579093266960000009537087124693384113_);}
	.st66{fill:url(#SVGID_00000081606249444314294720000003663750251294653631_);}
	.st67{fill:url(#SVGID_00000150819225090244470550000008117728371243212697_);}
	.st68{fill:url(#SVGID_00000113341457602335504390000010719900211195389364_);}
	.st69{fill:url(#SVGID_00000098197180651025124010000009770003436686624428_);}
	.st70{fill:url(#SVGID_00000172411356656634426300000013295067776492381585_);}
	.st71{fill:url(#SVGID_00000166653532740757864780000015326446158269380496_);}
	.st72{fill:url(#SVGID_00000182508230553566490920000017388114925353677997_);}
	.st73{fill:url(#SVGID_00000067196687251766029640000000585701276763667384_);}
	.st74{fill:url(#SVGID_00000009586461051950631160000007570587812302060469_);}
	.st75{fill:url(#SVGID_00000114761222376822222190000008902944555293618050_);}
	.st76{fill:url(#SVGID_00000007408006218526766650000004617236770970314682_);}
	.st77{fill:url(#SVGID_00000052070213403239989530000003846849407103793557_);}
	.st78{fill:url(#SVGID_00000094600673386933445310000012131158815918971029_);}
	.st79{fill:url(#SVGID_00000084496702196600289940000009576778012324811661_);}
	.st80{fill:url(#SVGID_00000099624863556281608840000000744414932911408562_);}
	.st81{fill:url(#SVGID_00000165201200761865481460000014845137699296126387_);}
	.st82{fill:url(#SVGID_00000007407761839565294970000016790985857199219899_);}
	.st83{fill:url(#SVGID_00000155130300349548234120000009371403823785296293_);}
	.st84{fill:url(#SVGID_00000169529592202657650770000016505593333993705652_);}
	.st85{fill:url(#SVGID_00000129902941193790112890000005518064068033618056_);}
	.st86{fill:url(#SVGID_00000040554020777461156730000011989707285500447159_);}
	.st87{fill:url(#SVGID_00000098184740493563072900000017317314093799245995_);}
	.st88{fill:url(#SVGID_00000039842010282110592500000015892899147385157052_);}
	.st89{fill:url(#SVGID_00000155864889129972310920000005929441696471119522_);}
	.st90{fill:url(#SVGID_00000107562221735295300460000005772063475832318362_);}
	.st91{fill:url(#SVGID_00000129200502646777670900000005990062658452176290_);}
	.st92{fill:url(#SVGID_00000028286920931044759030000017176381540281151390_);}
	.st93{fill:url(#SVGID_00000025440958188107801660000015255427852774175677_);}
	.st94{fill:url(#SVGID_00000103252554738818563690000015330034428323275444_);}
	.st95{fill:url(#SVGID_00000163071571708126785400000017667189154839536030_);}
	.st96{fill:url(#SVGID_00000160188799532796105070000006817742608862475448_);}
	.st97{fill:url(#SVGID_00000067921112255055254180000012364514514415942550_);}
	.st98{fill:url(#SVGID_00000040537162698171484560000010029536359105221566_);}
	.st99{fill:url(#SVGID_00000025425419850326221860000017598299980180928403_);}
	.st100{fill:url(#SVGID_00000072968450308934987910000004605087086326263957_);}
	.st101{fill:url(#SVGID_00000173140839458543029240000018376771469077274775_);}
	.st102{fill:url(#SVGID_00000163765137989835151050000004536114946667528345_);}
	.st103{fill:url(#SVGID_00000054246961637759200350000018096841547750822027_);}
	.st104{fill:url(#SVGID_00000109025918911345576390000010417615489965724562_);}
	.st105{fill:url(#SVGID_00000095315731332351348420000010955313956005528219_);}
	.st106{fill:url(#SVGID_00000053532059220728372700000008341020424155635609_);}
	.st107{fill:url(#SVGID_00000078733736040093216380000011337046703014273667_);}
	.st108{fill:url(#SVGID_00000034077158204747548240000012342330478992843908_);}
	.st109{fill:url(#SVGID_00000104685511485845666980000003491579337631449490_);}
	.st110{fill:url(#SVGID_00000043442480271590817060000005889111895184273799_);}
	.st111{fill:url(#SVGID_00000053525852490954521580000005989880512960415150_);}
	.st112{fill:url(#SVGID_00000055684498841687086760000004375546834625601457_);}
	.st113{fill:url(#SVGID_00000178194328822569832670000008403986426374580610_);}
	.st114{fill:url(#SVGID_00000001635518310455681860000017918341748219949980_);}
	.st115{fill:url(#SVGID_00000151537947169619818120000010972674537887056020_);}
	.st116{fill:url(#SVGID_00000096043321271276667750000012081503402838213054_);}
	.st117{fill:url(#SVGID_00000047742994967432028160000005251703169953766292_);}
	.st118{fill:url(#SVGID_00000054249389218118048650000007490701766279328941_);}
	.st119{fill:url(#SVGID_00000058549226259302886720000016849849335826415759_);}
	.st120{fill:url(#SVGID_00000026158290704152025280000016247290598358862256_);}
	.st121{fill:url(#SVGID_00000012473399004807857540000015750915433294351019_);}
	.st122{fill:url(#SVGID_00000153701914026152999660000007284968609224097718_);}
	.st123{fill:url(#SVGID_00000147910426879566718840000004489110513974338184_);}
	.st124{fill:url(#SVGID_00000067215459699639911360000000676609482881291663_);}
	.st125{fill:url(#SVGID_00000146457520332822408880000005319418451472011914_);}
	.st126{fill:url(#SVGID_00000002351855171623374110000000712419730216884913_);}
	.st127{fill:url(#SVGID_00000079483224348663687160000000718885571088219022_);}
	.st128{fill:url(#SVGID_00000106122603374510738520000013184516708475665834_);}
	.st129{fill:url(#SVGID_00000056394237156753580080000006295992067409375113_);}
	.st130{fill:url(#SVGID_00000135648619327498202390000016812937055578244520_);}
	.st131{fill:url(#SVGID_00000115473004523460466620000006228861000146958467_);}
	.st132{fill:url(#SVGID_00000096033847460826430320000009853686981551288255_);}
	.st133{fill:url(#SVGID_00000090295209783954257430000014506254667773446583_);}
	.st134{fill:url(#SVGID_00000078748677156659749520000013944792521978807982_);}
	.st135{fill:url(#SVGID_00000144303449069078190040000000953878156014354594_);}
	.st136{fill:url(#SVGID_00000137822326121708032980000014388074357484859068_);}
	.st137{fill:url(#SVGID_00000117669874498347557390000010086219795025048964_);}
	.st138{fill:url(#SVGID_00000169529503497249595810000017968976419917207940_);}
	.st139{fill:url(#SVGID_00000175302214732714721150000007459628857753059241_);}
	.st140{fill:url(#SVGID_00000168798155169997495010000017384517328121976488_);}
	.st141{fill:url(#SVGID_00000010991470268063232870000014863109957874003329_);}
	.st142{fill:url(#SVGID_00000065061521263545585160000016777683508156088251_);}
	.st143{fill:url(#SVGID_00000044175355235305996600000014426110416166646418_);}
	.st144{fill:url(#SVGID_00000104707751351201163990000003543455135170382782_);}
	.st145{fill:url(#SVGID_00000069391360826609736550000001933661055687622789_);}
	.st146{fill:url(#SVGID_00000021817910061053928970000012513252651455747769_);}
	.st147{fill:url(#SVGID_00000001629062132972568510000018240758930695220624_);}
	.st148{fill:url(#SVGID_00000057851745303470028680000010625987411188639663_);}
	.st149{fill:url(#SVGID_00000161614369348882219560000006829708537986700438_);}
	.st150{fill:url(#SVGID_00000087398368588397236040000013474029260321419703_);}
	.st151{fill:url(#SVGID_00000142859327998627368210000004827274054185245079_);}
	.st152{fill:url(#SVGID_00000033337723532677794100000010022270432988103298_);}
	.st153{fill:url(#SVGID_00000078725851287818875650000016359550330194271912_);}
	.st154{fill:url(#SVGID_00000000906678764850181710000001856188349625324430_);}
	.st155{fill:url(#SVGID_00000051385582060905842350000001945636246633335218_);}
	.st156{fill:url(#SVGID_00000112607389424582934110000007718995072961473463_);}
	.st157{fill:url(#SVGID_00000047751074841369250590000002393093879465780635_);}
	.st158{fill:url(#SVGID_00000036220792970963322570000003677269469002374293_);}
	.st159{fill:url(#SVGID_00000117645676833967489230000003114857015305891508_);}
	.st160{fill:url(#SVGID_00000078762931711136525990000016316821224226697632_);}
	.st161{fill:url(#SVGID_00000094611774473820615460000003271077779059784843_);}
	.st162{fill:url(#SVGID_00000126289352084768673100000005709024989162823057_);}
	.st163{fill:url(#SVGID_00000109016854301278481150000006265249438526580878_);}
	.st164{fill:url(#SVGID_00000163075058069121235420000001257280119585108865_);}
	.st165{fill:url(#SVGID_00000165222117380837518600000013450043144081777805_);}
	.st166{fill:url(#SVGID_00000111897767854952470560000008746723046438345605_);}
	.st167{fill:url(#SVGID_00000092453915451131275040000003366349537851032713_);}
	.st168{fill:url(#SVGID_00000080901932619773274820000007922278872168852402_);}
	.st169{fill:url(#SVGID_00000046321658443204782730000008430203655669057669_);}
	.st170{fill:url(#SVGID_00000134950631248817626590000003398577603707557294_);}
	.st171{fill:url(#SVGID_00000173119586071235804870000014676546819061882782_);}
	.st172{fill:url(#SVGID_00000085208494302167859390000006484841891631829160_);}
	.st173{fill:url(#SVGID_00000169543605744142332180000000803291228482918042_);}
	.st174{fill:url(#SVGID_00000094592699708942371090000015499162756041542582_);}
	.st175{fill:url(#SVGID_00000009590132751529122310000009824469928183995295_);}
	.st176{fill:url(#SVGID_00000163769044202573117630000009037291505205668489_);}
	.st177{fill:url(#SVGID_00000110466869534759515200000014207323067747932592_);}
	.st178{fill:url(#SVGID_00000144296218238977816840000002301276415337726889_);}
	.st179{fill:url(#SVGID_00000110448593611029791010000002432418908629623168_);}
	.st180{fill:url(#SVGID_00000061449682932419840790000007165298540111590530_);}
	.st181{fill:url(#SVGID_00000157268267605243733360000004737956093280756387_);}
	.st182{fill:url(#SVGID_00000174597118984951518880000002416360487817338283_);}
	.st183{fill:url(#SVGID_00000152949805085957657380000013589291370684858559_);}
	.st184{fill:url(#SVGID_00000021119043056492627930000000335799483265060741_);}
	.st185{fill:url(#SVGID_00000054266822845415811970000007866442026131346325_);}
	.st186{fill:url(#SVGID_00000142885937335119998220000000712016214498482346_);}
	.st187{fill:url(#SVGID_00000039115581767077204950000015029629608077035137_);}
	.st188{fill:url(#SVGID_00000001648212161010046770000000175400801734839683_);}
	.st189{fill:url(#SVGID_00000119093115300419588940000006015186777157558206_);}
	.st190{fill:url(#SVGID_00000043419765507902647100000017556255330042947512_);}
	.st191{fill:url(#SVGID_00000121976960055617901930000015562921567745395360_);}
	.st192{fill:url(#SVGID_00000078041380138046035940000004114617061008481953_);}
	.st193{fill:url(#SVGID_00000039124659106423827980000011665472429067132288_);}
	.st194{fill:url(#SVGID_00000151514251888045897710000018215789925242880446_);}
	.st195{fill:url(#SVGID_00000180367753174251440400000008783529390418923169_);}
	.st196{fill:url(#SVGID_00000059283151466185775610000009016512615167736986_);}
	.st197{fill:url(#SVGID_00000162331787785615867210000003202630530373772450_);}
	.st198{fill:url(#SVGID_00000076574612015755593800000002258078665040002450_);}
	.st199{fill:#FFFFFE;}
	.st200{fill:none;stroke:#0B2130;stroke-width:12;stroke-linecap:round;stroke-miterlimit:10;}
	.st201{fill:none;stroke:#FFFFFF;stroke-width:3;stroke-linecap:round;stroke-miterlimit:10;}
	.st202{fill:#0B2130;}
	.st203{fill:url(#SVGID_00000046321491203014499430000008406370835170265236_);}
	.st204{fill:url(#SVGID_00000162310847901587126000000012432307720383045539_);}
</style>
<ellipse class="st199" cx="118.19" cy="106.72" rx="15" ry="11.52"/>
<path class="st0" d="M174.63,89.01c-0.77-11.1-3.42-30.85-6.14-30.85c-0.26,0-0.53,0.19-0.79,0.58c0.39-0.59,0.4-0.86,0.1-0.86
	c-2.3,0-22.56,15.42-27.48,20.65l-4.3,4l-4.47-4c-4.93-5.22-25.18-20.65-27.48-20.65c-0.3,0-0.29,0.27,0.1,0.86
	c-0.28-0.42-0.56-0.62-0.84-0.62c-2.42,0-5.24,16.14-6.48,28.51c0.04,0.16,0.05,0.32,0.03,0.49c-0.01,0.07-0.37,3.32-0.59,8.09
	c-0.23,5.08-0.3,11.87,0.39,18.39c0.01,0.07,0,0.14,0,0.21c-0.02,0.48-0.26,0.91-0.64,1.18c-0.2,0.14-0.43,0.24-0.69,0.26
	c-0.02,0-0.04,0-0.07,0c-0.03,0-0.06,0-0.09,0c-0.5,0-0.94-0.26-1.21-0.66c-0.14-0.2-0.25-0.42-0.28-0.68
	c0-0.04-0.01-0.07-0.01-0.11c-0.7-6.66-0.64-13.48-0.41-18.6h-1.15c-10.62,0-19.88,6.08-24.5,14.92
	c-9.92-0.26-17.91-8.39-17.91-18.37v-2.69c0-10.14,8.25-18.4,18.4-18.4c3.31,0,6-2.69,6-6c0-3.31-2.69-6-6-6
	c-16.76,0-30.4,13.64-30.4,30.4v2.69c0,15.55,11.73,28.4,26.81,30.18c-0.01,0.3-0.02,0.59-0.02,0.89v3.04
	c0,7.08,2.7,13.57,7.13,18.47c0,0.13-0.01,0.25-0.01,0.38l0.52,14.24c0.12,3.24,2.78,5.78,5.99,5.78c0.07,0,0.15,0,0.22,0
	c3.31-0.12,5.9-2.9,5.78-6.21l-0.23-6.3c1.3,0.41,2.65,0.72,4.03,0.94l0.21,5.8c0.12,3.24,2.78,5.78,5.99,5.78c0.07,0,0.15,0,0.22,0
	c3.31-0.12,5.9-2.9,5.78-6.21l-0.18-5.04h3.99l0.2,5.48c0.12,3.24,2.78,5.78,5.99,5.78c0.07,0,0.15,0,0.22,0
	c3.31-0.12,5.9-2.9,5.78-6.21l-0.18-5.1c1.35-0.08,2.68-0.26,3.97-0.53l0.22,6.07c0.12,3.24,2.78,5.78,5.99,5.78
	c0.07,0,0.15,0,0.22,0c3.31-0.12,5.9-2.9,5.78-6.21l-0.41-11.31c1.67-1.37,3.17-2.94,4.49-4.66l0.01,0l2.67-3.4l0.78-1l0.79-1h6.82
	c13.45,0,24.73-9.75,27.14-22.54l0,0c0,0,0-0.01,0-0.01c0.31-1.65,0.48-3.34,0.48-5.07v-1.38
	C175.15,101.69,174.94,94.29,174.63,89.01z"/>
<path class="st1" d="M121.18,120.53h-5.99c-6.6,0-12-5.4-12-12v-1.32c0-6.6,5.4-12,12-12h5.99c6.6,0,12,5.4,12,12v1.32
	C133.18,115.13,127.78,120.53,121.18,120.53z"/>
<path class="st0" d="M124.87,114.62h-2.41c-1.09,0-1.99-0.89-1.99-1.99v-11.63c0-1.09,0.89-1.99,1.99-1.99h2.41
	c1.09,0,1.99,0.89,1.99,1.99v11.63C126.86,113.73,125.97,114.62,124.87,114.62z"/>
<path class="st1" d="M157.18,120.53h-5.99c-6.6,0-12-5.4-12-12v-1.32c0-6.6,5.4-12,12-12h5.99c6.6,0,12,5.4,12,12v1.32
	C169.18,115.13,163.78,120.53,157.18,120.53z"/>
<path class="st0" d="M160.87,114.62h-2.41c-1.09,0-1.99-0.89-1.99-1.99v-11.63c0-1.09,0.89-1.99,1.99-1.99h2.41
	c1.09,0,1.99,0.89,1.99,1.99v11.63C162.86,113.73,161.97,114.62,160.87,114.62z"/>
<path class="st1" d="M96.87,87.12c0.02-0.17,0-0.34-0.03-0.49c-0.13,1.31-0.24,2.59-0.34,3.79c-0.04,1.82-0.16,3.38-0.3,4.79h0.08
	C96.5,90.44,96.86,87.18,96.87,87.12z"/>
<path class="st1" d="M96.66,113.81h-0.83c0.06,0.39,0.11,0.79,0.19,1.18C96.4,114.72,96.65,114.29,96.66,113.81z"/>
<g>
	<path class="st0" d="M19.43,40.66l14.18,17.38l-3.72,6.14l-11.9-2.55l7.7,9.49l-3.72,6.14L0,72.76l3.63-6.01l13.18,2.92L8.2,59.21
		l3.27-5.4l13.3,2.95l-8.72-10.52L19.43,40.66z"/>
	<path class="st0" d="M47.82,28.17l7.92,9.14l-5.6,4.85l-7.12-8.23c-1.99-2.3-3.84-2.4-5.46-1c-1.8,1.56-2.21,3.88,0.08,6.53
		l6.69,7.72l-5.6,4.85L19.77,30.16l5.6-4.85l6.38,7.37c0.24-2.22,1.41-4.27,3.3-5.9C38.8,23.54,43.53,23.21,47.82,28.17z"/>
	<path class="st0" d="M44.59,12.55c-1.11-1.93-0.41-4.31,1.96-5.67c2.37-1.36,4.72-0.86,5.83,1.06c1.16,2.03,0.46,4.41-1.9,5.77
		C48.11,15.07,45.7,14.47,44.59,12.55z M48.43,17.58l6.43-3.69l10.52,18.33l-6.43,3.69L48.43,17.58z"/>
	<path class="st0" d="M99.32,8.3l3.13,11.68l-7.16,1.92l-2.81-10.51c-0.79-2.94-2.32-3.86-4.21-3.35c-2.07,0.55-3.21,2.35-2.36,5.52
		l2.71,10.13l-7.16,1.92l-2.81-10.51c-0.79-2.94-2.29-3.87-4.21-3.35c-2.11,0.57-3.24,2.36-2.4,5.53l2.71,10.13l-7.16,1.92
		L62.13,8.89l6.82-1.83l0.58,2.15c1.1-2.07,3.03-3.47,5.44-4.12c2.79-0.75,5.43-0.37,7.45,1.44c1.08-2.47,3.29-4.31,6.22-5.1
		C93.38,0.16,97.62,1.97,99.32,8.3z"/>
	<path class="st0" d="M103.88,19.23l2.42-4.98c1.9,1.29,4.71,2.14,7.29,2.25c2.49,0.1,3.33-0.41,3.37-1.31
		c0.11-2.85-12.49-0.11-12.15-8.57c0.16-3.97,3.95-6.87,10.57-6.6c2.96,0.12,6.21,0.88,8.27,2.13l-2.42,4.94
		c-2.06-1.25-4.15-1.73-6.02-1.8c-2.49-0.1-3.42,0.57-3.45,1.34c-0.12,2.92,12.44,0.27,12.1,8.65c-0.16,3.9-3.86,6.79-10.72,6.52
		C109.56,21.64,105.89,20.59,103.88,19.23z"/>
	<path class="st0" d="M151.97,7.32l-14.44,18.94c-3.54,4.71-6.97,5.46-11,4.4c-2.15-0.57-4.37-1.92-5.43-3.41l3.81-4.36
		c0.63,0.97,1.72,1.74,2.85,2.04c1.4,0.37,2.33,0.05,3.25-1l-3.29-23.01l7.35,1.94l1.72,13.81l8.35-11.15L151.97,7.32z"/>
	<path class="st0" d="M159.25,2.54l6.72,3.13l-12.22,26.22l-6.71-3.13L159.25,2.54z"/>
	<path class="st0" d="M180.14,35.12l-6.79,9.58l-5.63-3.99l1.58-2.23c-2.03,1.05-4.36,0.69-6.87-1.09
		c-4.14-2.93-4.78-6.88-2.66-9.87c2.25-3.18,5.98-3.51,11.32,0.28l3.44,2.44c1.15-1.82,0.67-3.64-1.72-5.33
		c-1.66-1.17-3.91-1.91-5.74-1.82l0.87-5.55c2.9,0.09,6.32,1.47,9.03,3.38C182.56,24.89,184.01,29.65,180.14,35.12z M171.22,34.88
		l1.06-1.5l-2.61-1.85c-1.94-1.38-3.14-1.17-3.88-0.12c-0.72,1.02-0.41,2.34,1.02,3.35C168.15,35.71,169.78,35.91,171.22,34.88z"/>
	<path class="st0" d="M199.17,57.87c-5.14,4.37-11.35,3.57-15.07-0.8c-1.79-2.11-2.54-4.19-2.17-6.34l-1.6,1.36l-4.57-5.38
		l22.04-18.75l4.8,5.65l-7.34,6.24c2.06,0.14,3.89,1.2,5.48,3.07C204.46,47.29,204.28,53.53,199.17,57.87z M194.32,52.17
		c2.44-2.07,2.54-4.72,0.92-6.62s-4.25-2.22-6.68-0.15c-2.47,2.1-2.6,4.77-0.98,6.67C189.2,53.97,191.86,54.27,194.32,52.17z"/>
	<path class="st0" d="M192.64,64.31l5.53-0.3c-0.2,2.29,0.42,5.16,1.58,7.46c1.13,2.23,1.98,2.71,2.78,2.31
		c2.54-1.28-5.98-10.96,1.58-14.78c3.55-1.79,7.92,0.11,10.91,6.02c1.34,2.65,2.26,5.85,2.16,8.26l-5.49,0.29
		c0.09-2.41-0.51-4.46-1.35-6.13c-1.13-2.23-2.16-2.71-2.85-2.36c-2.61,1.32,5.82,11-1.66,14.78c-3.48,1.76-7.81-0.07-10.91-6.2
		C193.29,70.45,192.42,66.74,192.64,64.31z"/>
</g>
</svg>
