<?xml version="1.0" encoding="UTF-8"?>
<svg id="bio" xmlns="http://www.w3.org/2000/svg" viewBox="0 0 1204.44 1081.61">
  <defs>
    <style>
      .cls-1 {
        stroke-width: 6px;
      }

      .cls-1, .cls-2 {
        fill: none;
        stroke: #000;
        stroke-linecap: round;
        stroke-linejoin: round;
      }

      .cls-2 {
        stroke-width: 7px;
      }
    </style>
  </defs>
  <path class="cls-1" d="M590.19,528.02c1.05.45,2.15.87,3.25,1.3,1.09.43,2.21.86,3.31,1.35,2.2.98,4.39,2.16,6.17,3.98.5.63.86,1.27,1.1,1.9.23.63.31,1.25.31,1.84,0,.6-.1,1.17-.26,1.7-.19.53-.45,1.02-.76,1.46-1.2,1.78-3.25,2.68-4.46,2.54-1.86.14-3.58-.77-5.41-1.14-.91-.19-1.85-.25-2.82-.04-.99.21-2.05.68-3.17,1.55-.2.25-.39.48-.56.71-.17.23-.31.46-.44.68-.25.44-.39.87-.48,1.29-.2.82-.09,1.61.23,2.4.08.2.17.39.28.59.1.19.21.39.33.58.24.39.53.78.84,1.17.63.78,1.38,1.57,2.16,2.37,1.58,1.61,3.22,3.24,4.23,5.05.25.45.46.91.62,1.38.08.24.14.47.19.72.05.24.07.48.09.72.05.97-.17,2-.76,3.04-.43.58-.86,1.09-1.28,1.54-.42.45-.83.83-1.27,1.14-.86.62-1.68,1.01-2.47,1.22-1.61.4-3.08.08-4.42-.48-1.34-.57-2.54-1.38-3.66-2.04-1.11-.67-2.12-1.19-3-1.19-.33-.04-.79-.1-1.32-.12-.26,0-.55,0-.84.01-.3.01-.61.04-.93.09-.64.11-1.3.31-1.93.69-.66.35-1.31.87-1.91,1.64-1.5,3.13-1.01,5.37-.23,7.57.38,1.1.83,2.2,1.01,3.36.18,1.17.12,2.42-.54,3.9-.42.95-1.1,1.66-1.89,2.21-.2.14-.4.26-.61.38-.21.11-.43.2-.65.29-.44.17-.9.3-1.35.39-.45.09-.9.16-1.33.18-.44.01-.86,0-1.24-.04-.77-.08-1.42-.25-1.85-.44-.7-.22-1.31-.55-1.85-.89-.54-.34-1.03-.72-1.49-1.11-.92-.79-1.74-1.59-2.75-2.35-.36-.33-1.01-.74-1.79-1.11-.4-.19-.82-.34-1.27-.51-.45-.16-.93-.3-1.4-.39-.48-.09-.96-.13-1.44-.13-.49,0-.96.05-1.43.19-.23.07-.46.16-.69.27-.11.06-.23.12-.34.19-.11.06-.22.13-.33.2-.44.3-.86.7-1.26,1.22-.25.37-.46.73-.65,1.1-.19.37-.35.72-.48,1.08-.27.72-.46,1.44-.61,2.17-.31,1.45-.47,2.9-1.05,4.32-.14.59-.51,1.28-1.08,1.93-.57.65-1.35,1.27-2.28,1.67-.93.38-2.02.56-3.17.39-1.15-.21-2.36-.78-3.51-1.84-1.29-1.29-1.77-2.61-2.06-3.92-.29-1.32-.4-2.61-.84-3.93-.34-.75-.62-1.63-1.22-2.48-.15-.21-.32-.42-.51-.62-.1-.1-.2-.2-.31-.3-.11-.11-.22-.21-.35-.31-.49-.41-1.1-.79-1.89-1.12-.82-.19-1.56-.23-2.24-.11-.34.05-.67.16-.98.26-.31.11-.61.25-.89.41-1.15.65-2.14,1.74-3.01,2.89-1.76,2.29-3.1,5.02-4.66,5.57-.9.66-1.9.95-2.9,1-.5.02-1.01-.01-1.49-.14-.48-.12-.95-.3-1.39-.53s-.86-.51-1.24-.83c-.37-.33-.7-.71-.99-1.12-.57-.82-.94-1.73-1.03-2.73-.21-1.52.22-2.78.71-4,.49-1.22,1.05-2.41,1.21-3.72,0-.3.04-.73.05-1.23,0-.51-.02-1.09-.16-1.68-.14-.59-.38-1.19-.8-1.75-.41-.59-.99-1.13-1.85-1.6-.7-.19-1.35-.31-1.96-.33-.61-.03-1.19.04-1.72.13-1.06.2-2.01.64-2.9,1.15-1.79,1.02-3.36,2.4-5.37,2.48-.69.17-1.47.15-2.24-.04-.77-.19-1.51-.59-2.18-1.13-.33-.27-.65-.58-.91-.93-.26-.36-.49-.75-.67-1.17-.36-.84-.56-1.79-.43-2.85.16-1.72.86-2.87,1.67-3.9.81-1.02,1.76-1.92,2.48-3.04.27-.55.94-1.6,1.2-2.86.03-.16.06-.32.08-.48.02-.17.04-.34.05-.51.01-.35,0-.7-.08-1.06-.07-.36-.19-.73-.38-1.11-.18-.38-.4-.78-.71-1.18-.29-.22-.57-.41-.85-.58-.14-.08-.28-.16-.42-.23-.14-.07-.27-.15-.4-.21-.54-.26-1.07-.43-1.6-.54-1.06-.22-2.12-.17-3.12-.05-2.03.24-3.97.86-5.88.19-.65-.09-1.3-.37-1.91-.81-.61-.44-1.18-1.03-1.61-1.74-.4-.73-.68-1.57-.74-2.49-.01-.23-.02-.46,0-.7.02-.24.06-.48.11-.73.1-.49.27-.99.51-1.49.69-1.51,1.7-2.41,2.74-3.14,1.04-.73,2.13-1.3,3.12-2.11.53-.55,1.23-1.05,1.81-1.8.29-.37.55-.81.76-1.33.19-.53.38-1.16.48-1.92-.02-.35-.07-.67-.14-.97-.07-.3-.16-.58-.26-.84-.2-.52-.48-.97-.82-1.36-.34-.39-.75-.73-1.19-1.02-.43-.29-.89-.54-1.37-.76-1.92-.88-4.07-1.25-4.9-1.95-.68-.31-1.33-.83-1.87-1.51-.27-.34-.51-.72-.71-1.14-.2-.41-.36-.86-.44-1.33-.17-.94-.14-1.98.22-3.03.4-1.04,1.07-2.08,2.16-3.01,1.53-1.27,2.99-1.77,4.48-2.25.75-.24,1.5-.48,2.26-.79.38-.16.76-.33,1.14-.53.38-.2.75-.43,1.16-.69.8-.5,1.43-1.07,1.88-1.7.47-.62.8-1.28.94-1.97.13-.7.16-1.39,0-2.09-.15-.7-.47-1.4-.94-2.05-.96-1.6-2.55-2.8-4.04-4.18-.37-.35-.74-.7-1.08-1.09-.34-.38-.65-.78-.94-1.22-.56-.88-.99-1.9-1.16-3.16-.05-1.39.34-2.57.91-3.56.62-.96,1.45-1.72,2.31-2.27.89-.53,1.81-.86,2.6-1.04.79-.17,1.44-.19,1.84-.1,1.68.13,2.99.94,4.37,1.67.68.37,1.38.72,2.13.98.75.26,1.53.42,2.44.45.4.05.97.04,1.6-.07.63-.11,1.3-.32,1.97-.62.33-.15.65-.34.94-.56.3-.22.56-.49.82-.77.51-.57.87-1.32,1.04-2.29.29-1.72-.1-3.26-.61-4.73-.49-1.45-1.12-2.85-1.22-4.36-.07-.58-.06-1.13.01-1.65.08-.51.24-.98.45-1.42.21-.44.48-.84.8-1.19.16-.18.32-.35.51-.5.18-.15.38-.28.58-.4.4-.24.84-.44,1.3-.58.46-.14.93-.23,1.43-.23.99-.01,2,.21,2.96.7.64.29,1.21.68,1.73,1.09.52.41,1,.85,1.49,1.29.49.44.98.87,1.53,1.26.54.39,1.14.75,1.83,1.07.42.24.96.43,1.54.53.29.05.59.08.89.08.3,0,.62,0,.92-.05.61-.09,1.21-.3,1.73-.69.54-.35,1-.88,1.35-1.63.22-.47.39-.96.52-1.44.14-.48.24-.96.31-1.45.15-.98.19-1.98.21-2.98.02-1,.03-1.99.13-2.96.1-.97.3-1.89.71-2.77.33-.88.88-1.62,1.58-2.19.71-.54,1.56-.91,2.45-1.1.22-.05.45-.08.68-.1.23-.01.46-.01.69,0,.46.02.93.1,1.37.22.45.13.89.3,1.3.53.41.24.8.54,1.15.89,1.27,1.17,1.71,2.49,2.01,3.84.29,1.35.44,2.7,1.01,4,.24.62,1.06,2.04,2.27,2.97.15.12.31.22.47.33.16.11.34.21.51.29.36.17.74.3,1.15.35.21.03.42.04.64.03.11,0,.22-.01.34-.03.11-.01.23-.02.35-.04.47-.08.98-.24,1.54-.51,1.06-.71,1.83-1.53,2.45-2.46.63-.92,1.1-1.92,1.55-2.84.57-.85,1.1-2.18,2.15-3.25.53-.53,1.19-1,2.05-1.3.86-.28,1.91-.35,3.22-.15,2.04.84,3.27,1.9,3.97,3.13.71,1.21.93,2.47.98,3.77.05,1.3-.05,2.59,0,3.79.05,1.21.24,2.31.83,3.31.29.62.6,1.12.93,1.53.34.4.68.75,1.05,1,.37.25.75.42,1.15.52.4.11.79.18,1.2.18.81.02,1.64-.18,2.36-.44.72-.26,1.35-.61,1.78-.97.44-.17,1.15-.83,2.08-1.59.46-.38.98-.79,1.54-1.18.56-.38,1.15-.73,1.79-1.02.63-.28,1.3-.5,1.99-.6.34-.05.7-.07,1.05-.05.35.02.7.09,1.05.19.7.21,1.41.58,2.09,1.15.66.6,1.29,1.41,1.87,2.46.56,1.59.66,2.85.52,3.91-.16,1.08-.57,1.95-1.07,2.76-.99,1.6-2.29,2.94-2.85,4.84-.26.57-.42,1.35-.45,2.19-.01.42,0,.85.07,1.28.06.43.13.88.27,1.29.13.42.31.81.54,1.17.24.36.49.71.83,1,.34.29.74.53,1.22.71.48.19,1.01.33,1.64.38.79.25,1.83.08,3.03-.2,1.18-.27,2.5-.67,3.85-.89.67-.11,1.36-.17,2.03-.15.67.03,1.35.13,1.97.37,1.24.49,2.44,1.47,3.23,3.3.74,3.4-.17,5.46-1.36,6.96-.6.75-1.27,1.37-1.89,1.97-.63.6-1.23,1.19-1.65,1.85-.29.31-.57.67-.81,1.05-.25.38-.45.79-.66,1.21-.4.85-.64,1.76-.66,2.64-.06.89.12,1.75.61,2.53.45.79,1.24,1.51,2.44,2.09.47.19.92.37,1.39.54.47.17.94.32,1.42.47.96.29,1.95.55,2.94.82.99.27,1.99.54,2.97.86.96.32,1.91.7,2.82,1.17"/>
  <path class="cls-2" d="M552.75,516.68c1.27,14.56-5.59,32.06-21.31,33.78-9.92,1.13-20.75-3.85-27.43-11.07-12.37-13.18-4.32-33.2,9.89-42.15,17.24-11.18,37.05-1.28,38.83,19.23l.02.21Z"/>
</svg>