<?xml version="1.0" encoding="UTF-8"?>
<svg id="bio" xmlns="http://www.w3.org/2000/svg" viewBox="0 0 1204.44 1081.61">
  <defs>
    <style>
      .cls-1 {
        fill: none;
        stroke: #000;
        stroke-linecap: round;
        stroke-linejoin: round;
        stroke-width: 3px;
      }
    </style>
  </defs>
  <g>
    <path class="cls-1" d="M927.17,655.15c6.91,14.38,2.03,29.8,2.03,29.8"/>
    <path class="cls-1" d="M919.45,655.15c6.91,14.38-.92,30.85-.92,30.85"/>
    <path class="cls-1" d="M909.94,655.15c6.91,14.38.86,29.69.86,29.69"/>
    <path class="cls-1" d="M899.83,655.15c6.91,14.38.86,31.72.86,31.72"/>
    <path class="cls-1" d="M890.68,655.76c6.56,14.53,1.32,29.84,1.32,29.84"/>
    <path class="cls-1" d="M882.95,655.58c6.56,14.53-1.66,30.82-1.66,30.82"/>
    <path class="cls-1" d="M872.85,655.17c7.14,14.27,1.34,29.67,1.34,29.67"/>
    <path class="cls-1" d="M862.74,655.33c7.14,14.27,1.37,31.71,1.37,31.71"/>
  </g>
  <g>
    <path class="cls-1" d="M856.96,655.15c6.91,14.38,2.03,29.8,2.03,29.8"/>
    <path class="cls-1" d="M849.23,655.15c6.91,14.38-.92,30.85-.92,30.85"/>
    <path class="cls-1" d="M839.72,655.15c6.91,14.38.86,29.69.86,29.69"/>
    <path class="cls-1" d="M829.61,655.15c6.91,14.38.86,31.72.86,31.72"/>
    <path class="cls-1" d="M820.46,655.76c6.56,14.53,1.32,29.84,1.32,29.84"/>
    <path class="cls-1" d="M812.73,655.58c6.56,14.53-1.66,30.82-1.66,30.82"/>
    <path class="cls-1" d="M802.63,655.17c7.14,14.27,1.34,29.67,1.34,29.67"/>
    <path class="cls-1" d="M789.05,656.68c1.65,1.43,2.91,3.09,3.88,4.79.49.85.9,1.71,1.26,2.59.36.88.66,1.77.92,2.65,1.01,3.54,1.34,7.05,1.52,10.12.09,1.54.14,2.97.17,4.24.03,1.28.06,2.41.08,3.36.03,1.86.05,2.98.05,2.98"/>
  </g>
  <g>
    <path class="cls-1" d="M781.08,659.02c.92.6,1.74,1.25,2.49,1.92.75.68,1.43,1.41,2.05,2.15,1.23,1.49,2.19,3.03,2.98,4.61,1.57,3.16,2.46,6.31,3.12,9.06.64,2.75,1.05,5.1,1.34,6.78.29,1.67.43,2.64.43,2.64"/>
    <path class="cls-1" d="M771.31,664.27c2.04.79,3.74,1.9,5.17,3.15,1.44,1.27,2.62,2.7,3.63,4.17,2.01,2.96,3.36,6.11,4.47,8.88,1.11,2.78,1.99,5.22,2.63,6.9.64,1.69,1.03,2.71,1.03,2.71"/>
    <path class="cls-1" d="M761.17,673.33c2.16.23,4.11.83,5.84,1.61.87.39,1.68.83,2.45,1.31.77.48,1.5,1,2.19,1.53,2.75,2.16,4.88,4.63,6.65,6.83,1.75,2.2,3.16,4.17,4.14,5.54.48.68.87,1.23,1.14,1.6.26.37.4.58.4.58"/>
    <path class="cls-1" d="M753.3,685.48c4.32-.73,8.18.17,11.58,1.58,3.39,1.42,6.33,3.35,8.86,5.1,2.52,1.77,4.61,3.37,6.13,4.49,1.49,1.11,2.38,1.78,2.38,1.78"/>
    <path class="cls-1" d="M749.89,698.11c1.98-.82,3.99-1.24,5.87-1.42,1.89-.18,3.73-.1,5.47.13,3.48.45,6.61,1.45,9.27,2.39,2.66.96,4.85,1.88,6.41,2.53,1.56.65,2.45,1.04,2.45,1.04"/>
    <path class="cls-1" d="M748.86,709.01c.89-.61,1.79-1.1,2.71-1.5.92-.4,1.85-.71,2.78-.95,1.85-.47,3.68-.65,5.47-.66,3.57-.01,6.95.59,9.88,1.16,2.91.59,5.44,1.16,7.2,1.52,1.75.36,2.81.58,2.81.58"/>
    <path class="cls-1" d="M750.82,723.31c1.34-1.77,2.82-3.13,4.39-4.23,1.58-1.09,3.21-1.9,4.84-2.53,3.25-1.24,6.47-1.78,9.28-2.14,2.81-.34,5.21-.5,6.89-.62.84-.05,1.51-.09,1.97-.12.46-.02.71-.04.71-.04"/>
    <path class="cls-1" d="M757.15,736.31c.4-1.03.87-1.97,1.39-2.85.53-.88,1.13-1.7,1.75-2.45,1.26-1.51,2.66-2.76,4.15-3.86,2.97-2.18,6.14-3.7,8.95-4.95,2.81-1.22,5.3-2.19,7.04-2.88,1.73-.68,2.77-1.08,2.77-1.08"/>
  </g>
  <g>
    <path class="cls-1" d="M762.09,742.96c.51-2.14,1.29-4,2.26-5.67.97-1.67,2.1-3.11,3.3-4.4,2.4-2.56,5.06-4.5,7.4-6.06,2.36-1.56,4.44-2.76,5.9-3.61,1.46-.84,2.32-1.31,2.32-1.31"/>
    <path class="cls-1" d="M770.36,750.31c.03-2.17.49-4.16,1.18-5.94.69-1.78,1.61-3.38,2.66-4.84,2.09-2.91,4.57-5.24,6.8-7.27,2.24-2.01,4.19-3.64,5.57-4.84,1.36-1.17,2.18-1.88,2.18-1.88"/>
    <path class="cls-1" d="M782.39,756.74c-.53-2.14-.66-4.13-.51-6.05.14-1.9.54-3.68,1.07-5.34.53-1.65,1.2-3.2,1.91-4.63.71-1.43,1.47-2.75,2.2-3.96,1.47-2.42,2.82-4.4,3.76-5.8.47-.69.85-1.25,1.11-1.63.26-.37.4-.58.4-.58"/>
    <path class="cls-1" d="M796.52,759.9c-1.09-1.87-1.75-3.85-2.13-5.75-.38-1.91-.47-3.81-.4-5.65.15-3.68.94-7.11,1.7-10.09.78-2.97,1.55-5.51,2.08-7.31.53-1.78.85-2.85.85-2.85"/>
    <path class="cls-1" d="M806.97,759.49c-6.56-14.53-1.32-29.84-1.32-29.84"/>
    <path class="cls-1" d="M814.7,759.67c-6.56-14.53,1.66-30.82,1.66-30.82"/>
    <path class="cls-1" d="M824.8,760.07c-7.14-14.27-1.34-29.67-1.34-29.67"/>
    <path class="cls-1" d="M834.91,759.91c-7.14-14.27-1.37-31.71-1.37-31.71"/>
  </g>
  <g>
    <path class="cls-1" d="M840.69,760.09c-6.91-14.38-2.03-29.8-2.03-29.8"/>
    <path class="cls-1" d="M848.42,760.09c-6.91-14.38.92-30.85.92-30.85"/>
    <path class="cls-1" d="M857.93,760.09c-6.91-14.38-.86-29.69-.86-29.69"/>
    <path class="cls-1" d="M868.04,760.09c-6.91-14.38-.86-31.72-.86-31.72"/>
    <path class="cls-1" d="M877.19,759.49c-6.56-14.53-1.32-29.84-1.32-29.84"/>
    <path class="cls-1" d="M884.92,759.67c-6.56-14.53,1.66-30.82,1.66-30.82"/>
    <path class="cls-1" d="M895.02,760.07c-7.14-14.27-1.34-29.67-1.34-29.67"/>
    <path class="cls-1" d="M905.13,759.91c-7.14-14.27-1.37-31.71-1.37-31.71"/>
  </g>
  <g>
    <path class="cls-1" d="M910.91,760.09c-6.91-14.38-2.03-29.8-2.03-29.8"/>
    <path class="cls-1" d="M918.64,760.09c-6.91-14.38.92-30.85.92-30.85"/>
    <path class="cls-1" d="M928.15,760.09c-6.91-14.38-.86-29.69-.86-29.69"/>
    <path class="cls-1" d="M940.95,759.3c-1.53-1.54-2.66-3.28-3.51-5.03-.42-.88-.78-1.77-1.07-2.67-.3-.9-.54-1.81-.73-2.71-.77-3.6-.88-7.12-.88-10.19,0-3.07.12-5.73.18-7.6.07-1.85.1-2.97.1-2.97"/>
    <path class="cls-1" d="M953.26,754.88c-1.81-1.16-3.29-2.55-4.52-4.01-1.23-1.46-2.21-3-3.02-4.56-1.62-3.12-2.59-6.25-3.34-8.98-.37-1.37-.67-2.63-.93-3.76-.26-1.14-.48-2.13-.66-2.96-.36-1.65-.54-2.6-.54-2.6"/>
    <path class="cls-1" d="M962.82,749.48c-4.04-1.55-6.77-4.3-8.83-7.21-2.06-2.92-3.49-6.04-4.7-8.76-.6-1.37-1.15-2.66-1.63-3.8-.48-1.13-.9-2.14-1.26-2.98"/>
    <path class="cls-1" d="M973.38,739.7c-1.1-.04-2.14-.17-3.13-.37-1-.21-1.94-.49-2.84-.82-1.79-.66-3.38-1.53-4.83-2.52-2.89-1.97-5.17-4.3-7.07-6.39-.95-1.05-1.78-2.04-2.53-2.94-.75-.9-1.39-1.7-1.92-2.36-1.06-1.32-1.65-2.1-1.65-2.1"/>
    <path class="cls-1" d="M980.42,727.08c-4.27,1.04-8.2.42-11.69-.76-3.48-1.19-6.54-2.93-9.17-4.53-2.63-1.62-4.8-3.1-6.37-4.14-1.55-1.04-2.48-1.66-2.48-1.66"/>
  </g>
  <g>
    <path class="cls-1" d="M983.06,719.2c-1.02.41-2.01.72-3,.95-1,.23-1.98.37-2.93.45-1.91.16-3.74.06-5.49-.19-3.48-.51-6.58-1.58-9.21-2.62-2.63-1.05-4.78-2.06-6.32-2.78-1.53-.72-2.41-1.16-2.41-1.16"/>
    <path class="cls-1" d="M984.34,708.2c-3.63,2.43-7.47,3.06-11.03,3.03-3.57-.05-6.93-.74-9.85-1.41-2.9-.68-5.4-1.35-7.16-1.8-1.74-.44-2.8-.71-2.8-.71"/>
    <path class="cls-1" d="M982.74,694.68c-1.46,1.65-3.01,2.9-4.67,3.88-1.65.97-3.33,1.66-4.99,2.18-3.33,1.02-6.58,1.35-9.4,1.54-2.82.18-5.22.2-6.9.22-1.7.02-2.68.02-2.68.02"/>
    <path class="cls-1" d="M977.25,681.26c-.47.99-.99,1.89-1.58,2.73-.6.84-1.24,1.61-1.92,2.31-1.36,1.41-2.85,2.56-4.4,3.56-3.11,1.98-6.37,3.3-9.25,4.37-2.88,1.06-5.42,1.88-7.19,2.47-1.76.58-2.82.94-2.82.94"/>
    <path class="cls-1" d="M968.87,671.26c-.97,4.21-3.11,7.45-5.44,10.04-2.36,2.59-4.96,4.59-7.26,6.23-2.31,1.64-4.34,2.92-5.75,3.82-.71.44-1.27.8-1.65,1.04-.39.24-.6.37-.6.37"/>
    <path class="cls-1" d="M960.52,664.16c0,1.07-.13,2.11-.32,3.1-.2.99-.47,1.92-.8,2.81-.66,1.78-1.58,3.39-2.59,4.86-2.04,2.94-4.46,5.34-6.61,7.44-1.08,1.04-2.1,1.98-3,2.82-.9.84-1.7,1.59-2.37,2.22-1.29,1.23-2.08,1.97-2.08,1.97"/>
    <path class="cls-1" d="M947.67,657.59c1.37,4.19,1.09,8.06.27,11.43-.42,1.69-.98,3.28-1.6,4.75-.62,1.48-1.29,2.83-1.95,4.09-1.32,2.51-2.57,4.57-3.43,6.01-.87,1.44-1.4,2.28-1.4,2.28"/>
    <path class="cls-1" d="M933.4,655.36c1.22,1.8,2.03,3.72,2.54,5.61.51,1.88.74,3.78.79,5.62.09,3.68-.47,7.16-1.06,10.18-.6,3.02-1.24,5.58-1.67,7.42-.44,1.81-.7,2.9-.7,2.9"/>
  </g>
</svg>