<?xml version="1.0" encoding="UTF-8"?>
<svg id="bio" xmlns="http://www.w3.org/2000/svg" viewBox="0 0 1204.44 1081.61">
  <defs>
    <style>
      .cls-1 {
        stroke-linecap: round;
      }

      .cls-1, .cls-2 {
        fill: none;
        stroke: #000;
        stroke-linejoin: round;
        stroke-width: 7px;
      }
    </style>
  </defs>
  <path class="cls-1" d="M224.64,744.66c2.27.25,4.49,1.2,6.47,3.06,7.13,6.77,9.4,20.42,15.39,29.02,6.85,10.69,17.29,10.31,24.65,1.05,7.1-8.35,11.46-21.67,18.77-29.72,9.25-10.96,22.17-8.07,30.07,4.26,9.92,15.35,13.17,34.27,29.76,32.92,13.75-.59,20.64-19.68,31.48-29.69,7.82-7.49,18.02-7.32,26.01-.49,9.61,7.64,16.52,21.95,27.41,26.14,8.18,3.29,16.89-.86,23.49-8.26,11.57-13.59,18.32-30.57,34.14-20.74,11.59,6.47,18.81,26.83,30.24,31.28,22.24,6.83,27.02-34.86,45.18-37.16,17.67-1.89,22.53,34.03,37.99,37.23,15.2,2.75,22.42-21.68,34.5-29.66,5.49-3.5,11.81-1.96,16.85,2.52,10.16,8.26,15.75,27.68,27.72,29.93,15.62,2.48,22.2-21.82,34.38-29.93,1.96-1.24,3.96-1.87,5.96-1.99"/>
  <path class="cls-1" d="M230.78,789.81c5.52-15.56,12.09-33.28,22.72-41.36,5.38-4.21,12.3-5.69,17.61-.73,7.13,6.77,9.4,20.42,15.39,29.02,6.85,10.69,17.29,10.31,24.65,1.05,7.1-8.35,11.46-21.67,18.77-29.72,9.25-10.96,22.17-8.07,30.07,4.26,9.92,15.35,13.17,34.27,29.76,32.92,13.75-.59,20.64-19.68,31.48-29.69,7.82-7.49,18.02-7.32,26.01-.49,9.61,7.64,16.52,21.95,27.41,26.14,8.18,3.29,16.89-.86,23.49-8.26,11.57-13.59,18.32-30.57,34.14-20.74,11.59,6.47,18.81,26.83,30.24,31.28,22.24,6.83,27.02-34.86,45.18-37.16,17.67-1.89,22.53,34.03,37.99,37.23,15.2,2.75,22.42-21.68,34.5-29.66,5.49-3.5,11.81-1.96,16.85,2.52,10.16,8.26,15.75,27.68,27.72,29.93.8.13,1.57.18,2.33.18"/>
  <line class="cls-2" x1="252.84" y1="749.15" x2="250.84" y2="781.15"/>
  <line class="cls-2" x1="268.84" y1="780.15" x2="265.84" y2="745.15"/>
  <line class="cls-2" x1="308.84" y1="742.15" x2="312.84" y2="776.15"/>
  <line class="cls-2" x1="297.84" y1="742.15" x2="290.84" y2="781.15"/>
  <line class="cls-2" x1="358.84" y1="751.15" x2="350.84" y2="785.15"/>
  <line class="cls-2" x1="333.84" y1="777.15" x2="342.84" y2="741.15"/>
  <line class="cls-2" x1="696.84" y1="756.15" x2="694.84" y2="784.15"/>
  <line class="cls-2" x1="682.84" y1="752.15" x2="677.84" y2="782.15"/>
  <line class="cls-2" x1="654.84" y1="754.15" x2="653.84" y2="782.15"/>
  <line class="cls-2" x1="642.84" y1="753.15" x2="639.84" y2="781.15"/>
  <line class="cls-2" x1="618.84" y1="751.15" x2="617.84" y2="779.15"/>
  <line class="cls-2" x1="600.84" y1="749.15" x2="602.84" y2="783.15"/>
  <line class="cls-2" x1="575.84" y1="748.15" x2="576.84" y2="781.15"/>
  <line class="cls-2" x1="559.84" y1="750.15" x2="559.84" y2="782.15"/>
  <line class="cls-2" x1="534.84" y1="754.15" x2="533.84" y2="782.15"/>
  <line class="cls-2" x1="520.84" y1="749.15" x2="518.84" y2="781.15"/>
  <line class="cls-2" x1="488.84" y1="750.15" x2="490.84" y2="779.15"/>
  <line class="cls-2" x1="473.84" y1="754.15" x2="475.84" y2="782.15"/>
  <line class="cls-2" x1="448.84" y1="756.15" x2="446.84" y2="781.15"/>
  <line class="cls-2" x1="438.84" y1="750.15" x2="428.84" y2="778.15"/>
  <line class="cls-2" x1="394.84" y1="750.15" x2="404.84" y2="775.15"/>
  <line class="cls-2" x1="379.84" y1="756.15" x2="391.84" y2="785.15"/>
</svg>