<?xml version="1.0" encoding="UTF-8"?>
<svg id="bio" xmlns="http://www.w3.org/2000/svg" viewBox="0 0 1204.44 1081.61">
  <defs>
    <style>
      .cls-1 {
        stroke-linecap: round;
      }

      .cls-1, .cls-2 {
        fill: none;
        stroke: #000;
        stroke-linejoin: round;
        stroke-width: 7px;
      }
    </style>
  </defs>
  <path class="cls-1" d="M950.33,563.05c1.64-.34,3.39-.39,5.3-.09.96.15,1.96.39,3.01.72,1.05.32,2.14.65,3.29,1.13,1.68.59,3.34,1.4,4.99,2.38,1.65.98,3.31,2.13,4.95,3.24,3.29,2.3,6.64,5,10.12,7.61,3.46,2.52,7.02,4.81,10.75,6.58,3.75,1.83,7.54,2.75,11.45,2.64,1.86-.16,3.59-.48,5.18-.93,1.57-.48,2.92-1.14,4.21-1.89,2.54-1.51,4.61-3.46,6.31-5.72,3.31-4.69,5.15-10.52,6.49-16.54,1.31-6.12,2.2-12.29,3.74-17.68.75-2.74,1.68-5.26,2.94-7.45.63-1.1,1.34-2.11,2.16-3.03.81-.94,1.7-1.82,2.73-2.57,2.02-1.44,4.13-2.25,6.34-2.59,2.18-.4,4.46-.35,6.83.03,2.36.37,4.83,1.09,7.33,1.93,2.49.82,5.04,1.81,7.63,2.83,2.59,1.02,5.2,2.06,7.82,2.99,2.61.91,5.18,1.66,7.73,2.17,2.55.5,5.06.75,7.48.59,2.41-.18,4.7-.81,6.86-1.95,4.23-2.3,6.78-5.74,8.39-9.64.4-.98.74-1.99,1.03-3.02.27-1.05.5-2.13.68-3.23.36-2.2.55-4.47.65-6.77.22-4.58-.06-9.42-.02-13.96.05-4.53.27-8.94,1.43-12.77,2.19-6.88,8.3-10.87,15.61-12.01,7.05-1.44,15.3-.18,23.26.14,7.96.34,15.64-.28,21.26-5.32,7.13-6.77,7.05-15.69,5.3-24.7-1.75-9.05-5.16-18.25-4.62-26.35.22-2.58.95-4.84,2.07-6.83"/>
  <path class="cls-1" d="M645.04,527.37c2.91-.35,5.89,0,8.71,1.32,1.26.58,2.45,1.37,3.57,2.25,1.12.88,2.16,1.85,3.16,2.89,1.99,2.09,3.77,4.45,5.47,6.89,1.7,2.43,3.34,4.94,5.02,7.3,1.69,2.39,3.45,4.71,5.39,6.66,2.24,2.45,4.59,4.2,6.98,5.27,1.19.51,2.4.95,3.62,1.22,1.21.27,2.43.37,3.64.32,1.21-.05,2.42-.26,3.61-.62,1.19-.37,2.37-.87,3.54-1.45,2.33-1.2,4.58-3,6.66-5.34,1-1.06,1.97-2.2,2.91-3.39.94-1.18,1.86-2.37,2.77-3.63,1.82-2.5,3.58-5.15,5.4-7.79,1.82-2.62,3.7-5.31,5.72-7.69,2.02-2.38,4.19-4.59,6.62-6.45,1.54-1.27,3.15-2.32,4.81-3.16,1.66-.82,3.35-1.37,5.06-1.75,3.41-.71,6.94-.72,10.24.18,3.31.89,6.46,2.49,9.25,4.71,2.78,2.27,5.18,5.2,7.07,8.62,9.47,17.19,9.21,36.31,28.24,39.13,15.67,2.96,28.19-13.56,43.11-20.21,10.82-5.05,22.36-2.07,29.99,6.63,2.33,2.5,4.4,5.29,6.4,8.26,1.99,2.96,3.91,6.08,5.95,9.02,2.03,2.97,4.17,5.85,6.59,8.4,2.44,2.49,5.16,4.65,8.31,6.24,9.52,4.8,21.16,2.05,29.69-4.9,1.88-1.58,3.63-3.22,5.3-4.86,1.67-1.63,3.25-3.39,4.77-5.02,1.52-1.64,2.98-3.22,4.42-4.67.72-.73,1.43-1.42,2.14-2.08.71-.67,1.42-1.34,2.13-1.94,1.42-1.22,2.86-2.25,4.35-3.04.75-.4,1.51-.73,2.29-1,.78-.26,1.58-.47,2.4-.66"/>
  <path class="cls-1" d="M953.52,595.68c1.75-.34,3.48-.84,5.15-1.49,1.25-.49,2.47-1.05,3.66-1.71,1.18-.71,2.32-1.49,3.41-2.33,2.18-1.68,4.16-3.61,5.89-5.71,2.99-3.94,5.37-8.15,7.55-11.97.54-.95,1.08-1.89,1.6-2.81.52-.95,1.03-1.88,1.53-2.79,1.02-1.8,2.04-3.47,3.11-4.97,1.07-1.5,2.2-2.79,3.43-3.92,1.21-1.19,2.53-2.17,4.03-2.88,1.5-.71,3.17-1.16,5.1-1.31,1.95-.26,4.15-.25,6.68.09,1.82.16,3.66.55,5.53,1.1,1.85.49,3.72,1.14,5.61,1.89,1.89.75,3.81,1.6,5.75,2.49,1.94.89,3.9,1.82,5.84,2.65,3.9,1.7,7.85,3.31,11.78,4.33,3.91.99,7.74,1.29,11.46.59.88-.22,1.71-.48,2.51-.77.79-.3,1.53-.65,2.23-1.01,1.41-.73,2.67-1.58,3.8-2.51,1.13-.94,2.12-1.96,2.99-3.06.87-1.1,1.59-2.34,2.22-3.61,2.52-5.09,3.42-11.09,3.76-17.32.19-3.09.27-6.2.4-9.22.13-3.03.26-6.04.63-8.83.36-2.81.95-5.39,1.88-7.78.92-2.4,2.22-4.52,4.07-6.3,1.85-1.67,3.79-2.86,5.94-3.54,2.13-.7,4.45-.9,6.84-.88,4.78.04,10.11,1.36,15.49,2.68,5.37,1.3,10.91,2.75,16.08,3.11,5.14.33,10.06-.28,14.01-3.1,7.73-5.63,8.61-14.54,7.91-23.72-.35-4.6-1.14-9.34-1.61-13.86-.51-4.56-.72-8.91,0-12.87,1.41-7.1,7.07-11.74,14.21-13.67,6.84-2.2,15.19-1.83,23.14-2.4,7.95-.56,15.55-2.01,20.61-7.87.66-.79,1.24-1.62,1.75-2.45"/>
  <path class="cls-1" d="M661.08,570.15c.73-4.17,1.62-8.32,2.71-12.53,1.09-4.19,2.4-8.37,4.02-12.36.81-1.99,1.7-3.95,2.68-5.81.99-1.82,2.06-3.57,3.23-5.22,2.34-3.3,5.08-6.23,8.26-8.59,3.22-2.3,7.07-3.96,10.98-4.46,1.96-.29,3.92-.12,5.82.34,1.9.46,3.73,1.28,5.42,2.49,2.26,1.65,4.1,3.75,5.68,6.19,1.58,2.41,2.92,5.06,4.17,7.76,2.51,5.43,4.71,10.96,7.9,15.52,3.63,5.61,8.21,8.41,13.11,9.07,2.45.31,4.98-.09,7.51-.92,2.53-.85,5.05-2.29,7.47-4.3,1.16-.9,2.29-1.88,3.39-2.93,1.11-1.02,2.19-2.09,3.27-3.21,2.15-2.24,4.26-4.63,6.41-7.01,4.3-4.79,8.71-9.37,13.87-12.51,1.65-1.08,3.34-1.95,5.04-2.58,1.69-.62,3.4-1.02,5.09-1.22,3.39-.4,6.78-.02,9.87,1.15,3.11,1.15,6.03,2.99,8.53,5.45,2.5,2.47,4.62,5.52,6.22,9.07,8.04,17.69,7.05,36.98,26.69,40.39,4.05.82,7.89.39,11.57-.81,3.7-1.22,7.25-3.25,10.72-5.58,3.47-2.32,6.9-5.03,10.33-7.57,3.43-2.54,6.89-4.94,10.47-6.82,10.43-5.49,21.47-3.61,29.81,4.23,2.52,2.18,4.86,4.77,7.18,7.51,2.32,2.64,4.63,5.43,7.08,8.13,2.44,2.74,5.02,5.2,7.87,7.31,2.85,2.1,5.96,3.92,9.46,4.82,2.63.76,5.31,1.04,7.97.93.89-.08,1.77-.21,2.65-.38"/>
  <path class="cls-2" d="M681.21,526.43c.06,10.72.22,21.42.47,32.12"/>
  <path class="cls-2" d="M701.8,556.49c-1.3-11.65-2.75-23.3-4.34-34.94"/>
  <path class="cls-2" d="M752.07,521.66c.18,11.46.22,22.89.13,34.31"/>
  <path class="cls-2" d="M738.26,520.07c-2.1,6.32-4.12,12.65-6.06,18.99-1.95,6.36-3.82,12.77-5.6,19.16"/>
  <path class="cls-2" d="M810.66,542.08c-5.72,10.31-11.37,20.59-16.91,30.98"/>
  <path class="cls-2" d="M776.07,561.1c5.76-11.07,11.71-22.09,17.85-33.08"/>
  <path class="cls-2" d="M1153.67,440.71c6.93,6.29,13.83,12.62,20.7,18.99"/>
  <path class="cls-2" d="M1140.42,450.89c6.46,7.85,12.88,15.83,19.14,23.87"/>
  <line class="cls-2" x1="1120.35" y1="476.32" x2="1139.62" y2="496.67"/>
  <path class="cls-2" d="M1109.85,485.43c5.66,7.51,11.24,15.06,16.77,22.68"/>
  <line class="cls-2" x1="1088.02" y1="502.38" x2="1105.04" y2="524.66"/>
  <path class="cls-2" d="M1070.69,513.49c7.35,8.65,14.75,17.25,22.22,25.81"/>
  <path class="cls-2" d="M1046.73,528.43c6.05,9.19,12.14,18.36,18.26,27.5"/>
  <line class="cls-2" x1="1032.07" y1="539.06" x2="1047.03" y2="567.35"/>
  <path class="cls-2" d="M1008.08,554.64c3.13,8.8,6.22,17.61,9.27,26.43"/>
  <path class="cls-2" d="M991.71,555.23c2.55,10.39,4.96,20.82,7.24,31.3"/>
  <path class="cls-2" d="M957.96,563.22c1.69,9.58,3.49,19.1,5.41,28.59"/>
  <path class="cls-2" d="M941.55,568.1c.86,9.31,1.83,18.62,2.89,27.93"/>
  <path class="cls-2" d="M913.02,568.64c-1.65,8.21-3.37,16.41-5.16,24.6"/>
  <path class="cls-2" d="M902.43,561.25c-1.27,2.18-2.56,4.36-3.87,6.53l-3.98,6.43c-2.69,4.28-5.45,8.55-8.27,12.8"/>
  <path class="cls-2" d="M852.52,551.21c1.88,9.03,3.82,18.03,5.88,27.04"/>
  <path class="cls-2" d="M833.86,552.85c2.31,10.51,4.61,21.04,7.02,31.56"/>
</svg>