<?xml version="1.0" encoding="UTF-8"?>
<svg id="phys" xmlns="http://www.w3.org/2000/svg" viewBox="0 0 1088.67 757.89">
  <defs>
    <style>
      .cls-1 {
        fill: #000;
        stroke-width: 0px;
      }

      .cls-2 {
        stroke-miterlimit: 10;
      }

      .cls-2, .cls-3 {
        fill: none;
        stroke: #000;
        stroke-width: 20px;
      }

      .cls-3 {
        stroke-linejoin: bevel;
      }
    </style>
  </defs>
  <g>
    <path class="cls-1" d="M464.88,53.15c-15.41,6.52-29.24,15.82-41.13,27.65l72.63,72.63c4.97-4.84,11.75-7.84,19.22-7.84V42.89c-17.56,0-34.62,3.45-50.71,10.26ZM505.59,132.26c0,2.7-1.68,5.08-4.18,6.1-.03.01-.05.02-.08.03-2.48,1.02-5.32.52-7.22-1.38l-50.71-50.71c-2.82-2.82-2.48-7.51.72-9.88,7.61-5.64,15.86-10.34,24.65-14.06,9.46-4,19.29-6.75,29.38-8.21,3.93-.57,7.44,2.51,7.44,6.48v71.64Z"/>
    <path class="cls-1" d="M515.34,42.89v102.69c7.47,0,14.25,2.99,19.22,7.84l72.63-72.63c-11.89-11.83-25.72-21.13-41.13-27.65-16.09-6.81-33.15-10.26-50.71-10.26ZM525.34,60.62c0-3.97,3.51-7.05,7.44-6.48,10.08,1.46,19.91,4.21,29.38,8.21,8.8,3.72,17.04,8.43,24.65,14.06,3.21,2.38,3.55,7.06.72,9.88l-50.71,50.71c-1.9,1.9-4.74,2.4-7.22,1.38-.03-.01-.05-.02-.08-.03-2.5-1.02-4.18-3.4-4.18-6.1V60.62Z"/>
    <path class="cls-1" d="M634.47,121.57c-6.52-15.41-15.82-29.24-27.65-41.13l-72.63,72.63c4.84,4.97,7.84,11.75,7.84,19.22h102.69c0-17.56-3.45-34.62-10.26-50.71ZM555.36,162.28c-2.7,0-5.08-1.68-6.1-4.18-.01-.03-.02-.05-.03-.08-1.02-2.48-.52-5.32,1.38-7.22l50.71-50.71c2.82-2.82,7.51-2.48,9.88.72,5.64,7.61,10.34,15.86,14.06,24.65,4,9.46,6.75,19.29,8.21,29.38.57,3.93-2.51,7.44-6.48,7.44h-71.64Z"/>
    <path class="cls-1" d="M644.73,172.03h-102.69c0,7.47-2.99,14.25-7.84,19.22l72.63,72.63c11.83-11.89,21.13-25.72,27.65-41.13,6.81-16.09,10.26-33.15,10.26-50.71ZM627,182.03c3.97,0,7.05,3.51,6.48,7.44-1.46,10.08-4.21,19.91-8.21,29.38-3.72,8.8-8.43,17.04-14.06,24.65-2.38,3.21-7.06,3.55-9.88.72l-50.71-50.71c-1.9-1.9-2.4-4.74-1.38-7.22.01-.03.02-.05.03-.08,1.02-2.5,3.4-4.18,6.1-4.18h71.64Z"/>
    <path class="cls-1" d="M566.6,290.62c15.41-6.52,29.24-15.82,41.13-27.65l-72.63-72.63c-4.97,4.84-11.75,7.84-19.22,7.84v102.69c17.56,0,34.62-3.45,50.71-10.26ZM525.88,211.51c0-2.7,1.68-5.08,4.18-6.1.03-.01.05-.02.08-.03,2.48-1.02,5.32-.52,7.22,1.38l50.71,50.71c2.82,2.82,2.48,7.51-.72,9.88-7.61,5.64-15.86,10.34-24.65,14.06-9.46,4-19.29,6.75-29.38,8.21-3.93.57-7.44-2.51-7.44-6.48v-71.64Z"/>
    <path class="cls-1" d="M516.13,300.88v-102.69c-7.47,0-14.25-2.99-19.22-7.84l-72.63,72.63c11.89,11.83,25.72,21.13,41.13,27.65,16.09,6.81,33.15,10.26,50.71,10.26ZM506.13,283.15c0,3.97-3.51,7.05-7.44,6.48-10.08-1.46-19.91-4.21-29.38-8.21-8.8-3.72-17.04-8.43-24.65-14.06-3.21-2.38-3.55-7.06-.72-9.88l50.71-50.71c1.9-1.9,4.74-2.4,7.22-1.38.03.01.05.02.08.03,2.5,1.02,4.18,3.4,4.18,6.1v71.64Z"/>
    <path class="cls-1" d="M397,222.2c6.52,15.41,15.82,29.24,27.65,41.13l72.63-72.63c-4.84-4.97-7.84-11.75-7.84-19.22h-102.69c0,17.56,3.45,34.62,10.26,50.71ZM476.11,181.49c2.7,0,5.08,1.68,6.1,4.18.01.03.02.05.03.08,1.02,2.48.52,5.32-1.38,7.22l-50.71,50.71c-2.82,2.82-7.51,2.48-9.88-.72-5.64-7.61-10.34-15.86-14.06-24.65-4-9.46-6.75-19.29-8.21-29.38-.57-3.93,2.51-7.44,6.48-7.44h71.64Z"/>
    <path class="cls-1" d="M386.74,171.74h102.69c0-7.47,2.99-14.25,7.84-19.22l-72.63-72.63c-11.83,11.89-21.13,25.72-27.65,41.13-6.81,16.09-10.26,33.15-10.26,50.71ZM404.48,161.74c-3.97,0-7.05-3.51-6.48-7.44,1.46-10.08,4.21-19.91,8.21-29.38,3.72-8.8,8.43-17.04,14.06-24.65,2.38-3.21,7.06-3.55,9.88-.72l50.71,50.71c1.9,1.9,2.4,4.74,1.38,7.22-.01.03-.02.05-.03.08-1.02,2.5-3.4,4.18-6.1,4.18h-71.64Z"/>
    <circle class="cls-2" cx="515.34" cy="171.89" r="129"/>
  </g>
  <g>
    <line class="cls-3" x1="515.85" y1="39.84" x2="515.93" y2="18.84"/>
    <line class="cls-3" x1="550.07" y1="44.48" x2="555.59" y2="24.22"/>
    <line class="cls-3" x1="581.93" y1="57.82" x2="592.5" y2="39.67"/>
    <line class="cls-3" x1="609.25" y1="78.95" x2="624.16" y2="64.16"/>
    <line class="cls-3" x1="630.17" y1="106.43" x2="648.4" y2="96"/>
    <line class="cls-3" x1="643.26" y1="138.39" x2="663.57" y2="133.03"/>
    <line class="cls-3" x1="647.64" y1="172.65" x2="668.64" y2="172.73"/>
    <line class="cls-3" x1="643" y1="206.87" x2="663.26" y2="212.39"/>
    <line class="cls-3" x1="629.66" y1="238.73" x2="647.81" y2="249.3"/>
    <line class="cls-3" x1="608.53" y1="266.05" x2="623.32" y2="280.96"/>
    <line class="cls-3" x1="581.05" y1="286.97" x2="591.48" y2="305.2"/>
    <line class="cls-3" x1="549.09" y1="300.06" x2="554.45" y2="320.37"/>
    <line class="cls-3" x1="514.83" y1="304.44" x2="514.75" y2="325.44"/>
    <line class="cls-3" x1="480.61" y1="299.8" x2="475.09" y2="320.06"/>
    <line class="cls-3" x1="448.75" y1="286.46" x2="438.18" y2="304.61"/>
    <line class="cls-3" x1="421.43" y1="265.33" x2="406.52" y2="280.12"/>
    <line class="cls-3" x1="400.51" y1="237.85" x2="382.28" y2="248.28"/>
    <line class="cls-3" x1="387.42" y1="205.89" x2="367.11" y2="211.25"/>
    <line class="cls-3" x1="383.04" y1="171.63" x2="362.04" y2="171.55"/>
    <line class="cls-3" x1="387.68" y1="137.41" x2="367.42" y2="131.89"/>
    <line class="cls-3" x1="401.02" y1="105.55" x2="382.87" y2="94.98"/>
    <line class="cls-3" x1="422.15" y1="78.23" x2="407.36" y2="63.32"/>
    <line class="cls-3" x1="449.63" y1="57.31" x2="439.2" y2="39.08"/>
    <line class="cls-3" x1="481.59" y1="44.22" x2="476.23" y2="23.91"/>
  </g>
</svg>