<?xml version="1.0" encoding="UTF-8"?>
<svg id="phys" xmlns="http://www.w3.org/2000/svg" viewBox="0 0 1088.67 804">
  <defs>
    <style>
      .cls-1 {
        stroke-width: 0px;
      }

      .cls-1, .cls-2, .cls-3 {
        fill: #000;
      }

      .cls-4, .cls-5, .cls-2, .cls-6, .cls-7, .cls-3 {
        stroke: #000;
      }

      .cls-4, .cls-5, .cls-6, .cls-7 {
        fill: none;
      }

      .cls-4, .cls-5, .cls-6, .cls-3 {
        stroke-width: 20px;
      }

      .cls-4, .cls-5, .cls-3 {
        stroke-miterlimit: 10;
      }

      .cls-5 {
        stroke-linecap: round;
      }

      .cls-2, .cls-6, .cls-7 {
        stroke-linejoin: bevel;
      }

      .cls-2, .cls-7 {
        stroke-width: 10px;
      }
    </style>
  </defs>
  <g>
    <g>
      <path class="cls-1" d="M645.88,66.26c-15.41,6.52-29.24,15.82-41.13,27.65l72.63,72.63c4.97-4.84,11.75-7.84,19.22-7.84V56c-17.56,0-34.62,3.45-50.71,10.26ZM686.59,145.37c0,2.7-1.68,5.08-4.18,6.1-.03.01-.05.02-.08.03-2.48,1.02-5.32.52-7.22-1.38l-50.71-50.71c-2.82-2.82-2.48-7.51.72-9.88,7.61-5.64,15.86-10.34,24.65-14.06,9.46-4,19.29-6.75,29.38-8.21,3.93-.57,7.44,2.51,7.44,6.48v71.64Z"/>
      <path class="cls-1" d="M696.34,56v102.69c7.47,0,14.25,2.99,19.22,7.84l72.63-72.63c-11.89-11.83-25.72-21.13-41.13-27.65-16.09-6.81-33.15-10.26-50.71-10.26ZM706.34,73.73c0-3.97,3.51-7.05,7.44-6.48,10.08,1.46,19.91,4.21,29.38,8.21,8.8,3.72,17.04,8.43,24.65,14.06,3.21,2.38,3.55,7.06.72,9.88l-50.71,50.71c-1.9,1.9-4.74,2.4-7.22,1.38-.03-.01-.05-.02-.08-.03-2.5-1.02-4.18-3.4-4.18-6.1v-71.64Z"/>
      <path class="cls-1" d="M815.47,134.67c-6.52-15.41-15.82-29.24-27.65-41.13l-72.63,72.63c4.84,4.97,7.84,11.75,7.84,19.22h102.69c0-17.56-3.45-34.62-10.26-50.71ZM736.36,175.39c-2.7,0-5.08-1.68-6.1-4.18-.01-.03-.02-.05-.03-.08-1.02-2.48-.52-5.32,1.38-7.22l50.71-50.71c2.82-2.82,7.51-2.48,9.88.72,5.64,7.61,10.34,15.86,14.06,24.65,4,9.46,6.75,19.29,8.21,29.38.57,3.93-2.51,7.44-6.48,7.44h-71.64Z"/>
      <path class="cls-1" d="M825.73,185.14h-102.69c0,7.47-2.99,14.25-7.84,19.22l72.63,72.63c11.83-11.89,21.13-25.72,27.65-41.13,6.81-16.09,10.26-33.15,10.26-50.71ZM808,195.14c3.97,0,7.05,3.51,6.48,7.44-1.46,10.08-4.21,19.91-8.21,29.38-3.72,8.8-8.43,17.04-14.06,24.65-2.38,3.21-7.06,3.55-9.88.72l-50.71-50.71c-1.9-1.9-2.4-4.74-1.38-7.22.01-.03.02-.05.03-.08,1.02-2.5,3.4-4.18,6.1-4.18h71.64Z"/>
      <path class="cls-1" d="M747.6,303.73c15.41-6.52,29.24-15.82,41.13-27.65l-72.63-72.63c-4.97,4.84-11.75,7.84-19.22,7.84v102.69c17.56,0,34.62-3.45,50.71-10.26ZM706.88,224.62c0-2.7,1.68-5.08,4.18-6.1.03-.01.05-.02.08-.03,2.48-1.02,5.32-.52,7.22,1.38l50.71,50.71c2.82,2.82,2.48,7.51-.72,9.88-7.61,5.64-15.86,10.34-24.65,14.06-9.46,4-19.29,6.75-29.38,8.21-3.93.57-7.44-2.51-7.44-6.48v-71.64Z"/>
      <path class="cls-1" d="M697.13,313.99v-102.69c-7.47,0-14.25-2.99-19.22-7.84l-72.63,72.63c11.89,11.83,25.72,21.13,41.13,27.65,16.09,6.81,33.15,10.26,50.71,10.26ZM687.13,296.25c0,3.97-3.51,7.05-7.44,6.48-10.08-1.46-19.91-4.21-29.38-8.21-8.8-3.72-17.04-8.43-24.65-14.06-3.21-2.38-3.55-7.06-.72-9.88l50.71-50.71c1.9-1.9,4.74-2.4,7.22-1.38.03.01.05.02.08.03,2.5,1.02,4.18,3.4,4.18,6.1v71.64Z"/>
      <path class="cls-1" d="M578,235.31c6.52,15.41,15.82,29.24,27.65,41.13l72.63-72.63c-4.84-4.97-7.84-11.75-7.84-19.22h-102.69c0,17.56,3.45,34.62,10.26,50.71ZM657.11,194.6c2.7,0,5.08,1.68,6.1,4.18.01.03.02.05.03.08,1.02,2.48.52,5.32-1.38,7.22l-50.71,50.71c-2.82,2.82-7.51,2.48-9.88-.72-5.64-7.61-10.34-15.86-14.06-24.65-4-9.46-6.75-19.29-8.21-29.38-.57-3.93,2.51-7.44,6.48-7.44h71.64Z"/>
      <path class="cls-1" d="M567.74,184.85h102.69c0-7.47,2.99-14.25,7.84-19.22l-72.63-72.63c-11.83,11.89-21.13,25.72-27.65,41.13-6.81,16.09-10.26,33.15-10.26,50.71ZM585.48,174.85c-3.97,0-7.05-3.51-6.48-7.44,1.46-10.08,4.21-19.91,8.21-29.38,3.72-8.8,8.43-17.04,14.06-24.65,2.38-3.21,7.06-3.55,9.88-.72l50.71,50.71c1.9,1.9,2.4,4.74,1.38,7.22-.01.03-.02.05-.03.08-1.02,2.5-3.4,4.18-6.1,4.18h-71.64Z"/>
      <circle class="cls-4" cx="696.34" cy="185" r="129"/>
    </g>
    <g>
      <line class="cls-6" x1="696.85" y1="52.95" x2="696.93" y2="31.95"/>
      <line class="cls-6" x1="731.07" y1="57.59" x2="736.59" y2="37.33"/>
      <line class="cls-6" x1="762.93" y1="70.93" x2="773.5" y2="52.78"/>
      <line class="cls-6" x1="790.25" y1="92.06" x2="805.16" y2="77.27"/>
      <line class="cls-6" x1="811.17" y1="119.54" x2="829.4" y2="109.11"/>
      <line class="cls-6" x1="824.27" y1="151.5" x2="844.57" y2="146.14"/>
      <line class="cls-6" x1="828.64" y1="185.76" x2="849.64" y2="185.84"/>
      <line class="cls-6" x1="824" y1="219.98" x2="844.26" y2="225.5"/>
      <line class="cls-6" x1="810.66" y1="251.84" x2="828.81" y2="262.41"/>
      <line class="cls-6" x1="789.53" y1="279.16" x2="804.32" y2="294.07"/>
      <line class="cls-6" x1="762.05" y1="300.08" x2="772.48" y2="318.31"/>
      <line class="cls-6" x1="730.09" y1="313.17" x2="735.45" y2="333.48"/>
      <line class="cls-6" x1="695.83" y1="317.55" x2="695.75" y2="338.55"/>
      <line class="cls-6" x1="661.61" y1="312.91" x2="656.09" y2="333.17"/>
      <line class="cls-6" x1="629.75" y1="299.57" x2="619.18" y2="317.72"/>
      <line class="cls-6" x1="602.43" y1="278.44" x2="587.52" y2="293.23"/>
      <line class="cls-6" x1="581.51" y1="250.96" x2="563.28" y2="261.39"/>
      <line class="cls-6" x1="568.42" y1="219" x2="548.11" y2="224.36"/>
      <line class="cls-6" x1="564.04" y1="184.74" x2="543.04" y2="184.66"/>
      <line class="cls-6" x1="568.68" y1="150.52" x2="548.42" y2="145"/>
      <line class="cls-6" x1="582.02" y1="118.66" x2="563.87" y2="108.09"/>
      <line class="cls-6" x1="603.15" y1="91.34" x2="588.36" y2="76.43"/>
      <line class="cls-6" x1="630.63" y1="70.42" x2="620.2" y2="52.19"/>
      <line class="cls-6" x1="662.59" y1="57.33" x2="657.23" y2="37.02"/>
    </g>
  </g>
  <g>
    <line class="cls-4" x1="48.34" y1="10" x2="48.34" y2="324"/>
    <rect class="cls-2" x="11.34" y="335" width="75" height="21"/>
    <rect class="cls-2" x="11.34" y="366" width="75" height="21"/>
    <rect class="cls-2" x="11.34" y="397" width="75" height="21"/>
    <rect class="cls-2" x="11.34" y="428" width="75" height="21"/>
    <rect class="cls-2" x="11.34" y="459" width="75" height="21"/>
    <rect class="cls-2" x="11.34" y="490" width="75" height="21"/>
    <line class="cls-7" x1="5.34" y1="528" x2="93.34" y2="528"/>
  </g>
  <g>
    <line class="cls-4" x1="236.34" y1="10" x2="236.34" y2="445"/>
    <circle class="cls-3" cx="236.34" cy="459" r="62"/>
  </g>
  <g>
    <path class="cls-5" d="M437.34,10v442.16c0,5.41-2.15,10.6-5.98,14.43l-11.24,11.24c-3.83,3.83-5.98,9.02-5.98,14.43v6.87c0,5.41,2.15,10.6,5.98,14.43h0c7.97,7.97,20.89,7.97,28.85,0l7.08-7.08c3.83-3.83,5.98-9.02,5.98-14.43v-2.05"/>
    <line class="cls-4" x1="413.34" y1="438" x2="462.34" y2="438"/>
  </g>
</svg>