<?xml version="1.0" encoding="UTF-8"?>
<svg id="bio" xmlns="http://www.w3.org/2000/svg" viewBox="0 0 1213.02 1081.61">
  <defs>
    <style>
      .cls-1 {
        fill: none;
        stroke: #000;
        stroke-linecap: round;
        stroke-linejoin: round;
        stroke-width: 4px;
      }
    </style>
  </defs>
  <path class="cls-1" d="M12.37,377.96c-1.54-2-3.36-3.89-5.11-5.87-1.75-1.97-3.43-4.03-4.67-6.24-.62-1.39-.71-2.5-.43-3.31.28-.82.92-1.35,1.69-1.71,1.55-.71,3.68-.62,4.88-.05,3.77,1.14,6.5,5.37,11.7,3.12,3.92-3.02,1.08-6.15-2.19-9.45-1.65-1.65-3.42-3.33-4.57-5.02-1.15-1.68-1.7-3.36-.9-4.99.6-.9,1.22-1.57,1.87-2.05.66-.49,1.33-.78,2.02-.94,1.36-.3,2.76-.05,4.12.43,2.72.95,5.31,2.7,6.96,2.52.64.02,1.76.03,2.86-.37.55-.19,1.1-.48,1.57-.93.24-.22.46-.49.65-.8.19-.31.37-.67.52-1.07.12-1.59-.16-2.88-.64-4-.47-1.11-1.17-2.04-1.9-2.96-.73-.92-1.49-1.81-2.08-2.83-.3-.51-.55-1.05-.74-1.65-.18-.6-.31-1.26-.3-1.97-.02-.94.23-1.73.63-2.39.2-.33.44-.63.7-.89.27-.26.57-.48.88-.67.31-.19.63-.35.95-.48.16-.06.32-.12.48-.17l.23-.07c.08-.02.15-.03.24-.07.35-.14.67-.21.98-.29.15-.04.3-.05.44-.05.14,0,.27,0,.38.02.35,0,.7.02,1,.09.29.07.57.17.83.27.53.21,1.01.47,1.49.77.96.6,1.85,1.26,2.81,1.8.18.13.42.26.69.41.28.15.59.3.92.44.33.14.67.27,1,.37.34.13.67.24.99.3.16.03.31.05.46.06.15.03.28.05.42.05.26.01.51-.09.71-.18.1-.05.2-.13.3-.24.05-.05.09-.11.14-.18.05-.07.09-.12.13-.19.08-.14.17-.31.25-.51.09-.2.17-.45.26-.69.11-.38.22-.74.33-1.1.11-.38.22-.76.32-1.13.2-.74.41-1.5.62-2.27.21-.77.42-1.54.68-2.27.26-.74.57-1.47.99-2.15.13-.3.33-.62.58-.93.25-.29.56-.58.93-.84.18-.13.38-.25.59-.36.11-.05.21-.1.32-.16.11-.05.22-.08.33-.12.45-.14.95-.23,1.47-.24.5.02,1.02.12,1.54.31.5.21.98.52,1.43.91.43.41.8.94,1.1,1.55.27.63.49,1.35.57,2.17.07.95-.03,1.77-.23,2.51-.21.75-.52,1.41-.85,2.03-.68,1.25-1.48,2.37-2.16,3.63-.34.76-.8,1.56-1.15,2.48-.17.46-.29.92-.37,1.44-.04.26-.06.52-.05.78,0,.28,0,.56.05.85.12.24.24.47.41.65.16.18.34.34.53.47.2.13.42.24.66.33.23.09.49.16.76.21.55.1,1.14.14,1.78.14.64,0,1.33-.06,2.01-.13,1.37-.14,2.79-.35,4.02-.44,1.22-.09,2.25-.05,2.88.4.5.16.94.41,1.33.73.19.16.38.33.54.52.16.2.31.41.44.64.13.23.25.46.36.71.1.26.18.54.25.81.07.28.12.56.15.86l.03.47v.24s0,.04,0,.04v.02s-.04.08-.08.13c-.02.01-.04.09-.07,0l-.05.36c-.09.48-.22.95-.43,1.38-.41.86-1.03,1.61-1.85,2.13-1.2.87-2.5,1.09-3.82,1.26-1.31.17-2.62.22-3.87.62-.27.11-.67.26-1.11.43-.45.19-.95.43-1.4.75-.45.31-.88.72-1.18,1.23-.15.25-.27.55-.36.88-.09.33-.13.7-.14,1.12.73,2.49,2.44,3.74,4.34,4.61,1.89.9,3.95,1.38,5.27,2.68,1.14.77,1.91,2,2,3.19.08,1.21-.49,2.37-2.13,3.3-1.29.77-2.65,1.11-4,1.33-1.36.23-2.72.29-4.05.71-.59.25-1.81.66-2.83,1.62-.52.47-.93,1.11-1.2,1.9-.14.4-.19.85-.21,1.34,0,.25,0,.5.03.77.04.27.1.55.17.84.2.37.41.7.64.99.23.3.47.56.72.79.25.23.5.43.75.6.26.17.53.31.8.43,1.08.47,2.17.6,3.28.54,1.11-.05,2.2-.22,3.23-.34,1.04-.12,2.01-.18,2.93-.08.64-.03,1.26.03,1.81.17.58.13,1.06.35,1.42.67.76.63.98,1.67.42,3.49-.21.69-.48,1.34-.79,1.96-.3.61-.64,1.19-1,1.75-.71,1.14-1.51,2.21-2.07,3.48-.19.81-.49,1.7-.41,2.85.02.29.07.6.15.92.04.16.09.34.15.5.08.14.18.28.29.43.22.29.49.6.82.93.17.16.35.33.54.5.19.17.42.35.62.5.11.05.22.11.32.16l.28.13c.18.08.36.15.54.21.35.12.7.2,1.05.24.7.08,1.33.02,1.92-.16.6-.19,1.14-.47,1.61-.82.24-.17.45-.36.66-.57.21-.21.41-.43.59-.66.73-.91,1.24-1.94,1.65-2.83.41-.9.72-1.69,1.02-2.1.15-.36.32-.71.51-1.04.19-.32.37-.67.57-.96.1-.15.19-.29.29-.42.1-.13.19-.25.28-.38.18-.25.36-.45.55-.58.18-.17.36-.28.56-.32.2-.06.41-.07.67.02.25.04.56.18.93.36.18.08.39.18.61.3.23.12.48.26.74.4.78.41,1.5.79,2.2,1.16.37.2.74.39,1.11.58.37.2.74.37,1.12.54,1.53.66,3.22,1.2,5.37.89,1.08-.13,1.98-.49,2.74-1.03.72-.53,1.3-1.21,1.61-1.93.68-1.45.46-3.09-.55-4.45-1.07-1.66-2.86-2.91-4.55-4.24-1.71-1.33-3.32-2.72-4.23-4.61-.77-2.09.1-3.42,1.38-4.37.64-.47,1.38-.82,2.06-1.05.68-.23,1.3-.35,1.69-.34,1.61-.17,3.19.19,4.8.43,1.61.25,3.25.43,4.93-.14,1.61-.37,5.06-2.93,3.31-6.36-.83-1.54-2.09-2.48-3.4-3.34-1.32-.87-2.69-1.61-3.72-2.64-1.69-1.52-2.15-3.22-1.7-4.64.45-1.43,1.81-2.57,3.75-2.92,1.28-.28,2.51-.19,3.75-.2,1.24,0,2.5-.02,3.79-.46.87-.19,1.84-.79,2.39-1.67.55-.88.68-1.97-.09-3.3-.48-.83-1.08-1.6-1.75-2.32-.66-.72-1.38-1.39-2.1-2.06-.72-.67-1.44-1.33-2.08-2.04-.63-.71-1.19-1.46-1.59-2.33-.45-.83-.62-1.71-.62-2.57,0-.43.08-.86.2-1.27.06-.21.13-.41.2-.61.08-.2.18-.39.29-.57.22-.37.45-.72.76-1.02.3-.3.63-.56.98-.77.36-.2.76-.35,1.15-.43.2-.04.4-.06.61-.06.21,0,.43.02.64.05,1.47.18,2.49,1.16,3.39,2.15.9,1.02,1.75,2.12,2.72,3.03.23.23.63.58,1.07.95.22.18.45.36.69.56.24.2.47.38.68.54.11.08.21.14.31.21.1.07.2.14.29.18.09.05.17.09.25.1.07.01.16.04.22.03.08,0,.11-.02.16-.07.04-.05.09-.08.13-.17.04-.08.08-.19.12-.33.04-.13.09-.29.14-.47.05-.24.09-.48.13-.71.05-.24.11-.48.16-.72.11-.53.23-1.05.34-1.58.05-.27.13-.55.2-.82l.2-.82c.12-.55.24-1.1.35-1.62.15-.49.3-1.11.48-1.78.18-.66.4-1.36.72-2.01.16-.32.35-.63.57-.91.22-.27.47-.51.77-.71.29-.2.63-.35,1.01-.43.38-.09.8-.14,1.28-.07.76.33,1.39.81,1.88,1.32.49.55.86,1.12,1.11,1.76.52,1.25.62,2.64.57,3.99-.05,1.35-.25,2.71-.39,3.94-.07.61-.13,1.22-.14,1.76,0,.28,0,.54,0,.79,0,.26.03.5.06.74.04.57.09,1.06.18,1.42.08.37.19.65.34.86.29.42.72.56,1.25.57.26.01.55-.03.84-.08.29-.05.6-.13.9-.22.6-.19,1.17-.47,1.61-.75.38-.12,1.12-.64,2.06-1.2.47-.28.99-.57,1.54-.83.55-.26,1.13-.46,1.71-.61.58-.16,1.16-.23,1.73-.18.58.05,1.12.24,1.64.58,1.01.69,1.84,2.06,2.06,4.19-.02.76-.13,1.42-.28,2-.16.58-.38,1.08-.63,1.53-.51.89-1.17,1.55-1.88,2.14-1.41,1.19-3.05,1.95-4.29,3.43-.88.83-1.78,2.44-1.94,4-.16,1.56.45,3.1,2.77,3.87,1.34.78,4.19.32,6.89.22,2.71-.07,5.33.48,6.33,3.31.18,2.71-.84,4.42-2.12,5.86-1.28,1.44-2.84,2.57-3.61,4.04-.95,1.24-1.59,3.05-1.25,4.98.18.96.6,1.98,1.35,2.84.76.87,1.85,1.61,3.18,1.96l-.62-.6c.64.06,1.4.03,2.26-.16,1.06-.29,2.1-.69,3.11-1.16,1.01-.49,2-1.07,2.96-1.66,1.92-1.2,3.77-2.44,5.53-3.6"/>
  <path class="cls-1" d="M152.88,382.54c1.17-.68,2.29-1.49,3.35-2.34,1.07-.85,2.08-1.76,3.06-2.67,1.96-1.82,3.8-3.84,5.45-5.6,1.05-1,1.72-1.48,2.23-1.61.26-.05.47-.04.67.08.2.09.38.29.56.51.18.22.35.52.52.83.17.31.34.66.49,1.03.31.71.59,1.48.69,2.14.26.95.4,1.94.47,2.96.08,1.02.1,2.05.24,3.05.15,1,.42,1.98,1.14,2.87.36.44.82.83,1.44,1.17.31.17.66.34,1.05.46.39.13.83.24,1.31.33.47,0,.9-.04,1.32-.08.41-.06.82-.12,1.18-.22.18-.05.36-.1.53-.16.17-.06.32-.11.51-.19.18-.07.36-.15.53-.23.18-.09.34-.18.51-.28.64-.39,1.17-.8,1.58-1.26.41-.48.7-.97.9-1.47.1-.25.17-.5.22-.75l.02-.09v-.11s0-.22,0-.22c0-.15-.01-.29-.03-.43-.06-.57-.19-1.13-.37-1.68-.37-1.09-.97-2.13-1.67-3.12-.69-.99-1.51-1.89-2.28-2.82-.77-.91-1.48-1.81-2.07-2.66-.59-.85-1.02-1.62-1.31-2.33-.14-.35-.22-.68-.23-.99,0-.15,0-.3.03-.45.02-.14.05-.29.11-.42.2-.29.42-.53.66-.76.22-.23.45-.42.71-.58.25-.17.56-.3.83-.42.28-.12.59-.22.91-.29,1.31-.3,2.83-.34,4.45-.26,1.62.11,3.26.19,4.75.24,1.48.03,2.77-.07,3.62-.59.35-.16.83-.39,1.35-.72.25-.16.56-.37.75-.56.2-.19.39-.42.57-.67.18-.26.35-.55.49-.87.13-.32.23-.68.3-1.08.07-.39.12-.83.09-1.29-.03-.46-.1-.95-.22-1.48-.43-.86-.92-1.52-1.42-2.06-.5-.53-1.05-.91-1.59-1.21-1.12-.58-2.19-.83-3.47-.93-2.53-.22-5.03-.19-7.18-1.77-.71-.5-1.13-1.12-1.32-1.76-.21-.67-.2-1.36-.08-2.06.25-1.39.98-2.7,1.6-3.31.82-1.03,1.75-1.73,2.74-2.38,1.01-.66,2.06-1.25,3.02-2.02.41-.26.97-.76,1.52-1.38.27-.31.54-.65.79-1.02.25-.36.49-.74.68-1.12.37-.77.63-1.52.51-2.29-.08-.75-.54-1.51-1.48-2.28-.69-.5-1.4-.9-2.12-1.22-.72-.33-1.47-.59-2.23-.84l-2.3-.72c-.76-.25-1.5-.54-2.21-.93-.62-.23-1.32-.69-1.94-1.34-.61-.65-1.07-1.5-1.29-2.47-.11-.48-.11-.99-.04-1.51.04-.26.09-.52.18-.79.08-.26.19-.53.34-.78.29-.51.69-1.01,1.21-1.47.13-.11.26-.23.41-.34.15-.1.31-.2.47-.3.33-.19.69-.37,1.08-.53.45-.18.89-.31,1.31-.4.21-.04.42-.08.62-.1.21-.03.42-.04.62-.05.82-.02,1.59.08,2.33.24.74.16,1.45.36,2.16.57.72.21,1.43.41,2.15.58.42.06.87.16,1.32.26.46.1.94.21,1.42.28.24.04.47.06.7.09.24.04.48.06.71.07.23,0,.45,0,.69,0,.12,0,.23-.01.34-.03l.16-.03.17-.02c.33-.23.53-.53.67-.95.07-.2.13-.43.17-.68.04-.25.08-.52.1-.81.04-.6.07-1.25.08-1.96,0-.72-.01-1.49-.02-2.25-.02-1.54-.08-3.18.01-4.56.05-.7.13-1.34.29-1.9.15-.56.38-1.04.69-1.37,1.1-2.24,3.58-3.25,5.76-3.04.54.06,1.07.18,1.56.37.49.2.94.45,1.34.76.79.63,1.38,1.47,1.67,2.48.53,1.48.32,2.95.08,4.38-.26,1.43-.56,2.84-.54,4.25.06.63.07,1.81.37,2.9.31,1.09.89,2.05,2.2,2.42,1.11-.11,2.08-.46,3.01-.92.92-.47,1.82-1.1,2.72-1.74.47-.31.91-.65,1.33-1l.63-.53c.1-.09.21-.17.3-.27,0-.04.04-.06.06-.08l.08-.06.16-.13c.84-.68,1.72-1.2,2.72-1.42.7-.3,1.46-.4,2.21-.32.75.08,1.51.33,2.12.78.62.44,1.15,1.05,1.43,1.82.15.38.25.8.28,1.25.04.45,0,.93-.1,1.44-.15.83-.42,1.54-.76,2.18-.35.64-.76,1.21-1.2,1.76-.88,1.08-1.85,2.06-2.61,3.21-.29.55-.98,1.66-1.29,2.89-.15.62-.21,1.26-.07,1.93.07.33.19.65.37.98.18.33.43.66.75.98,2.31,1.2,4.39.9,6.31.13,1.93-.75,3.74-1.87,5.56-1.86,1.2-.24,2.53.03,3.41.73.44.37.77.84.93,1.47.16.64.17,1.38-.04,2.35l-.06.27v.02s.01.04.02.05c0,0,.01.03.01.03h0s0,.03,0,.03v.08s-.01.16-.01.16c-.02.21-.05.42-.08.62-.01.1-.05.18-.05.3l-.12.21-.24.42c-.31.57-.63,1.12-.96,1.67-.66,1.1-1.34,2.15-1.78,3.41-.18.76-.47,1.62-.48,2.62,0,1,.26,2.19,1.2,3.54.52.52,1.05.88,1.56,1.11.52.21,1.02.31,1.51.28.98-.05,1.87-.5,2.68-1.13,1.6-1.25,2.88-3.07,3.69-3.52.51-.5,1.12-.93,1.74-1.22.61-.28,1.25-.47,1.82-.43.29,0,.56.06.82.19.26.13.51.29.73.55.23.27.44.57.65.98.2.42.4.9.59,1.49.27.83.47,1.6.66,2.4.09.4.18.8.27,1.2.1.39.19.78.29,1.18.1.39.22.79.35,1.19.07.2.14.4.21.6.08.19.16.39.25.58.18.39.4.77.66,1.16.13.19.27.39.42.57.16.18.32.36.51.54.36.35.73.68,1.14.9.41.22.83.39,1.25.5.43.11.86.11,1.28.09.21-.01.42-.04.63-.08.2-.05.4-.12.6-.2.39-.16.76-.35,1.08-.6.33-.26.62-.56.86-.89.12-.17.24-.33.33-.52.09-.19.18-.39.25-.59.14-.4.23-.82.26-1.26.08-.51.09-1.01.04-1.53-.04-.52-.13-1.03-.25-1.54-.24-1.02-.59-2.03-.95-3.02-.37-1.01-.74-2.03-1.09-2.98-.17-.49-.32-.93-.47-1.41-.15-.48-.27-.94-.38-1.38-.07-.43-.09-.84-.05-1.14.02-.15.06-.28.11-.39.03-.06.05-.11.07-.16.02-.05.05-.09.08-.13.12-.16.29-.26.51-.33.06,0,.11-.04.17-.08l.18-.09c.13-.05.26-.1.41-.14.29-.08.6-.13.92-.17.32-.03.66-.05.97-.08.63-.05,1.2-.02,1.57.07,1.49.15,2.93.79,4.38,1.36,1.47.57,2.91,1.04,4.6.64.39-.04.91-.23,1.48-.53.54-.31,1.12-.76,1.61-1.35.51-.59.88-1.32,1.07-2.15.09-.41.14-.86.11-1.31-.04-.46-.14-.93-.33-1.42-.36-.87-.84-1.56-1.42-2.14-.57-.58-1.22-1.05-1.88-1.49-1.33-.85-2.73-1.5-3.87-2.45-.92-.69-1.55-1.41-1.91-2.13-.37-.73-.48-1.46-.35-2.15.13-.7.5-1.36,1.09-1.93.59-.57,1.4-1.06,2.4-1.39,2.61-.96,5.26-.44,7.93-1.71.45-.16.93-.42,1.35-.77.21-.17.41-.37.59-.58.18-.21.34-.42.47-.65.26-.46.39-.99.35-1.54-.04-.54-.27-1.13-.76-1.77-.62-.8-1.36-1.44-2.19-2.07-.41-.31-.84-.6-1.28-.89l-.33-.21c-.11-.07-.21-.18-.32-.25-.22-.14-.45-.28-.68-.41-.45-.26-.93-.51-1.4-.74-.47-.24-.94-.43-1.39-.7-.9-.53-1.71-1.15-2.36-1.94-1.37-1.42-1.65-3.46-.93-5.12.7-1.69,2.37-2.88,4.43-2.96,1.78-.14,3.18.51,4.48,1.26,1.3.75,2.53,1.65,3.88,2.26.32.16.87.38,1.5.59.32.1.65.2.99.28.34.09.68.17,1.01.21.16.02.32.03.47.05.15.01.3.02.44,0,.28-.02.53-.09.75-.19.22-.11.39-.3.53-.54.07-.12.13-.27.18-.45.05-.16.1-.35.13-.57.07-1.98-.4-4.42-.67-6.59,0-.52-.06-1.17-.06-1.88,0-.71.04-1.51.29-2.25.12-.38.3-.75.53-1.11.12-.18.25-.36.41-.52.16-.16.33-.32.53-.46.4-.29.87-.58,1.45-.75.58-.18,1.25-.34,2.01-.33.62.11,1.19.25,1.68.47.49.21.93.43,1.31.69.37.27.68.55.95.85.13.15.25.29.36.45.11.15.2.32.28.48.33.66.5,1.32.57,1.99.06.68.02,1.37-.08,2.05-.19,1.36-.56,2.65-.86,3.89-.15.62-.28,1.2-.36,1.74-.04.27-.07.52-.08.78-.02.26-.01.51,0,.75-.02,1.15.13,1.92.49,2.35.18.24.4.43.66.55.26.12.57.18.89.22.64.08,1.39-.02,2.13-.18.71-.15,1.41-.38,1.94-.64.45-.09,1.38-.57,2.56-1.08,1.18-.52,2.62-1.03,4.04-1.22.71-.09,1.43-.1,2.11,0,.34.06.68.14,1,.26.31.13.6.29.87.49.27.2.53.44.75.73.22.28.44.6.58.98.15.37.26.79.34,1.26.07.46.12.96.07,1.51-.17.77-.39,1.41-.67,1.97-.27.56-.62,1.04-.98,1.45-.72.82-1.56,1.38-2.43,1.86-1.74.94-3.62,1.59-5.14,2.9-.53.37-1.06.92-1.52,1.59-.46.68-.82,1.41-.98,2.18-.16.79-.11,1.54.27,2.3.19.37.46.72.83,1.04.37.33.84.63,1.41.88,1.29.96,4.23.76,6.96,1.01,1.37.12,2.69.42,3.73,1.01.52.3.97.67,1.33,1.14.18.23.34.49.46.78.06.14.12.3.17.46.05.15.1.32.14.49-.03.63-.15,1.22-.28,1.74-.07.26-.15.51-.24.76-.09.24-.19.49-.31.68-.12.21-.25.41-.38.6-.12.19-.25.38-.38.58-.26.41-.52.82-.82,1.19-1.19,1.49-2.63,2.59-3.36,4.01-.54.69-.93,1.6-1.17,2.56-.2.98-.24,2.04.04,3.07.51,2.02,2.21,3.88,4.87,3.61.24-.04.48-.09.71-.15.24-.06.48-.13.71-.21.47-.16.93-.35,1.38-.56.91-.42,1.77-.94,2.62-1.48.86-.55,1.69-1.14,2.5-1.73.4-.3.8-.59,1.19-.88.39-.3.78-.59,1.16-.88"/>
  <path class="cls-1" d="M322.06,353.59c.46-.34.92-.74,1.35-1.15.44-.41.87-.84,1.28-1.28.84-.88,1.64-1.82,2.42-2.76.78-.96,1.58-1.93,2.34-2.86.38-.45.77-.9,1.15-1.35.19-.22.38-.43.55-.66.15-.24.3-.48.45-.71.7-1.07.98-1.61,1.18-1.85.1-.1.17-.11.24-.04.04.04.07.09.11.17l.03.06.07.06s.09.1.14.15c.18.21.36.46.54.76.18.3.36.61.53.96.35.69.66,1.4.82,2.03.32.9.56,1.86.74,2.84.19.98.33,1.99.57,2.96.24.98.58,1.91,1.26,2.7.34.4.76.76,1.3,1.03.27.14.57.27.9.36.33.09.69.16,1.09.21,1.49-.19,2.64-.79,3.41-1.52.38-.37.68-.79.91-1.22.21-.44.36-.91.43-1.39.14-.97.03-1.98-.27-3.02-.29-1.03-.73-2.08-1.26-3.11-1.05-2.04-2.38-4.05-3.33-5.76-.24-.43-.46-.84-.64-1.23-.18-.39-.33-.77-.44-1.12-.21-.7-.24-1.33.01-1.89.83-1.22,1.9-1.88,3.15-2.13,1.24-.24,2.64-.11,4.02.27,1.39.36,2.77.91,4,1.31,1.24.41,2.33.66,3.14.47.64-.08,1.78-.22,2.87-.85,1.09-.62,2.13-1.74,2.49-3.64-.25-3.49-2.11-5.02-4.09-6.4-2-1.35-4.16-2.46-5.27-5-.75-1.64-.25-3.1.69-4.21.94-1.11,2.3-1.87,3.2-2.07,2.62-.93,5-.35,7.49-.55.99.04,2.97-.42,4.42-1.07.72-.32,1.31-.71,1.57-1.16.03-.06.06-.12.08-.18.02-.05.04-.11.05-.18.03-.14.02-.25,0-.4-.02-.16-.07-.28-.14-.47-.03-.1-.08-.17-.12-.27-.04-.09-.09-.2-.15-.31l.97-1.01-.02-.07c-.28-.76-.65-1.49-1.05-2.18-.41-.7-.85-1.35-1.32-1.99-.46-.64-.95-1.27-1.4-1.92-.45-.65-.88-1.33-1.19-2.07-.34-.56-.6-1.35-.66-2.26-.03-.45.02-.92.12-1.4.11-.48.26-.98.54-1.44.27-.46.6-.91,1.04-1.3.45-.38.97-.72,1.57-.98.63-.24,1.31-.4,2.06-.43.38,0,.78.03,1.18.09.2.03.4.07.61.12.21.05.42.12.63.19,1.92.69,2.91,1.94,3.66,3.18.37.63.68,1.29.99,1.94.31.65.62,1.32.95,1.95.11.18.22.36.32.55.1.2.21.4.32.61.22.42.44.84.68,1.23.24.41.5.81.78,1.15.14.19.29.36.44.51.16.15.32.32.5.44.1.01.2.04.29.04.1,0,.19,0,.29-.02.19-.04.39-.07.59-.16.21-.1.41-.2.63-.33.22-.13.45-.31.69-.48.47-.34.99-.79,1.53-1.26.54-.46,1.1-.97,1.68-1.5,1.17-1.06,2.34-2.15,3.46-3.02.56-.43,1.11-.8,1.64-1.06.52-.25,1.01-.4,1.48-.4,1.23-.36,2.43-.21,3.52.21.53.22,1.03.52,1.48.87.44.36.82.78,1.15,1.23.62.91.99,1.96,1,3,.04,1.03-.29,2.05-.87,2.92-.85,1.37-2.13,2.14-3.4,2.85-1.29.7-2.57,1.34-3.68,2.22-.23.21-.57.51-.96.85-.38.35-.77.74-1.12,1.19-.17.22-.33.46-.45.69-.06.12-.12.24-.16.37-.05.14-.09.28-.12.43-.06.29-.07.6-.04.92.03.31.11.64.27.99.21.22.43.43.65.62.2.18.41.34.64.49.44.3.92.55,1.42.75.98.42,2.03.67,3.13.85,2.17.38,4.46.55,6.04,1.77.66.34,1.23.86,1.65,1.48.4.62.66,1.35.72,2.1.05.74-.11,1.49-.48,2.19-.38.69-1.01,1.3-1.88,1.8-1.41.85-2.81,1.04-4.18,1.12-1.38.08-2.74,0-4.1.25-.6.17-1.86.42-2.95,1.09-.55.33-1.05.78-1.42,1.39-.18.31-.33.65-.43,1.04-.1.4-.15.85-.14,1.35.1.34.22.65.35.95.13.3.28.58.44.83.32.51.68.93,1.08,1.28.81.72,1.75,1.16,2.7,1.54.96.37,1.95.63,2.88.94.93.32,1.81.66,2.51,1.19.53.28,1,.66,1.39,1.09.4.42.69.9.81,1.4.06.25.11.49.1.75,0,.13-.02.26-.06.39-.03.1-.08.19-.14.29-.24.15-.59,1.15-1.27,1.84-1,1.11-2.09,1.78-3.2,2.39-1.11.62-2.24,1.16-3.27,1.96-.56.55-1.25,1.07-1.8,1.9-.55.82-.97,1.95-.87,3.74.35,1.56,1.13,2.57,2.03,3.09.23.13.46.23.7.31.24.08.48.13.73.17.49.06.99.04,1.49-.05.99-.17,1.95-.56,2.79-.92.83-.37,1.52-.7,1.96-.79.65-.29,1.32-.49,1.94-.63.15-.03.3-.06.45-.08.15-.02.29-.05.43-.06.14-.01.26-.01.38,0,.12,0,.24,0,.35.03.11.02.21.05.3.09.1.04.19.08.27.15.15.14.3.3.4.56.11.25.2.56.26.97.08.39.13.89.18,1.48.04.4.06.81.08,1.21.01.41.04.79.04,1.19,0,.78.02,1.6.09,2.38.07.79.19,1.61.45,2.41.13.4.3.8.51,1.21.11.2.23.41.36.61.14.17.3.28.47.42.32.27.68.5,1.07.66.39.16.8.29,1.23.32.21.01.43.01.65,0,.18,0,.35-.01.52-.04.17-.02.34-.06.51-.1.17-.06.34-.12.51-.2,1.32-.58,2.4-1.91,2.84-3.55.31-.98.42-1.97.44-2.98,0-1-.1-2.01-.2-3.04-.22-2.06-.42-4.1-.21-6,.03-.12.05-.23.08-.34.03-.11.06-.22.08-.32.06-.2.13-.37.2-.52.08-.15.16-.28.26-.39.09-.12.19-.22.3-.31.44-.32,1-.46,1.63-.45.62-.01,1.31.09,1.92.25.61.13,1.12.36,1.43.55,1.35.64,2.39,1.62,3.62,2.61.68.52,1.38,1.03,2.16,1.44.77.41,1.63.72,2.58.84.43.11,1.04.1,1.73-.01.68-.11,1.41-.35,2.09-.74,1.33-.77,2.4-2.14,2.22-4.14-.21-1.8-1.08-3.15-2.04-4.42-.95-1.3-1.99-2.48-2.6-3.81-1.03-2-.94-3.77.05-4.95.49-.58,1.23-1.02,1.99-1.28.8-.26,1.69-.32,2.66-.13,1.27.21,2.35.75,3.5,1.24.57.25,1.13.49,1.72.7.59.2,1.2.38,1.84.49.84.19,1.9.13,2.61-.21.18-.09.34-.2.48-.34.14-.13.25-.28.33-.48.08-.19.14-.44.17-.69,0-.07.01-.13.02-.2v-.11s0-.06,0-.06c0-.02,0-.03.01-.07.11-.26.19-.49.26-.74.04-.16.08-.31.11-.47.02-.16.04-.32.05-.47.03-.31.04-.61,0-.87-.15-.44-.31-.89-.46-1.34-.32-.9-.7-1.81-1.01-2.75-.63-1.87-1.23-3.75-.96-5.75.03-.49.14-.95.3-1.4.16-.45.37-.88.63-1.26.26-.39.56-.75.9-1.06.34-.31.7-.58,1.08-.78.38-.21.78-.37,1.18-.45.4-.09.8-.12,1.18-.06.38.05.78.14,1.14.33.36.19.69.42.99.75,1.06,1.07,1.32,2.5,1.49,3.93.15,1.44.25,2.86.53,4.25.06.33.19.87.36,1.45.09.3.17.61.26.91.09.28.18.58.28.86.09.27.19.5.29.7.05.1.1.18.16.25.06.07.11.13.17.17.26.15.56.05,1.18-.41.16-.15.33-.31.51-.48.18-.17.36-.34.54-.51.38-.38.76-.76,1.14-1.13.75-.77,1.56-1.6,2.28-2.34.37-.32.84-.72,1.35-1.16.26-.21.54-.42.83-.61.29-.19.59-.35.91-.49.32-.13.66-.23,1.02-.27.35-.04.72-.02,1.11.07.39.08.76.27,1.16.54.4.26.76.64,1.13,1.12.42.95.63,1.84.66,2.65.05.81-.08,1.54-.29,2.2-.21.66-.54,1.24-.92,1.78-.38.54-.82,1.02-1.29,1.48-.94.92-1.98,1.73-2.89,2.54-.45.41-.88.81-1.24,1.22-.18.21-.34.41-.49.63-.16.21-.3.43-.42.64-.34.51-.58.94-.73,1.32-.15.39-.25.74-.25,1.05,0,.31.09.58.2.84.12.26.3.5.52.72.22.22.5.41.78.6.28.19.59.35.9.5.63.29,1.29.49,1.83.57.4.17,1.34.3,2.5.46,1.16.17,2.53.43,3.76.95.62.26,1.18.58,1.67.98.49.39.9.86,1.18,1.43.27.55.41,1.2.37,1.94-.04.73-.27,1.54-.73,2.44-1.7,2.33-3.59,2.96-5.5,3.26-1.92.29-3.87.27-5.74,1.11-.61.19-1.32.59-1.97,1.17-.64.6-1.24,1.34-1.62,2.22-.37.9-.56,1.85-.32,2.88.11.51.31,1,.62,1.48.33.49.76.96,1.33,1.38.15.15.33.38.54.55.21.17.44.32.7.46.25.14.56.25.86.35.15.05.31.09.47.14l.24.06c.08.03.16.02.25.07,1.29.09,2.77.14,4.2.32,1.43.17,2.81.43,3.9,1,1.1.57,1.9,1.41,2.27,2.71-.04,1.22-.3,2.22-.72,3.13-.41.91-.97,1.72-1.58,2.49-.6.77-1.27,1.5-1.84,2.23-.57.73-1.08,1.48-1.32,2.3-.44.84-.68,1.89-.6,3.03.05.57.14,1.16.37,1.74.11.29.23.58.37.86.15.28.33.55.52.82.75,1.06,1.91,1.95,3.21,2.35.66.19,1.36.27,2.06.22.71-.07,1.42-.26,2.11-.62.99-.6,1.82-1.33,2.56-2.15.74-.83,1.38-1.72,1.95-2.65.57-.92,1.1-1.91,1.58-2.86.23-.48.46-.96.69-1.42.22-.47.43-.94.65-1.41"/>
  <path class="cls-1" d="M483.55,396.46c.14-.28.26-.57.37-.86.06-.14.1-.31.15-.48l.13-.51c.16-.68.28-1.36.36-2.03.17-1.35.23-2.68.21-3.99-.02-1.3-.13-2.62-.3-3.84-.08-.62-.1-1.25-.15-1.85-.04-.61-.08-1.21-.11-1.82.02-.71.08-1.27.18-1.71.09-.46.22-.79.4-1.02.19-.22.39-.39.65-.47.13-.04.26-.06.41-.07.15,0,.3,0,.46.02.62.06,1.4.33,2.12.63.73.31,1.45.72,1.95,1.16.81.55,1.55,1.23,2.26,1.95.71.72,1.4,1.5,2.17,2.16.77.66,1.61,1.22,2.66,1.5.53.14,1.11.21,1.77.17.64-.04,1.34-.2,2.12-.48.64-.41,1.12-.84,1.53-1.3.4-.45.66-.92.85-1.38.09-.23.17-.46.21-.68.04-.23.06-.45.06-.68,0-.45-.07-.89-.21-1.32-.6-1.72-2.18-3.34-3.98-4.87-.89-.77-1.83-1.52-2.72-2.25-.89-.73-1.74-1.47-2.44-2.2-.35-.36-.67-.72-.94-1.08-.27-.36-.5-.72-.68-1.08-.34-.7-.46-1.44-.26-2.18.74-1.72,1.83-2.78,3.1-3.33,1.27-.54,2.73-.65,4.19-.5,2.92.29,5.88,1.4,7.48.81.64-.14,1.75-.4,2.75-.99.25-.15.49-.32.71-.52.22-.19.43-.41.61-.66.09-.13.17-.26.25-.4.08-.14.15-.28.21-.44.13-.3.21-.67.26-1.04-.06-.36-.14-.7-.23-1.03-.09-.33-.2-.62-.32-.92-.12-.29-.26-.57-.4-.84-.15-.27-.3-.52-.46-.77-.66-.99-1.49-1.85-2.33-2.68-.84-.84-1.7-1.66-2.38-2.66-.34-.51-.63-1.06-.82-1.69-.1-.32-.17-.65-.23-1.01-.05-.36-.08-.74-.05-1.15,0-.13.01-.26.03-.39l.03-.19s0-.04,0-.06l-.02-.05c-.05-.13-.08-.25-.1-.35-.02-.11-.05-.2-.05-.29l.02-.11s.04-.11.06-.16c.05-.12.1-.23.16-.34.46-.88,1.13-1.6,1.86-2.13.73-.54,1.51-.88,2.21-1.05.35-.08.68-.13.98-.14.3-.01.56.01.78.06.34.03.66.08.96.16.31.08.6.18.88.3.28.12.54.25.79.39.26.15.5.31.75.47.48.32.94.66,1.4,1.01.46.35.91.71,1.37,1.04.35.31.92.69,1.53,1.07.61.38,1.26.77,1.83,1.05.14.07.28.13.41.18.13.06.26.1.38.13.06.01.12.02.18.03.06.01.12.02.17.02.11,0,.22-.03.33-.07.42-.15.79-.62,1.29-1.59.17-.36.33-.7.48-1.03.16-.36.32-.71.47-1.06.31-.7.6-1.43.9-2.16.29-.71.59-1.43.92-2.14.34-.7.72-1.39,1.2-1.99.16-.27.38-.56.66-.82.28-.26.62-.52.99-.71.38-.2.81-.34,1.27-.46.45-.09.94-.12,1.45-.07.5.06.99.21,1.49.44.48.25.93.59,1.35,1.02.39.45.75.98,1.01,1.61.13.32.23.66.32,1.02.09.36.15.74.17,1.15.04.94-.07,1.74-.3,2.46-.23.73-.55,1.37-.9,1.98-.71,1.22-1.54,2.3-2.22,3.55-.34.76-.81,1.56-1.12,2.51-.16.48-.27.98-.29,1.52-.02.27,0,.54.02.84.02.29.06.6.13.91.14.27.33.48.5.69.18.2.38.37.6.5.22.14.47.24.73.33.26.08.53.16.81.2,1.14.17,2.56.05,3.96-.22,1.41-.26,2.84-.64,4.09-.88,1.25-.24,2.32-.34,2.99-.03.52.05,1,.18,1.43.36.43.18.82.43,1.13.71.32.28.59.61.8.98.11.18.2.37.29.56.08.19.14.39.19.59.2.8.18,1.67-.08,2.49-.26.82-.73,1.62-1.43,2.29-2.02,2.17-4.94,2.38-7.16,3.97-.47.4-1.41,1.07-2.08,2.06-.66,1-1.06,2.33-.33,4.1.91,1.13,1.9,1.78,2.97,2.12,1.05.34,2.13.36,3.19.28,1.07-.08,2.13-.31,3.14-.45.51-.07,1-.13,1.48-.15.24,0,.47-.02.69-.04.21,0,.43-.02.64-.03.32-.06.64-.1.92-.14.07,0,.14-.03.22-.02l.26.08c.17.06.34.14.5.21.62.29,1.19.76,1.56,1.25.39.52.6,1.07.62,1.73,0,.31-.04.66-.15,1.03-.1.38-.26.74-.48,1.17-.17.34-.36.66-.56.96-.2.3-.41.58-.63.86-.44.55-.93,1.06-1.43,1.55-1,.99-2.08,1.89-2.9,3.05-.16.29-.42.71-.67,1.24-.26.54-.48,1.18-.54,1.91-.03.36-.03.75.02,1.15.06.4.2.81.4,1.22.2.42.46.85.85,1.24.19.2.4.4.63.59.23.19.48.39.77.55.44.14.86.24,1.26.31.4.07.77.12,1.13.1.72-.02,1.35-.14,1.92-.34.56-.2,1.06-.52,1.51-.86.45-.35.85-.74,1.23-1.15.75-.82,1.38-1.73,2.01-2.55.63-.83,1.28-1.62,1.98-2.19.21-.24.45-.45.66-.65.11-.1.22-.19.33-.28.11-.09.19-.19.28-.28.36-.35.67-.61.94-.7.28-.13.53-.14.82.1.07.05.15.12.23.21.04.05.08.09.13.14.04.05.09.11.16.16.24.22.52.52.81.86.22.26.44.53.64.8.21.26.4.54.6.81.39.56.75,1.1,1.12,1.67.73,1.13,1.42,2.26,2.45,3.23.68.48,1.39,1.13,2.43,1.46,1.03.32,2.47.39,4.35-.51,1.57-1.08,2.25-2.38,2.39-3.58.15-1.2-.24-2.33-.8-3.32-.56-.99-1.31-1.88-1.96-2.62-.66-.75-1.22-1.36-1.45-1.81-.51-.6-.93-1.27-1.24-1.95-.3-.68-.49-1.37-.47-2,.04-1.29.87-2.42,3.26-3.28,1.63-.59,3.18-.78,4.75-1.05,1.56-.27,3.14-.6,4.72-1.63,1.59-.97,2.37-2.41,2.41-3.77.04-1.37-.65-2.66-1.95-3.63-1.43-1.25-3.36-1.98-5.23-2.88-.93-.45-1.85-.94-2.67-1.56-.82-.62-1.56-1.41-2.1-2.47-.41-1.02-.47-2.04-.24-3.08.24-1.04.76-2.09,1.63-3.23l-.67,1.86c.33-.5.7-.97,1.1-1.34.41-.37.82-.67,1.22-.9.82-.45,1.57-.63,2.01-.62,1.59-.19,3.06.42,4.54.88.74.24,1.49.47,2.26.63.77.17,1.53.26,2.33.26.37.04.86.02,1.36-.05.51-.06,1.01-.18,1.46-.37.22-.1.41-.22.58-.36.17-.13.3-.32.4-.51.2-.4.25-.93.11-1.73-.07-.35-.16-.72-.27-1.09-.11-.37-.22-.72-.35-1.09-.26-.74-.57-1.49-.87-2.23-.6-1.49-1.26-3.01-1.36-4.57-.15-1.22.07-2.27.53-3.12.24-.41.53-.78.87-1.07.35-.28.73-.5,1.14-.64.42-.12.86-.18,1.29-.17.44.04.89.15,1.31.33.42.19.83.48,1.19.82.36.33.69.76.97,1.24.39.62.65,1.24.87,1.91.21.67.37,1.34.51,2.01.14.67.28,1.33.42,2.01.14.68.3,1.35.47,1.99.09.46.23.93.4,1.33.08.19.18.41.28.58.1.18.21.32.33.44.12.13.26.24.41.3.15.06.31.07.5.08.37,0,.83-.22,1.4-.6.72-.5,1.42-1.14,2.1-1.8.68-.67,1.34-1.41,1.99-2.19.33-.38.65-.76.98-1.13.33-.36.65-.72.99-1.05.68-.66,1.39-1.23,2.2-1.61.19-.11.38-.2.58-.27.19-.07.38-.12.57-.16.38-.07.76-.1,1.13-.07.76.06,1.44.38,2.04.86,1.21.94,1.93,2.71,1.72,4.63-.16,1.7-.89,2.95-1.72,4.12-.83,1.18-1.78,2.22-2.45,3.48-.33.58-1,2.1-1.13,3.53-.03.36-.03.7.03,1.05.05.35.16.68.33.98.17.3.42.57.75.81.33.25.75.46,1.28.63,1.14.17,2.28.09,3.35-.23,1.08-.31,2.1-.78,3.05-1.21.96-.3,2.28-1.02,3.69-1.29.7-.15,1.44-.2,2.16-.03.72.16,1.45.54,2.13,1.21.39.7.62,1.39.74,2.05.11.65.1,1.28,0,1.91-.2,1.27-.74,2.47-1.39,3.67-.64,1.21-1.39,2.38-1.94,3.54-.55,1.17-.87,2.33-.67,3.55.02.36.07.71.13,1.03.07.32.17.61.28.88.23.54.53,1,.87,1.38.17.19.35.36.55.5.2.14.41.26.63.37.43.21.89.34,1.35.42.46.08.92.08,1.37.02.45-.07.89-.18,1.29-.32.81-.29,1.51-.7,1.97-1.11.46-.21,1.24-.96,2.19-1.86.95-.88,2.06-2.01,3.17-2.92.56-.45,1.11-.89,1.64-1.22.27-.17.53-.3.78-.43.26-.12.51-.22.76-.28.12-.03.24-.05.37-.06.12-.02.24-.03.36-.02.24,0,.47.06.71.14.23.08.47.22.71.4.24.17.49.41.76.68.33.48.62.97.88,1.44.13.24.25.48.36.73.11.24.22.47.31.72.39.96.65,1.96.85,2.95.2,1,.34,2.01.58,3,.25,1,.6,1.95,1.36,2.81.19.29.47.6.84.88.37.27.82.53,1.36.75.53.22,1.14.37,1.81.47.67.1,1.39.1,2.14.04,1.48-.16,3.08-.65,4.35-1.68.64-.48,1.19-1.09,1.62-1.75.42-.67.71-1.42.84-2.21.39-1.08.08-2.23-.53-3.44-.3-.6-.67-1.21-1.06-1.83-.4-.61-.81-1.24-1.21-1.86-.79-1.23-1.54-2.43-1.97-3.53-.11-.28-.2-.55-.26-.81-.06-.26-.11-.53-.12-.79,0-.25,0-.52.05-.77.02-.13.07-.26.11-.39.04-.13.09-.27.15-.4.77-.8,1.61-1.38,2.49-1.91.9-.52,1.82-.93,2.8-1.26.97-.32,1.93-.64,2.86-.95.23-.05.45-.07.66-.06.05.01.11-.02.16-.04l.16-.06.32-.12c.4-.16.68-.3.98-.51.72-.31,1.38-.85,1.93-1.59.27-.37.49-.77.68-1.21.19-.44.32-.9.4-1.38.3-1.92-.34-4.02-2.71-5.25-1.81-.82-3.81-1.23-5.85-1.56-2.11-.3-4.28-.49-6.25-.94"/>
  <path class="cls-1" d="M670.27,343.63c-2.3-.61-4.7-.74-7.18-1.05-1.23-.15-2.49-.3-3.71-.54-1.2-.24-2.37-.56-3.5-1-2.63-1.34-3.04-3.28-2.53-4.93.25-.82.74-1.55,1.31-2.11.56-.55,1.2-.93,1.9-1.11,1.89-.77,4.03-.69,6.05-1.04,1.01-.19,2-.41,2.94-.88.95-.46,1.83-1.16,2.7-2.16.24-.51.41-.95.49-1.35.08-.41.09-.77.02-1.1-.15-.67-.55-1.22-1.2-1.73-.65-.51-1.48-.95-2.47-1.39-.99-.44-2.11-.85-3.27-1.27-2.32-.89-4.85-1.64-6.71-2.84-.47-.3-.89-.62-1.27-.98-.37-.36-.67-.75-.9-1.18-.23-.43-.4-.89-.46-1.4-.05-.51-.02-1.05.12-1.64.25-.69.58-1.31.9-1.87.16-.28.33-.54.53-.79.1-.12.19-.24.28-.36l.14-.17c.04-.06.12-.15.17-.22.24-.32.48-.59.72-.84.12-.12.23-.25.36-.35.14-.1.28-.2.41-.3.27-.2.54-.38.81-.54.14-.08.27-.15.4-.23.13-.06.23-.1.35-.14.46-.17.9-.28,1.36-.34.46-.07.91-.08,1.35-.07.88.04,1.71.22,2.49.49.39.14.77.28,1.14.46.38.18.74.37,1.09.57.71.39,1.37.81,1.99,1.19,1.24.76,2.31,1.4,3.14,1.59.31.12.75.28,1.24.46.24.08.49.17.73.25.25.08.51.18.75.24.25.07.48.13.7.16.23.05.45.08.65.07.2-.03.4-.04.58-.11.09-.04.18-.09.27-.15.1-.05.19-.12.28-.2.06-.13.11-.26.17-.39.06-.13.12-.26.18-.38.12-.26.23-.53.33-.81.23-.52.43-1.09.61-1.68.38-1.14.64-2.37.9-3.63.26-1.24.52-2.49,1.09-3.69.29-.6.66-1.19,1.16-1.71.25-.27.53-.52.86-.75.16-.12.33-.23.52-.34.18-.1.37-.2.57-.3.52-.25,1.07-.43,1.6-.51.53-.07,1.06-.07,1.58,0,.5.08.99.22,1.44.4.46.18.86.43,1.24.7.38.26.71.57,1,.88.29.32.54.63.74.96.39.65.63,1.26.7,1.75.19.72.27,1.39.27,2.05,0,.67-.07,1.31-.17,1.93-.19,1.25-.5,2.49-.64,3.73-.11.5-.16,1.26-.13,2.07,0,.41.04.84.09,1.26.05.42.12.84.23,1.22.2.78.53,1.44,1.03,1.85.51.41,1.24.56,2.3.35.33-.09.65-.18.97-.25l.31.43c1.4-.25,2.75-.73,4.05-1.23,1.31-.5,2.62-1.05,4.02-1.26.62-.17,1.44-.21,2.3-.05.84.16,1.74.53,2.45,1.12,1.45,1.17,2.2,3.25.88,5.91-.79,1.51-1.89,2.42-3.04,3.21-1.16.77-2.36,1.49-3.41,2.41-.56.6-1.27,1.22-1.8,2.09-.53.87-.88,1.96-.71,3.58.52,1.52,1.52,2.43,2.72,2.89,1.21.47,2.63.5,4.07.34,2.87-.27,5.8-1.17,7.06-.79,2.03.03,3.19.82,3.57,1.87.38,1.06.02,2.46-.97,3.99-.71,1.21-1.63,2.18-2.57,3.1-.94.93-1.91,1.82-2.56,3.01-.21.48-.61,1.28-.77,2.31-.08.52-.08,1.08.03,1.68.06.3.14.61.27.92.07.15.14.31.22.46l.13.23.07.12.04.06.02.03h0s0,.02,0,.02h0s-.01,0-.01,0l-.04-.05c.03.08.07.16.12.24.11.15.25.33.38.47.13.15.28.29.43.43.37.23.72.38,1.06.51.33.11.65.19.94.24.6.07,1.13.04,1.62-.1.98-.26,1.77-.87,2.5-1.56.72-.69,1.4-1.45,2.06-2.14.66-.69,1.32-1.32,2.02-1.74.98-.83,2.03-1.23,2.83-1.06.81.18,1.38.98,1.73,2.78.31,1.44.38,2.86.37,4.26,0,1.4-.08,2.81.17,4.22.09.31.2.8.4,1.35.1.28.22.57.37.87.15.29.34.59.56.87.44.58,1.04,1.07,1.84,1.39.4.14.85.24,1.34.26.25,0,.51-.02.77-.05.27-.03.55-.09.83-.19.36-.23.68-.46.96-.71.28-.26.52-.53.73-.8.21-.27.38-.55.53-.83.15-.28.26-.56.35-.84.19-.55.26-1.14.28-1.7.02-.56-.03-1.12-.11-1.66-.16-1.08-.46-2.17-.71-3.18-.26-1.01-.47-1.96-.57-2.86-.14-.61-.22-1.2-.24-1.76,0-.27,0-.53.03-.75.03-.24.08-.46.16-.65.04-.09.09-.18.14-.25.04-.08.1-.15.16-.21s.14-.11.22-.16c.08-.05.18-.06.28-.12.21-.09.46-.14.78-.16.31-.03.68-.05,1.11,0,.65.05,1.25.13,1.85.28.6.14,1.18.32,1.74.52,1.13.38,2.26.89,3.47,1.08.72.02,1.53.16,2.4-.04.87-.2,1.84-.74,2.78-2.09.33-.69.48-1.33.54-1.94.04-.61-.03-1.18-.19-1.7-.17-.52-.42-1.01-.72-1.45-.31-.44-.68-.83-1.07-1.2-1.56-1.45-3.58-2.39-4.23-3.14-1.21-.87-2.25-2.23-2.48-3.65-.23-1.42.37-2.97,2.55-4.25,1.49-.89,2.97-1.23,4.45-1.57,1.49-.31,2.98-.66,4.5-1.53,1.53-.83,2.33-1.92,2.48-3.05.15-1.13-.35-2.34-1.46-3.48-.61-.7-1.32-1.37-2.11-2-.79-.63-1.65-1.24-2.5-1.89-.84-.65-1.67-1.34-2.39-2.15-.74-.78-1.28-1.75-1.59-2.99-.03-.17-.05-.34-.06-.5,0-.17,0-.33,0-.49.01-.32.05-.63.12-.93.07-.3.14-.58.26-.86.12-.27.25-.53.4-.78.15-.25.32-.48.49-.69.18-.21.39-.41.6-.59.21-.18.43-.35.66-.5l.34-.21.36-.19c.49-.23.97-.41,1.44-.52.47-.12.95-.17,1.37-.19.42-.02.8,0,1.12.06.33.05.6.14.79.23.85.26,1.56.69,2.21,1.19.65.51,1.24,1.1,1.85,1.69.6.59,1.2,1.18,1.83,1.73.63.55,1.27,1.03,1.95,1.52.15.12.33.25.52.39.09.06.19.13.3.19.1.07.2.14.31.21.21.14.42.27.61.38.2.12.39.24.56.32.17.07.33.16.47.18.07.02.14,0,.2,0,.07,0,.13-.02.19-.05.06-.03.12-.09.18-.14.06-.05.12-.13.18-.22.12-.2.25-.43.4-.77.07-.16.14-.32.2-.48.07-.16.14-.32.21-.48.14-.33.28-.68.43-1.05.28-.7.59-1.44.89-2.2.31-.76.62-1.5,1-2.21.37-.7.81-1.38,1.36-1.93.41-.44.85-.8,1.33-1.06.47-.27.95-.41,1.45-.49.5-.08.98-.05,1.45.05.23.05.47.11.68.21.21.1.42.21.62.34.2.13.39.27.57.43.17.16.33.34.48.53.29.38.54.79.69,1.25.16.46.26.95.28,1.46.01.52-.05,1.05-.17,1.59-.07.36-.17.7-.29,1.03-.12.33-.26.66-.41.97-.3.63-.64,1.22-.97,1.81-.67,1.16-1.37,2.39-1.85,3.71-.2.44-.35.93-.42,1.41-.03.24-.06.48-.06.72,0,.24.02.46.08.67.06.21.12.42.23.6.11.19.25.33.44.49.38.34.93.56,1.69.67,1.91.24,3.94-.2,5.92-.67,1-.23,1.99-.49,2.97-.61.98-.13,1.96-.18,2.88-.02.91.09,1.7.41,2.34.9.62.48,1.06,1.11,1.32,1.83.25.7.29,1.48.13,2.27-.17.77-.56,1.55-1.16,2.28-2.01,2.56-5.01,2.79-7.33,4.49-.56.38-1.77,1.5-2.39,2.91-.31.71-.45,1.52-.3,2.33.07.41.24.84.49,1.25.26.42.59.82,1.06,1.22,2.08,1.33,4.42,1.05,6.4.74.48-.01,1.08-.11,1.72-.19.64-.09,1.34-.16,2.03-.15.69.01,1.36.14,1.96.43.31.14.6.31.87.55.27.23.5.53.74.86.1.34.16.67.19,1,.02.16.02.33.03.49,0,.16,0,.31,0,.46-.02.61-.14,1.21-.33,1.81-.02.03-.01.09-.02.14v.16c-.02.1-.03.2-.04.31l-.02.15s-.01.11-.03.13l-.11.19c-.16.25-.32.52-.48.79-.33.53-.69,1.07-1.06,1.62-.72,1.09-1.49,2.2-2.01,3.38-.26.59-.46,1.21-.56,1.83-.05.31-.07.64-.06.96.01.32.05.65.13.99.22,1.59.85,2.78,1.63,3.6.79.8,1.73,1.22,2.64,1.3.91.1,1.78-.11,2.5-.48.71-.36,1.28-.88,1.62-1.35.19-.14.42-.43.69-.81.27-.39.57-.87.88-1.41.31-.54.66-1.12,1.01-1.72.36-.6.72-1.21,1.06-1.78.35-.58.69-1.13,1.01-1.59.32-.48.62-.86.91-1.14.14-.13.28-.24.42-.31.14-.06.28-.11.43-.1.16.02.31.03.5.13.09.05.19.08.3.15.11.06.23.14.35.21.72.67,1.46,1.27,2.14,1.97.68.69,1.3,1.41,1.88,2.18.59.77,1.12,1.57,1.73,2.29.61.72,1.31,1.39,2.25,1.77.27.16.6.28.99.37.39.08.84.12,1.3.08.46-.04.98-.13,1.48-.3.25-.09.5-.19.76-.32l.38-.2.19-.11.16-.1c.43-.27.84-.59,1.22-.98.37-.39.67-.83.92-1.33.25-.49.41-1.05.48-1.65.04-.3.05-.61.04-.93-.02-.32-.06-.66-.14-1-.04-1.86-2.13-3.91-3.83-6.09-.86-1.1-1.64-2.22-2.06-3.36-.22-.57-.34-1.14-.34-1.73,0-.6.13-1.19.41-1.85.2-.24.41-.45.61-.65.2-.2.41-.38.62-.54.43-.32.86-.58,1.3-.78.89-.4,1.8-.58,2.7-.67,1.82-.16,3.59.06,5.03-.37,1.66-.18,3.5-1.18,4.46-2.62.97-1.45,1.07-3.32-.69-5.33-1.4-1.44-3.09-2.7-4.81-3.9-1.73-1.2-3.49-2.38-5.02-3.76"/>
  <path class="cls-1" d="M833.64,322.07c-1.79-1.53-3.81-2.98-5.76-4.57-.98-.8-1.93-1.63-2.82-2.5-.9-.88-1.72-1.84-2.43-2.9-1.48-2.79-.5-4.94,1.17-6.05.42-.28.88-.49,1.34-.65.12-.04.23-.07.34-.08l.34-.05c.22-.03.45-.04.67-.05.88-.02,1.72.17,2.3.46,1.87.64,3.38,2.09,5.09,3.13.85.53,1.75.95,2.74,1.2.5.12,1,.25,1.52.31.26.04.52.05.79.08.27.03.55.04.83.05.11-.03.21-.06.3-.09.1-.02.19-.05.27-.08.17-.06.32-.13.44-.21.26-.14.44-.31.56-.53.13-.2.2-.45.22-.76.03-.28.02-.61-.02-.99-.04-.38-.11-.78-.19-1.23-.09-.44-.19-.93-.3-1.44-.22-1.01-.48-2.13-.71-3.31-.24-1.18-.43-2.38-.53-3.59-.04-.6-.07-1.21-.04-1.79.03-.58.1-1.15.23-1.7.25-1.11.75-2.09,1.57-2.9.42-.39.92-.73,1.51-1,.59-.25,1.27-.45,2.04-.53.46,0,.91,0,1.34.03.43.02.83.11,1.22.18.78.14,1.47.38,2.08.63,1.22.53,2.1,1.21,2.7,1.96.61.73.94,1.54,1.1,2.33.17.78.14,1.6.03,2.37-.23,1.57-.79,3.05-1.25,4.38-.47,1.33-.85,2.47-.87,3.28-.04.32-.1.75-.17,1.25-.03.24-.05.49-.08.75-.02.26-.04.51-.04.76,0,.24,0,.51.03.73.02.12.04.23.06.33.02.11.05.23.1.33.08.21.2.39.35.58.15.18.36.34.61.51.62.11,1.21.22,1.82.25.6.04,1.2.04,1.81-.01,1.21-.1,2.4-.37,3.63-.69,1.22-.32,2.45-.61,3.7-.7.63-.04,1.27-.01,1.92.11.65.12,1.31.34,1.98.7,1.8,1.03,2.35,3.07,2.14,4.79-.2,1.75-1.08,3.22-1.8,3.84-.48.54-1,.97-1.54,1.35-.54.37-1.08.68-1.64.96-1.11.56-2.23,1.03-3.31,1.65-.45.2-1.07.61-1.7,1.14-.31.26-.63.55-.93.87-.3.31-.57.65-.82,1.01-.48.72-.8,1.52-.79,2.36,0,.85.35,1.74,1.19,2.68,2.41,2.41,5.49,2.59,8.1,3.99,1.14.42,2.56,1.58,3.14,2.92.3.67.38,1.39.14,2.11-.25.73-.82,1.47-1.87,2.28-1.21.92-2.47,1.43-3.74,1.85-1.27.42-2.54.75-3.75,1.42-.33.23-.7.46-1.07.75-.37.29-.74.64-1.07,1.1-.65.9-1.16,2.18-1.14,4.1.37,1.83,1.3,2.89,2.45,3.39,1.14.52,2.5.53,3.86.3,1.37-.22,2.75-.67,3.93-1.01,1.18-.33,2.16-.59,2.74-.52.95-.15,1.68-.12,2.21,0,.13.03.25.08.36.12.11.04.21.09.29.15.08.06.15.13.21.21.06.07.11.14.15.23.04.09.06.18.08.29.02.09.03.2.02.31,0,.12-.02.24-.04.38-.02.13-.05.26-.09.41-.16.6-.44,1.29-.83,2.15-.54,1.27-1.22,2.52-1.92,3.75-.35.62-.7,1.23-1.01,1.87-.3.63-.57,1.28-.72,1.98-.04.32-.12.79-.15,1.34-.03.55.02,1.17.21,1.82.05.16.11.33.17.49.07.16.16.31.25.47.2.3.43.61.72.9.3.26.66.5,1.08.69.42.19.91.29,1.45.35.4-.07.78-.2,1.12-.33.34-.14.65-.28.93-.48.56-.38,1-.81,1.34-1.26.69-.96,1.06-2.02,1.31-3.09.25-1.07.38-2.19.53-3.22.08-.52.15-1.02.25-1.5.09-.48.2-.91.33-1.35.13-.69.32-1.31.56-1.8.06-.13.13-.26.19-.37l.05-.09s.04-.06.04-.08l.03-.13c.02-.08.03-.15.05-.2.02-.06.07-.11.1-.16.08-.11.13-.17.21-.17h.03s.05-.01.07-.01c.05-.01.11-.02.16-.03.11-.01.23-.02.35-.02.24,0,.5.05.8.15.29.1.62.26.96.45,1.12.6,2.06,1.45,2.83,2.39.78.94,1.48,1.95,2.4,2.7.45.28,1.35.96,2.42,1.12.55.08,1.19.03,1.84-.29.33-.15.67-.37,1.02-.65.34-.29.68-.66,1.01-1.1.08-.18.16-.36.23-.53.07-.18.12-.35.18-.52.11-.34.19-.66.24-.97.12-.62.13-1.2.07-1.74-.11-1.09-.49-2.02-.96-2.9-.94-1.78-2.29-3.23-2.79-4.96-.26-.55-.43-1.16-.49-1.77-.06-.61-.01-1.24.19-1.79.2-.56.54-1.07,1.07-1.46.53-.4,1.25-.67,2.2-.79.71-.09,1.38-.07,2.02.01.63.1,1.23.27,1.81.47.58.2,1.16.41,1.72.64l.84.35.86.34c.17.05.35.11.52.18.09.03.17.07.27.1l.29.07c.4.09.82.16,1.29.16.91.01,1.98-.27,3.18-1.09.91-.95,1.23-1.89,1.21-2.87-.02-.98-.39-1.97-.88-2.95-.98-1.95-2.5-3.79-2.77-4.78-.77-1.36-1.01-3.25-.19-4.81.21-.39.47-.75.83-1.07.17-.16.36-.31.57-.45.21-.13.44-.25.69-.36.97-.41,2.25-.6,3.74-.2,1.02.26,1.89.67,2.65,1.15.38.24.74.5,1.08.76.16.13.36.28.48.4l.33.34c.44.48.86.95,1.3,1.43.44.5.9.95,1.39,1.43.99.95,1.74,1.22,2.39.93.17-.08.33-.18.5-.34.08-.08.16-.17.25-.26.08-.09.17-.19.25-.3.17-.22.33-.49.49-.79.16-.3.33-.62.49-.99.4-.82.73-1.76,1.1-2.72.37-.97.75-1.98,1.21-2.99.46-1.01.99-1.98,1.69-2.86.35-.44.75-.86,1.2-1.25.05-.04.13-.11.18-.14l.17-.09c.12-.06.24-.11.36-.16.25-.1.52-.18.8-.24.64-.08,1.24,0,1.81.17.29.09.55.21.76.32.2.1.38.21.55.35.34.28.63.63.91.99.27.39.49.8.66,1.24.17.45.29.9.38,1.35.08.45.12.9.13,1.3.02.81-.1,1.51-.24,1.9-.2.85-.55,1.61-.97,2.32-.41.72-.89,1.39-1.36,2.07-.95,1.35-1.88,2.75-2.51,4.34-.35.73-.74,1.96-.8,2.96-.05,1.02.27,1.82,1.74,2.22,1.36.33,2.83.3,4.33.13,1.5-.18,3.01-.46,4.38-.22,2.16.27,3.46,1.6,3.74,3.18.28,1.59-.46,3.39-2.16,4.72-1.09.92-2.29,1.43-3.5,2.01-1.21.57-2.43,1.17-3.56,2.16-.79.58-1.54,1.6-1.78,2.72-.23,1.12.07,2.35,1.42,3.3,1.72,1.17,3.82,1.64,5.91,1.86,2.09.24,4.16.36,5.9,1.03,1.76.54,2.8,1.56,3.07,2.73.27,1.17-.22,2.47-1.57,3.73-1.11,1.13-2.44,1.85-3.82,2.42-1.38.59-2.82,1.08-4.07,1.98-.59.41-1.9,1.61-2.36,3.34-.11.43-.18.89-.15,1.38.01.24.04.49.09.74.06.25.14.5.24.76.43,1.01,1.29,2.04,2.74,2.8.77.29,1.49.44,2.2.46.17,0,.35.01.51,0l.36-.19c.24-.13.48-.26.73-.39,1.22-.26,2.34-.72,3.35-1.17.52-.16,1.12-.44,1.77-.72.66-.29,1.37-.6,2.09-.82.36-.11.72-.21,1.07-.27.36-.06.71-.09,1.06-.11.35-.01.69.01,1.02.1l.49.14c.16.06.32.13.48.22.09.12.17.26.26.37.08.11.15.23.22.35.07.12.13.25.18.38.05.13.1.26.15.38.09.25.17.51.22.79.03.14.05.28.08.43.02.14.04.28.07.42.08.57.11,1.2.13,1.86.02.63.02,1.3.03,1.99,0,.68,0,1.38.05,2.07.04.68.12,1.35.27,2,.15.64.38,1.29.74,1.85.36.56.85,1.07,1.52,1.5.36.26.74.49,1.11.67.38.18.76.34,1.14.44.75.2,1.52.3,2.2.24.7-.05,1.36-.19,1.92-.44.57-.24,1.09-.54,1.5-.91.41-.37.77-.76,1.04-1.18.26-.43.46-.86.6-1.28.14-.42.21-.83.23-1.22.02-.38,0-.74-.05-1.04.14-1-1.01-4.14-1.61-6.86-.15-.69-.27-1.34-.33-1.95-.03-.31-.04-.6-.03-.87.01-.27.05-.52.1-.77.06-.24.15-.46.27-.66.12-.21.27-.4.47-.56.39-.34.95-.6,1.74-.82.61-.06,1.19-.09,1.75-.07.55,0,1.08.05,1.6.14,1.02.16,1.98.48,2.91.86.93.38,1.83.82,2.77,1.17.93.35,1.92.64,3,.58.7.06,1.64-.11,2.59-.62.95-.48,1.91-1.33,2.64-2.5l-1.25,2.46c.19-.21.37-.43.54-.66l.23-.31.19-.28c.27-.4.44-.7.62-1.04.04-.09.08-.17.12-.24l.1-.22c.06-.15.13-.31.17-.45.09-.27.17-.57.21-.85.17-1.1-.07-2.16-.77-3.22-.64-1.62-3.36-2.92-5.64-4.6-2.28-1.71-4.15-3.72-3.11-6.7,1.58-2.31,3.49-2.96,5.34-3.16,1.85-.2,3.67.08,5.1-.26,1.68-.1,3.47-.8,4.43-1.92.48-.56.76-1.22.73-2.01-.03-.78-.36-1.7-1.09-2.79-1.17-1.59-2.56-3.17-3.92-4.78-.67-.81-1.34-1.63-1.96-2.49-.61-.85-1.18-1.74-1.65-2.69"/>
  <path class="cls-1" d="M994.21,348.29c-.63-.97-1.28-1.99-1.9-3.03-.31-.53-.62-1.06-.92-1.61-.29-.55-.58-1.1-.84-1.67-.54-1.14-.98-2.34-1.29-3.6-.16-.64-.26-1.27-.33-1.94-.03-.33-.05-.67-.06-1.01,0-.34.01-.68.04-1.03.15-.87.46-1.62.85-2.26.2-.32.43-.6.67-.86.24-.26.51-.49.79-.68.28-.19.56-.37.86-.5.3-.13.61-.23.91-.31.3-.08.62-.11.92-.13.3-.01.6-.02.89.03,1.16.14,2.16.68,2.86,1.34.7.68,1.11,1.43,1.22,2.09.33.96.38,1.96.4,2.97.01,1.01-.02,2.04.05,3.05.06,1.01.21,2,.46,2.97.13.49.28.97.45,1.44.09.24.19.49.29.72.05.11.1.23.16.35.06.12.11.24.17.37.52.59.99.88,1.5.86.51,0,1.05-.28,1.64-.74.29-.23.6-.52.91-.84.31-.31.64-.67.97-1.05.66-.77,1.36-1.67,2.07-2.56.73-.89,1.52-1.81,2.39-2.62.22-.2.44-.4.67-.59.22-.18.44-.33.66-.49.45-.3.92-.56,1.42-.75.25-.1.5-.18.76-.24.14-.02.24-.07.35-.11l.33-.11c.44-.13.88-.23,1.32-.21.43,0,.86.08,1.29.24.42.16.84.4,1.24.75.43.48.81.94,1.11,1.41.3.48.54.96.73,1.41.09.23.18.45.24.68.06.23.11.46.15.68.08.44.11.87.1,1.28,0,.2-.02.4-.04.6-.03.2-.06.4-.11.59-.09.38-.21.75-.36,1.1-.3.71-.71,1.35-1.17,1.95-.93,1.21-2.07,2.24-3.05,3.18-.98.93-1.79,1.77-2.12,2.53-.17.29-.4.68-.63,1.12-.23.45-.45.94-.63,1.47-.17.53-.26,1.06-.23,1.62.01.28.09.54.18.84.09.29.24.57.45.87,1.08.83,2.2,1.33,3.35,1.58,1.14.27,2.32.26,3.51.21,1.19-.04,2.37-.13,3.55.01.59.07,1.18.2,1.76.43.57.23,1.14.55,1.7,1.01,1.46,1.15,1.73,2.83,1.43,4.28-.15.73-.43,1.41-.76,2-.33.57-.71,1.04-1.04,1.34-1.82,2-4.08,2.74-6.03,4.33-.42.27-.97.8-1.5,1.49-.52.7-1.03,1.56-1.31,2.53-.29.95-.36,2-.05,2.99.16.5.4.97.77,1.4.37.44.84.83,1.44,1.14.84.38,1.66.57,2.45.63.8.07,1.59.02,2.36-.08,1.54-.19,3.02-.56,4.52-.75.31-.07.65-.12,1.01-.15.18-.01.36-.02.55-.02h.03s0,0,0,0h0l.02.03c.04.07.03.04.04.05l.08.03.16.06c.11.04.22.08.33.13.22.11.45.24.67.4.18.03.33.03.49.05.31.04.63.11.87.2,1.03.38,1.45,1.27.67,3.78-.47,1.46-1.17,2.7-1.97,3.9-.79,1.2-1.65,2.32-2.22,3.68-.25.83-.61,1.75-.62,2.87,0,.57.1,1.16.36,1.82.13.33.3.67.53,1.02.23.35.5.72.85,1.08.41.29.82.52,1.21.7.41.17.82.28,1.21.34.39.07.78.07,1.16.04.38-.04.74-.11,1.08-.23,1.41-.48,2.54-1.54,3.48-2.8.94-1.26,1.68-2.64,2.32-3.85.63-1.21,1.15-2.21,1.58-2.66.27-.46.51-.85.74-1.17.11-.16.22-.3.33-.43.1-.14.2-.26.29-.36.38-.39.66-.57.93-.5.13.02.27.1.42.25.14.12.29.3.46.54.09.12.18.25.27.38.09.13.19.28.29.44.2.32.43.7.67,1.09.75,1.13,1.42,2.42,2.04,3.7.64,1.29,1.22,2.58,2.25,3.58.5.39,1.44,1.27,2.8,1.53.34.07.71.11,1.11.1.39-.01.79-.1,1.21-.23.21-.07.43-.15.65-.26.11-.05.22-.11.33-.17.1-.07.21-.14.31-.21.42-.3.84-.67,1.26-1.12.34-.71.56-1.37.68-1.97.07-.3.08-.6.08-.88,0-.28-.02-.56-.06-.82-.07-.53-.22-1.01-.41-1.46-.19-.45-.45-.88-.72-1.28-1.11-1.6-2.61-2.91-3.62-4.29l.47-.58c-.22-.38-.44-.74-.66-1.1-.77-1.1-1.32-1.96-1.19-2.72.13-.75.95-1.49,2.77-1.89,1.46-.36,2.86-.36,4.23-.21,1.38.14,2.74.4,4.13.34.63-.09,1.92-.17,3.11-.78,1.18-.6,2.25-1.73,2.34-3.7-.66-2.75-2.44-4-4.34-4.98-1.9-.98-3.96-1.64-5.24-3.05-1.01-.78-1.75-2.05-1.77-3.38-.03-1.33.66-2.74,2.46-3.65,1.35-.7,2.65-.87,3.93-.89,1.28-.03,2.53.05,3.81-.06.74-.15,1.58-.19,2.43-.46.84-.27,1.68-.76,2.43-1.72.44-.99.38-1.87.04-2.73-.17-.43-.42-.86-.7-1.27-.29-.42-.63-.84-.98-1.24-1.41-1.62-3.15-3.1-3.57-4.09-.46-.62-.81-1.4-.95-2.25-.14-.85-.08-1.78.26-2.66.17-.44.4-.86.72-1.24.3-.39.7-.72,1.14-1,.91-.55,2.07-.84,3.43-.6,1.85.32,3.09,1.27,4.26,2.3.58.52,1.13,1.04,1.7,1.58.56.52,1.15,1.06,1.76,1.56.31.27.59.48.85.65.27.18.51.32.74.4.06.02.12.05.18.07.03.01.07.02.08.03l.04.03c.06.04.1.06.18.07.14.03.26.01.38-.05.24-.11.49-.45.77-.79.28-.38.6-.91.97-1.6.22-.37.46-.76.71-1.17.25-.41.5-.84.74-1.28.47-.9.97-1.83,1.46-2.77.51-.92,1.07-1.81,1.77-2.58.7-.77,1.55-1.41,2.64-1.79,1.21-.32,2.31-.07,3.22.41.9.54,1.63,1.31,2.11,2.2.25.44.45.88.6,1.33.14.45.24.89.31,1.29.12.81.09,1.49-.02,1.89-.24,1.73-1.1,3.11-1.92,4.53-.82,1.41-1.62,2.9-2,4.57-.12.38-.23.92-.28,1.47-.04.55-.05,1.17.05,1.71.2,1.12.81,2,2.48,2.26,1.53.18,3.06-.17,4.55-.62,1.49-.45,2.96-1.07,4.41-1.16,2.27-.28,3.83.61,4.51,1.97.68,1.37.45,3.17-.75,4.95-.75,1.2-1.72,2.15-2.65,3.14-.93,1-1.85,2.05-2.44,3.52-.12.23-.22.48-.3.76-.07.28-.12.58-.15.9-.02.31-.02.64.02.97.04.33.12.67.23,1,.46,1.31,1.58,2.55,3.45,2.78.29.03.57.05.85.04.29,0,.57-.02.84-.06l.34-.14.33-.16.68-.32c.91-.42,1.85-.85,2.84-1.25,1.95-.83,3.83-1.83,5.57-2.32,1.73-.59,2.99-.5,3.8.11.79.63,1.11,1.87.85,3.69-.17,1.57-.72,2.97-1.39,4.32-.65,1.35-1.41,2.65-1.75,4.14-.09.35-.17.95-.13,1.68.04.72.2,1.58.61,2.36.21.39.46.79.8,1.13.34.34.74.65,1.22.9.49.23,1.05.41,1.68.48.64.06,1.36.01,2.12-.15.76-.27,1.39-.63,1.92-1.04.54-.42.98-.91,1.34-1.41.37-.5.66-1.03.91-1.56.25-.54.46-1.08.65-1.6.47-.96.87-2.49,1.43-3.88.14-.34.29-.67.45-.98.16-.31.33-.62.51-.88.09-.13.19-.26.29-.37.1-.12.2-.24.31-.34.11-.1.22-.19.35-.27.12-.08.24-.18.38-.24.13,0,.26.02.39.03.12,0,.25.02.37.04.25.04.51.13.76.18.25.07.51.16.77.28.27.12.52.21.79.35,1.09.55,2.26,1.18,3.49,1.9l.93.53c.32.17.62.33.94.5.63.32,1.28.62,1.94.84.33.11.67.21,1.02.28.17.04.35.07.52.09.17.02.34.03.51.04.68.04,1.42-.1,2.18-.39.88-.26,1.61-.64,2.26-1.06.33-.21.6-.44.84-.67.24-.24.46-.48.65-.73.19-.25.36-.51.49-.76.12-.26.22-.51.29-.77.15-.52.21-1.03.19-1.52-.09-.97-.45-1.86-.92-2.57-.48-.72-1.1-1.29-1.64-1.61-.34-.39-1.31-.9-2.49-1.51-.59-.3-1.23-.63-1.89-.97-.66-.35-1.32-.73-1.92-1.13-.61-.39-1.15-.84-1.6-1.3-.22-.23-.42-.46-.59-.7-.17-.24-.3-.47-.41-.75-.21-.54-.27-1.11-.13-1.72.07-.31.19-.63.36-.96.16-.34.38-.69.66-1.07,1-.98,2-1.61,2.99-2.03,1-.42,2.01-.62,3.03-.73,2.05-.29,4.17-.3,6.15-1.23,1.3-.42,2.96-1.96,3.61-3.66.32-.85.41-1.76.12-2.63-.29-.87-.95-1.69-2.09-2.39-1.23-1.17-4.26-1.31-6.96-2.19-2.71-.82-5.03-2.12-5.08-5.22.64-2.66,2.04-3.93,3.57-4.76,1.54-.81,3.09-1.33,4.13-2.23.66-.39,1.29-.93,1.69-1.62.42-.67.71-1.42.77-2.18.06-.77-.09-1.54-.51-2.28-.42-.74-1.13-1.46-2.13-2.1-1.46-.86-3.23-1.6-4.91-2.33-.85-.37-1.66-.73-2.47-1.15-.85-.43-1.68-.89-2.46-1.42"/>
</svg>