<?xml version="1.0" encoding="UTF-8"?>
<svg id="bio" xmlns="http://www.w3.org/2000/svg" viewBox="0 0 1210.6 1081.61">
  <defs>
    <style>
      .cls-1 {
        fill: #000;
        stroke-width: 0px;
      }
    </style>
  </defs>
  <path class="cls-1" d="M1162.5,230.15l-8.36-41.37s16.17-15.45,4.01-18.88c-4.41-.93-10.16,1.19-13.57-2.31-4.44-5.75,6.62-10.7,6.41-16.76,0-7.91-10-7.38-11.86-.63-1.77,3.89-2.86,9.23-7.77,4.79-3.72-5.32-15.13-10.79-15.62-.58.18,6.92,18.69,13.98,6.71,19.34-33.28,3.96,8.89,15.43-6.23,26.01-5.23,2.79-9.82-2.54-14.85-3.89-9.48-2.36-3.08,11.69-8.37,15.64-11.38,7.5-10.49-9.56-10.26-16.36-2.04-5.55-9.04-2.03-13.31-2.65-21.61-8.42,29.98-20.3-6.1-25.58-16.03-3.68,18.13-21.73-2.17-23.76-5.47.83-13.55,11.6-16.02,1.84,1.3-11.39-12.11-20.6-14.74-6.03,4.65,13.41,10.21,19.74-9.49,17.67-13.53,2.85-1.05,12.69,4.61,16.7,7.67,19.63-29.51-.48-15.35,26.08,1.95,8.45-10.42,11.74-12.97,3.62-1.96-4.19,2.58-15.05-2.47-16.49-6.53-1.08-13.5,12.47-22.63,3.1-4.63-9.05,6.45-12.85,7.81-20.01-3.03-8.96-28.3,2.01-15.54-14.47,12.09-12.67-4.53-21.41-10.69-5.91-5.66,8.31-14.91-14.17-20.97-1.62-1.62,5.78,5.26,8.8,7.74,12.98,4.77,13.65-18.92.82-19.17,11.82,1.07,6.22,9.24,7.53,11.76,12.92,2.78,6.38-3.97,9.05-9.26,7.29-13.22-5.64-9.88,4.32-13.99,12.43-3.86,5.17-12.18,1.71-12.31-4.39-.34-5.55,6.46-10.47,4.96-16.05-3.09-6.44-16.63,2.72-20.24-5.63-2.69-9.14,25.2-18.23,3.75-23.16-21.78.27,9.91-22.15-8.96-23.76-13.2,7.51-5.24,18.23-21.95,3.07-23.93-.89,12.63,21.43-5.11,23.74-5.67-.64-19.17-.06-12.86,8.63,17.58,9.87,16.59,18.95-4.8,16.67-10.09,3.61,8.32,16.93-2.46,21.85-18.92,3.64-.7-26.51-24.69-15.85-6.71,1.44-10.99-5.11-6.53-10.37,4.86-3.8,20.22-12.49,8-17.74-6.95-1.17-13.7,3.55-20.4-.48-2.65-7.56,2.5-13.52-.82-18.01-2.11-2.64-6.12-1.23-7.29,1.71-1.87,18.1-.16,13.24-15.63,9.73-19.59,4.61,7.15,14.26,4.5,21.83-2.96,7.37-13.98,1.65-18.35,6.88-2.72,4.07,2.1,8.51,3.44,12.29,4.04,8.42-7.92,13.59-11.41,4.94-5.89-18.99-8.63-4.13-19.94.06-19.49-3.16,15.45-24.34-10.52-24.7-24.12-8.36,25.98-18.56,4.35-27.93-14.59.51-18.77,2.71-14.85-14.34-.21-8.58-9.22-9.29-11.93-1.42-4.35,15.6-9.85.65-19.05,2.78-13.85,6.24,12.75,15.61,3.27,22.72-43.02,5.11,12.77,17.33-10.54,25.4-19.48-4.74-13.97-2.83-12.41,13.84-.88,5.31-7.55,6.92-10.65,2.44-3.11-4.27-.16-10.19-1.57-14.87-2.87-6.38-12.39,3.58-17.77,1.46-11.47-5.88,5.56-15.55,3.52-23.38-3.47-9.94-18.11,3.55-21.52-5.95-1.17-6.66,6.96-11.97,4.65-18.81-11.25-16.45-16.43,6.13-17.56,15.72-40.85-1.67-5.38,9.6-7.72,19.06-3.62,9.08-16.05.24-21.25,6.8-2.54,4.39,3.27,9.33,4.16,13.54,2.76,8.18-9,12.24-12.72,4.89-2.27-3.13-2.35-9.6-6.19-10.9-5.83-.75-15.52,9.75-19.08.28-1.3-7.75,10.24-9.34,11.09-16.2-.37-6.6-10.76-4.11-15.2-5.08-15.69-3.6,12.53-17.12-.47-22.5-5.08-1.2-8.88,4.66-13.61,4.49-5.8-4.21-4.21-19.89-15.53-15.52-13.95,6.7,13.76,21.86-2.38,26.02-16.83,2.27-13.49,9.76-2.7,18.12,5.49,15.52-19.51.21-19.08,11.6,4,8.42-.58,23.24-9.73,12.13-2.54-4.47,2.05-11.17-1.82-14.88-18.26,4.07-27.01-1.87-6.66-13.66,8.3-12.67-17.2-5.19-17.71-14.33.01-6.52,11.84-9.31,9.43-17.53-5.56-11.16-14.62,5.41-21.48,2.33-5.68-9.86-23.18-14.54-17.93,1.4,2.41,3.9,9.83,8.67,5.81,13.65-5,4.86-13.89-.06-19.17,4.46-8,10.71,17.4,11.68,12.73,23.69-9.44,14.96-21.31-9.59-26.09,11.29-3.25,9.33-17.02,4.86-14.89-4.41,7.92-14,11.25-18.5-8.05-19.26-17.69-8.49,21.33-16.59,5.15-25.24-31.73.6,3.48-14.88-11.19-24.15-7.81-1.96-9.41,8-11.71,13.22-2.72,4.78-8.18-4.01-14.05-3.41-15.55,4.13,12.14,15.74,1.36,22.19-41.53,5.54-.79,14.73-6.13,24.95-4.74,8.98-20.32-3.54-20.27,9.76-.04,18.75-16.51,10.72-11.49-4.47-.24-7.96-9.33-2.6-13.8-2.65-4.6.38-8.39-3.55-5.74-7.93,2.57-4.79,12.99-6.21,10.92-13.02-2.89-5.46-11.13-2.27-15.53-5.49-7.62-7.99,17.5-15.32,5.06-23.3-12.61-2.33-17.03,18.16-24.26-2.28-3.01-5.77-12.65-4.97-12.55,2.26,5.03,14.09,11.89,18.57-8.41,21.33-19.06,8.01,22.97,20.51.52,27.11-34.01-12.04-1.73,15.02-23,19.72-21.37-5.95,7.1-27.57-26.07-18.02-11.8-4.21.56-14.03,5.21-18.63,7.45-20.64-31.92,5.93-15.31-22.78,1.57-5.15-3.14-10.11-8.02-6.96-3.82,2.07-6.2,10.56-9.97,9.14-4.84-3.08-7.74-14.18-15.34-9.84-9.91,7.63,11.65,15.65,4.66,22.76-35.61,7.47,2.1,11.47-5.72,24.75-5.59,7.59-23.93-9.17-22.07,5.74,7.89,19.12-12.45,20.43-12.27,1.41-1.97-11.04-26,7.46-19.53-10.34,30.65-22.39-30.21-11.16,3.07-31.54,7.86-10.67-7.74-9.83-14.24-7.93-10.57-2.45,5.88-19.05-6.18-21.93-14.23.28-3.61,25.33-23.17,13.73-3.85-1.15-9.01.57-9.1,5.1.31,7.85,20.71,13.42,7.15,20.73-5.98,1.65-18.96,5.01-11.36,13.06,18.58,10.71,7.62,21.23-9.16,13.26-11.38-1.25,6.19,18.15-9.36,22.95l.22,23.44h1162.28Z"/>
</svg>