<?xml version="1.0" encoding="UTF-8"?>
<svg id="bio" xmlns="http://www.w3.org/2000/svg" viewBox="0 0 1204.44 1081.61">
  <defs>
    <style>
      .cls-1 {
        fill: none;
        stroke: #000;
        stroke-linecap: round;
        stroke-linejoin: round;
        stroke-width: 7px;
      }
    </style>
  </defs>
  <path class="cls-1" d="M14.67,477.14c7.26-6.82,14.55-15.6,22.05-21.69,4.59-3.28,6.36-2.28,6.7.19.35,2.44-.7,6.3-2.05,8.73-1.69,3.7-4.34,7.19-6.52,10.85-2.17,3.67-3.85,7.52-3.4,12.08,1.28,3.28,3.45,3.36,6.01,1.63,2.56-1.71,5.59-5.29,8.65-9.15,6.13-7.74,12.49-16.79,16.18-15.62.96.63,1.61,1.46,2,2.45.2.5.33,1.03.41,1.6.08.56.12,1.15.1,1.77-.07,2.48-.89,5.42-1.97,8.42-2.15,6.01-5.4,12.21-5.56,15.45-.17,1.3-.48,3.6-.13,5.64.35,2.04,1.36,3.83,3.74,4.05,4.85-1.6,7.73-5.79,10.41-10.22,2.67-4.45,5.17-9.15,8.89-11.96,2.41-1.9,3.93-1.15,4.92.39.97,1.57,1.35,4.09,1.28,5.82.18,4.97-1.18,9.94-1.45,14.89-.24,2.01-.03,5.92,1.21,8.41,1.22,2.52,3.42,3.78,6.72.59,2.2-2.32,3.77-5.14,5.19-8.05,1.42-2.91,2.69-5.92,4.22-8.69,1.12-2.42,3.25-5.4,5.22-6.52,1.98-1.12,3.78-.37,4.56,4.73.42,2.99.23,5.9-.12,8.86-.35,2.95-.86,5.9-.97,8.82.08,3.32-.28,7.9,3.12,10.52,1.91.55,3.58-.46,5.06-2.41,1.47-1.93,2.73-4.72,3.85-7.71,2.23-5.97,3.89-12.69,5.42-14.8,1.86-3.95,3.78-5.38,5.33-4.83,1.56.48,2.77,2.95,3.13,6.84.72,5.77-.9,11.98-.65,17.7.13,1.25.24,3.68.91,5.75.67,2.07,1.9,3.81,4.17,3.52,3.41-2.08,5.02-6.19,6.21-10.57,1.18-4.38,1.96-9.01,3.58-12.16.99-2.64,2.5-4.55,3.99-4.91,1.5-.36,2.99.83,4.02,4.37,1.74,5.65.88,11.71,1.43,17.48.39,2.54,1.14,10.66,5.86,9.73,3.21-2.34,4.54-6.52,5.45-10.94.91-4.43,1.4-9.08,2.84-12.37,1.52-4.92,5.26-8.35,8.01-1.49,2.13,5.09,2.02,10.74,3.05,16.05.79,3,1.28,7.08,4.57,8.96,6.22,1.01,6.71-15,8.12-18.69,1.33-6.24,5.52-11.76,9.46-3.08,2.72,5.91,2.82,12.56,5.81,18.4,2.89,5.89,6.73,4.66,8.55-1.63,2.4-7.02,1.93-17.83,5.72-24.48,4.4-6.42,8.5,3,9.04,6.35,1.57,6.48.44,14.09,2.7,20.56.86,3.15,4.49,9.26,8.03,3.91,3.13-5.02,3.3-12.9,5.15-18.57,1.32-4.54,3.16-6.53,4.92-6.34,1.76.2,3.43,2.59,4.39,6.76,1.38,5.41,1.11,11.3,2.93,16.67.5,1.84,1.56,3.7,2.84,4.42,1.28.74,2.76.37,4.16-2.29,3.51-6.72,3.92-17.24,6.68-24.12,2.48-7.05,7.09-6.95,8.85.17,1.64,5.97.24,12.49.7,18.58.08,1.45.54,4.81,1.6,7.14,1.07,2.31,2.71,3.7,5.29,1.12,2.51-3.24,3.85-8.29,5.01-12.64.69-2.02,1.41-5.2,2.58-7.92,1.17-2.71,2.81-5.02,5.3-5.09,3.87,1.88,4.61,7.07,4.78,12.61.16,5.54-.23,11.44,1.28,14.73,1.5,4.39,3.44,4.61,5.27,3.1,1.82-1.5,3.5-4.69,4.28-7.05.87-1.62,2.57-8.31,4.95-13.47,1.18-2.57,2.55-4.81,4.04-5.75,1.49-.96,3.13-.7,4.81,1.6,2,4.05,1.98,8.23,1.55,12.41-.44,4.18-1.29,8.38-1.09,12.45-.03,1.33.14,2.86.51,4.28.36,1.42.9,2.76,1.61,3.67,1.42,1.82,3.5,1.94,6.26-2.11,1.92-2.03,3.91-8.21,6.32-13.66,1.21-2.72,2.52-5.26,4-7,1.48-1.74,3.09-2.62,4.91-2.1,5.35,4.88,2.27,14.9,2.83,20.66-.04,1.75.13,3.49.5,4.97.36,1.5.92,2.76,1.66,3.51,1.49,1.51,3.73,1.01,6.74-3.44,4.38-6.93,8.08-15.95,12.47-23.2"/>
</svg>