<?xml version="1.0" encoding="UTF-8"?>
<svg id="Layer_1" data-name="Layer 1" xmlns="http://www.w3.org/2000/svg" viewBox="0 0 117.54 106.54">
  <defs>
    <style>
      .cls-1 {
        fill: #000;
      }

      .cls-1, .cls-2 {
        stroke-width: 0px;
      }

      .cls-2 {
        fill: #fff;
      }
    </style>
  </defs>
  <g>
    <circle class="cls-1" cx="58.77" cy="68.04" r="38.5"/>
    <g>
      <circle class="cls-1" cx="53.11" cy="74.41" r="22"/>
      <circle class="cls-1" cx="22" cy="43.29" r="22"/>
      <rect class="cls-1" x="15.56" y="36.85" width="44" height="44" transform="translate(22.5 127.02) rotate(-135)"/>
    </g>
    <g>
      <circle class="cls-1" cx="58.06" cy="66" r="22"/>
      <circle class="cls-1" cx="58.06" cy="22" r="22"/>
      <rect class="cls-1" x="36.06" y="22" width="44" height="44" transform="translate(14.06 102.06) rotate(-90)"/>
    </g>
    <g>
      <circle class="cls-1" cx="64.43" cy="74.41" r="22"/>
      <circle class="cls-1" cx="95.54" cy="43.29" r="22"/>
      <rect class="cls-1" x="57.98" y="36.85" width="44" height="44" transform="translate(-18.19 73.79) rotate(-45)"/>
    </g>
  </g>
  <circle class="cls-2" cx="58.27" cy="22.45" r="12.5"/>
  <circle class="cls-2" cx="95.27" cy="43.45" r="12.5"/>
  <circle class="cls-2" cx="22.27" cy="43.45" r="12.5"/>
  <path class="cls-2" d="M32.77,77.49c0-14.36,11.64-26,26-26s26,11.64,26,26-16.25,18.42-26,8.67c-9.75,9.75-26,5.69-26-8.67Z"/>
</svg>