<?xml version="1.0" encoding="UTF-8"?>
<svg id="Layer_1" data-name="Layer 1" xmlns="http://www.w3.org/2000/svg" viewBox="0 0 223.25 717.2">
  <defs>
    <style>
      .cls-1 {
        fill: #000;
        stroke-width: 0px;
      }

      .cls-2 {
        fill: none;
        stroke: #000;
        stroke-miterlimit: 10;
        stroke-width: 8px;
      }
    </style>
  </defs>
  <line class="cls-2" y1="713.2" x2="100" y2="713.2"/>
  <line class="cls-2" y1="663.2" x2="100" y2="663.2"/>
  <line class="cls-2" y1="613.2" x2="100" y2="613.2"/>
  <line class="cls-2" y1="563.2" x2="100" y2="563.2"/>
  <line class="cls-2" y1="513.2" x2="100" y2="513.2"/>
  <line class="cls-2" y1="463.2" x2="100" y2="463.2"/>
  <line class="cls-2" y1="413.2" x2="100" y2="413.2"/>
  <line class="cls-2" y1="363.2" x2="100" y2="363.2"/>
  <line class="cls-2" y1="313.2" x2="100" y2="313.2"/>
  <line class="cls-2" y1="263.2" x2="100" y2="263.2"/>
  <line class="cls-2" y1="213.2" x2="100" y2="213.2"/>
  <line class="cls-2" y1="163.2" x2="100" y2="163.2"/>
  <line class="cls-2" y1="113.2" x2="100" y2="113.2"/>
  <line class="cls-2" y1="63.2" x2="100" y2="63.2"/>
  <line class="cls-2" y1="13.2" x2="100" y2="13.2"/>
  <g>
    <path class="cls-1" d="M138.83,8.06V.58h12.2v26.32h-8.39V8.06h-3.82Z"/>
    <path class="cls-1" d="M156.64,3.56c1.76-2.38,4.48-3.56,8.15-3.56s6.36,1.19,8.14,3.58c1.78,2.39,2.66,5.65,2.66,9.77s-.89,7.42-2.66,9.81c-1.78,2.39-4.49,3.58-8.14,3.58s-6.39-1.19-8.15-3.58c-1.76-2.39-2.65-5.66-2.65-9.81s.88-7.42,2.65-9.79ZM167.13,9.02c-.38-.97-1.16-1.46-2.34-1.46s-1.99.49-2.38,1.46c-.38.97-.58,2.42-.58,4.34s.19,3.4.58,4.37c.38.97,1.18,1.46,2.38,1.46s1.96-.49,2.34-1.46c.38-.97.58-2.43.58-4.37s-.19-3.37-.58-4.34Z"/>
    <path class="cls-1" d="M180.47,3.56c1.76-2.38,4.48-3.56,8.15-3.56s6.36,1.19,8.14,3.58c1.78,2.39,2.66,5.65,2.66,9.77s-.89,7.42-2.66,9.81c-1.78,2.39-4.49,3.58-8.14,3.58s-6.39-1.19-8.15-3.58c-1.76-2.39-2.65-5.66-2.65-9.81s.88-7.42,2.65-9.79ZM190.96,9.02c-.38-.97-1.16-1.46-2.34-1.46s-1.99.49-2.38,1.46c-.38.97-.58,2.42-.58,4.34s.19,3.4.58,4.37c.38.97,1.18,1.46,2.38,1.46s1.96-.49,2.34-1.46c.38-.97.58-2.43.58-4.37s-.19-3.37-.58-4.34Z"/>
    <path class="cls-1" d="M204.3,3.56c1.76-2.38,4.48-3.56,8.15-3.56s6.36,1.19,8.14,3.58c1.78,2.39,2.66,5.65,2.66,9.77s-.89,7.42-2.66,9.81c-1.78,2.39-4.49,3.58-8.14,3.58s-6.39-1.19-8.15-3.58c-1.76-2.39-2.65-5.66-2.65-9.81s.88-7.42,2.65-9.79ZM214.79,9.02c-.38-.97-1.16-1.46-2.34-1.46s-1.99.49-2.38,1.46c-.38.97-.58,2.42-.58,4.34s.19,3.4.58,4.37c.38.97,1.18,1.46,2.38,1.46s1.96-.49,2.34-1.46c.38-.97.58-2.43.58-4.37s-.19-3.37-.58-4.34Z"/>
  </g>
  <g>
    <path class="cls-1" d="M148.28,219.58c.32.35.77.52,1.35.52.89,0,1.47-.45,1.75-1.35.28-.9.41-2.35.41-4.34-.43.67-1.06,1.2-1.87,1.58-.82.38-1.74.58-2.77.58-2.28,0-4.12-.72-5.51-2.16-1.39-1.44-2.09-3.52-2.09-6.23,0-1.8.38-3.37,1.13-4.7s1.84-2.36,3.24-3.08,3.04-1.08,4.91-1.08c3.79,0,6.43,1.12,7.9,3.35,1.48,2.23,2.21,5.41,2.21,9.54,0,4.75-.73,8.32-2.18,10.69s-3.89,3.56-7.33,3.56c-1.9,0-3.53-.4-4.9-1.19s-2.42-1.83-3.15-3.11c-.73-1.28-1.15-2.67-1.24-4.16h7.45c.12.7.34,1.22.67,1.57ZM150.68,209.92c.38-.36.58-.86.58-1.51,0-.72-.19-1.25-.56-1.6-.37-.35-.89-.52-1.57-.52s-1.19.17-1.57.52c-.37.35-.56.88-.56,1.6,0,.65.19,1.15.58,1.51.38.36.9.54,1.55.54s1.16-.18,1.55-.54Z"/>
    <path class="cls-1" d="M163.76,202.9c1.76-2.38,4.48-3.56,8.15-3.56s6.36,1.19,8.14,3.58c1.78,2.39,2.66,5.65,2.66,9.77s-.89,7.42-2.66,9.81c-1.78,2.39-4.49,3.58-8.14,3.58s-6.39-1.19-8.15-3.58c-1.76-2.39-2.65-5.66-2.65-9.81s.88-7.42,2.65-9.79ZM174.26,208.35c-.38-.97-1.16-1.46-2.34-1.46s-1.99.49-2.38,1.46c-.38.97-.58,2.42-.58,4.34s.19,3.4.58,4.37c.38.97,1.18,1.46,2.38,1.46s1.96-.49,2.34-1.46c.38-.97.58-2.43.58-4.37s-.19-3.37-.58-4.34Z"/>
    <path class="cls-1" d="M187.6,202.9c1.76-2.38,4.48-3.56,8.15-3.56s6.36,1.19,8.14,3.58c1.78,2.39,2.66,5.65,2.66,9.77s-.89,7.42-2.66,9.81c-1.78,2.39-4.49,3.58-8.14,3.58s-6.39-1.19-8.15-3.58c-1.76-2.39-2.65-5.66-2.65-9.81s.88-7.42,2.65-9.79ZM198.09,208.35c-.38-.97-1.16-1.46-2.34-1.46s-1.99.49-2.38,1.46c-.38.97-.58,2.42-.58,4.34s.19,3.4.58,4.37c.38.97,1.18,1.46,2.38,1.46s1.96-.49,2.34-1.46c.38-.97.58-2.43.58-4.37s-.19-3.37-.58-4.34Z"/>
  </g>
  <g>
    <path class="cls-1" d="M141.59,408.91c-.54-.9-.81-1.97-.81-3.22s.35-2.47,1.04-3.53c.7-1.06,1.76-1.9,3.19-2.54,1.43-.64,3.19-.95,5.27-.95s3.85.32,5.27.95c1.43.64,2.49,1.48,3.19,2.54.7,1.06,1.04,2.23,1.04,3.53s-.27,2.32-.81,3.22c-.54.9-1.29,1.63-2.25,2.18,2.42,1.42,3.64,3.54,3.64,6.37,0,1.82-.46,3.37-1.37,4.64s-2.14,2.23-3.67,2.88c-1.54.65-3.22.97-5.04.97s-3.5-.32-5.04-.97c-1.54-.65-2.76-1.61-3.67-2.88s-1.37-2.82-1.37-4.64c0-2.83,1.21-4.96,3.64-6.37-.96-.55-1.71-1.28-2.25-2.18ZM148.57,415.21c-.42.47-.63,1.06-.63,1.78s.2,1.31.61,1.76c.41.46.98.68,1.73.68s1.32-.23,1.73-.68c.41-.46.61-1.04.61-1.76s-.21-1.31-.63-1.78c-.42-.47-.99-.7-1.71-.7s-1.29.23-1.71.7ZM151.47,405.42c-.31-.4-.71-.59-1.19-.59s-.88.2-1.19.59c-.31.4-.47.93-.47,1.6s.16,1.22.47,1.58c.31.36.71.54,1.19.54s.88-.18,1.19-.54c.31-.36.47-.89.47-1.58s-.16-1.21-.47-1.6Z"/>
    <path class="cls-1" d="M165.92,402.23c1.76-2.38,4.48-3.56,8.15-3.56s6.36,1.19,8.14,3.58c1.78,2.39,2.66,5.65,2.66,9.77s-.89,7.42-2.66,9.81c-1.78,2.39-4.49,3.58-8.14,3.58s-6.39-1.19-8.15-3.58c-1.76-2.39-2.65-5.66-2.65-9.81s.88-7.42,2.65-9.79ZM176.42,407.69c-.38-.97-1.16-1.46-2.34-1.46s-1.99.49-2.38,1.46c-.38.97-.58,2.42-.58,4.34s.19,3.4.58,4.37c.38.97,1.18,1.46,2.38,1.46s1.96-.49,2.34-1.46.58-2.43.58-4.37-.19-3.37-.58-4.34Z"/>
    <path class="cls-1" d="M189.76,402.23c1.76-2.38,4.48-3.56,8.15-3.56s6.36,1.19,8.14,3.58c1.78,2.39,2.66,5.65,2.66,9.77s-.89,7.42-2.66,9.81c-1.78,2.39-4.49,3.58-8.14,3.58s-6.39-1.19-8.15-3.58c-1.76-2.39-2.65-5.66-2.65-9.81s.88-7.42,2.65-9.79ZM200.25,407.69c-.38-.97-1.16-1.46-2.34-1.46s-1.99.49-2.38,1.46c-.38.97-.58,2.42-.58,4.34s.19,3.4.58,4.37c.38.97,1.18,1.46,2.38,1.46s1.96-.49,2.34-1.46.58-2.43.58-4.37-.19-3.37-.58-4.34Z"/>
  </g>
  <g>
    <path class="cls-1" d="M156.55,604.44l-8.21,20.45h-8.21l8.28-19.48h-9.29v-6.84h17.42v5.87Z"/>
    <path class="cls-1" d="M160.7,601.56c1.76-2.38,4.48-3.56,8.15-3.56s6.36,1.19,8.14,3.58,2.66,5.65,2.66,9.77-.89,7.42-2.66,9.81-4.49,3.58-8.14,3.58-6.39-1.19-8.15-3.58-2.65-5.66-2.65-9.81.88-7.42,2.65-9.79ZM171.2,607.02c-.38-.97-1.16-1.46-2.34-1.46s-1.99.49-2.38,1.46c-.38.97-.58,2.42-.58,4.34s.19,3.4.58,4.37c.38.97,1.18,1.46,2.38,1.46s1.96-.49,2.34-1.46.58-2.43.58-4.37-.19-3.37-.58-4.34Z"/>
    <path class="cls-1" d="M184.54,601.56c1.76-2.38,4.48-3.56,8.15-3.56s6.36,1.19,8.14,3.58,2.66,5.65,2.66,9.77-.89,7.42-2.66,9.81-4.49,3.58-8.14,3.58-6.39-1.19-8.15-3.58-2.65-5.66-2.65-9.81.88-7.42,2.65-9.79ZM195.03,607.02c-.38-.97-1.16-1.46-2.34-1.46s-1.99.49-2.38,1.46c-.38.97-.58,2.42-.58,4.34s.19,3.4.58,4.37c.38.97,1.18,1.46,2.38,1.46s1.96-.49,2.34-1.46.58-2.43.58-4.37-.19-3.37-.58-4.34Z"/>
  </g>
</svg>